SplineFontDB: 3.0
FontName: Radley-Regular
FullName: Radley
FamilyName: Radley
Weight: Normal
Copyright: Copyright (c) 2011 by vernon adams (vern@newtypography.co.uk), with Reserved Font Names "Radley"
Version: 001.001
ItalicAngle: 0
UnderlinePosition: -205
UnderlineWidth: 102
Ascent: 1638
Descent: 410
sfntRevision: 0x00010083
LayerCount: 2
Layer: 0 0 "Back"  1
Layer: 1 0 "Fore"  0
XUID: [1021 288 713564382 9858952]
FSType: 0
OS2Version: 2
OS2_WeightWidthSlopeOnly: 0
OS2_UseTypoMetrics: 1
CreationTime: 1315163166
ModificationTime: 1315163166
PfmFamily: 17
TTFWeight: 400
TTFWidth: 5
LineGap: 0
VLineGap: 0
Panose: 2 0 5 3 0 0 0 2 0 3
OS2TypoAscent: 355
OS2TypoAOffset: 1
OS2TypoDescent: -246
OS2TypoDOffset: 1
OS2TypoLinegap: 0
OS2WinAscent: 0
OS2WinAOffset: 1
OS2WinDescent: 0
OS2WinDOffset: 1
HheadAscent: 0
HheadAOffset: 1
HheadDescent: 0
HheadDOffset: 1
OS2SubXSize: 1331
OS2SubYSize: 1228
OS2SubXOff: 0
OS2SubYOff: 153
OS2SupXSize: 1331
OS2SupYSize: 1228
OS2SupXOff: 0
OS2SupYOff: 716
OS2StrikeYSize: 102
OS2StrikeYPos: 512
OS2Vendor: 'newt'
OS2CodePages: 20000093.00000000
OS2UnicodeRanges: 00000007.00000000.00000000.00000000
Lookup: 4 0 1 "'liga' Standard Ligatures in Latin lookup 0"  {"'liga' Standard Ligatures in Latin lookup 0 subtable"  } ['liga' ('latn' <'dflt' > ) ]
Lookup: 4 0 1 "'liga' Standard Ligatures in '    ' lookup 1"  {"'liga' Standard Ligatures in '    ' lookup 1 subtable"  } ['liga' ('    ' <'dflt' > ) ]
Lookup: 258 0 0 "'kern' Horizontal Kerning lookup 0"  {"'kern' Horizontal Kerning lookup 0 subtable"  } ['kern' ('    ' <'dflt' > 'latn' <'dflt' > ) ]
DEI: 91125
KernClass2: 2+ 2 "'kern' Horizontal Kerning lookup 0 subtable" 
 1 T
 5 V W Y
 283 a c d e o q agrave aacute acircumflex atilde adieresis aring ae ccedilla egrave eacute ecircumflex edieresis eth ograve oacute ocircumflex otilde odieresis oslash amacron abreve aogonek cacute cdotaccent ccaron dcaron dslash emacron eogonek ecaron omacron obreve ohungarumlaut oe c_k
 0 {} -184 {} 0 {} -162 {}

StartChar: exclam
Encoding: 33 33 2
Width: 567
Flags: MW
HStem: -29 245<249.5 316.5> 1292 20G<240.5 315.5>
VStem: 153 256<1111 1238.5 1111 1242>
LayerCount: 2
Fore
SplineSet
279 1312 m 0
 352 1312 409 1278 409 1199 c 0
 409 1023 344 647 317 466 c 0
 314 447 312 356 283 356 c 0
 249 356 251 427 248 450 c 0
 223 644 153 1009 153 1201 c 0
 153 1283 202 1312 279 1312 c 0
162 92 m 0
 162 159 215 216 283 216 c 0
 351 216 407 160 407 92 c 0
 407 24 350 -29 283 -29 c 0
 216 -29 162 25 162 92 c 0
EndSplineSet
EndChar

StartChar: quotedbl
Encoding: 34 34 3
Width: 748
Flags: MW
HStem: 1282 20G<183 247 500 564>
VStem: 113 204<1169.5 1232> 430 204<1184 1232 1184 1232>
LayerCount: 2
Fore
SplineSet
519 753 m 1
 486 829 430 1137 430 1200 c 0
 430 1264 468 1302 532 1302 c 0
 596 1302 634 1264 634 1200 c 0
 634 1168 582 751 519 753 c 1
203 753 m 1
 171 824 113 1139 113 1200 c 0
 113 1264 151 1302 215 1302 c 0
 279 1302 317 1264 317 1200 c 0
 317 1107 257 752 203 753 c 1
EndSplineSet
EndChar

StartChar: numbersign
Encoding: 35 35 4
Width: 1136
Flags: MW
HStem: -239 21G<149 196 531 578.5> 1342 20G<560 604.5 913 974>
LayerCount: 2
Fore
SplineSet
643 390 m 1
 370 390 l 1
 325 210 292 29 252 -151 c 0
 242 -198 223 -239 169 -239 c 0
 129 -239 104 -184 104 -150 c 0
 104 -108 232 320 252 390 c 1
 233 390 205 387 176 387 c 0
 123 387 67 396 67 447 c 0
 67 495 133 504 195 504 c 0
 230 504 265 501 283 501 c 1
 331 674 l 1
 310 674 275 670 240 670 c 0
 182 670 122 680 122 731 c 0
 122 779 194 789 260 789 c 0
 303 789 343 785 362 785 c 1
 412 961 470 1134 490 1316 c 0
 494 1352 546 1362 574 1362 c 0
 635 1362 641 1332 641 1280 c 0
 641 1249 495 840 478 785 c 1
 747 785 l 1
 786 946 830 1111 855 1275 c 0
 864 1333 880 1362 946 1362 c 0
 1002 1362 1023 1333 1023 1280 c 0
 1023 1241 887 843 869 785 c 1
 886 785 916 787 949 787 c 0
 1009 787 1075 779 1075 732 c 0
 1075 680 1009 669 944 669 c 0
 901 669 858 674 836 674 c 1
 788 501 l 1
 806 501 841 504 878 504 c 0
 945 504 1021 494 1021 441 c 0
 1021 394 953 384 884 384 c 0
 833 384 781 390 760 390 c 1
 715 211 682 31 643 -149 c 0
 632 -198 606 -239 551 -239 c 0
 511 -239 486 -184 486 -150 c 0
 486 -110 623 322 643 390 c 1
719 674 m 1
 445 674 l 1
 398 501 l 1
 674 501 l 1
 719 674 l 1
EndSplineSet
EndChar

StartChar: dollar
Encoding: 36 36 5
Width: 1072
Flags: MW
HStem: -228 21G<474 495> 1402 20G<487 521>
VStem: 95 441 449 482<200 387 200 502 200 502> 757 174<200 270>
LayerCount: 2
Fore
SplineSet
439 -141 m 1xe8
 441 -26 l 1
 304 -18 169 21 73 80 c 1
 94 366 l 1
 105 369 112 371 115 371 c 0
 140 371 154 317 159 282 c 0
 175 159 304 72 449 45 c 1
 449 502 l 1xd0
 310 581 l 2
 163 664 95 763 95 886 c 0xe8
 95 1096 265 1187 460 1200 c 1
 459 1232 459 1261 459 1285 c 0
 459 1385 467 1422 507 1422 c 0
 535 1422 552 1400 552 1278 c 0
 552 1251 552 1226 551 1201 c 1
 651 1196 751 1173 831 1138 c 1
 861 881 l 1
 849 878 840 876 834 876 c 0
 808 876 784 928 777 961 c 0
 755 1066 657 1120 550 1136 c 1
 547 1053 544 943 541 732 c 1
 695 641 l 2
 884 529 931 455 931 319 c 0xd0
 931 81 747 -16 536 -27 c 1
 536 -125 l 2
 536 -205 506 -228 484 -228 c 0
 464 -228 440 -197 439 -141 c 1xe8
538 452 m 1
 537 335 536 197 536 36 c 1
 656 36 757 95 757 222 c 0xe8
 757 318 693 364 538 452 c 1
454 785 m 1
 454 1138 l 1
 349 1130 252 1075 252 990 c 0
 252 936 284 887 359 842 c 2
 454 785 l 1
EndSplineSet
EndChar

StartChar: percent
Encoding: 37 37 6
Width: 1772
Flags: MW
HStem: -138 21G<475 491> -22 21G<1255 1354> 1307 20G<328 518.5> 1376 20G<1239 1264.5>
LayerCount: 2
Fore
SplineSet
1502 337 m 0
 1502 541 1449 677 1338 677 c 0
 1238 677 1188 555 1188 363 c 0
 1188 172 1241 41 1354 41 c 0
 1454 41 1502 158 1502 337 c 0
1035 358 m 0
 1035 563 1153 735 1342 735 c 0
 1533 735 1655 557 1655 349 c 0
 1655 149 1540 -18 1354 -22 c 1
 1156 -22 1035 152 1035 358 c 0
491 -138 m 1
 459 -138 430 -125 410 -108 c 1
 436 -60 463 -14 491 34 c 1
 1020 1017 l 1
 1089 1136 1142 1315 1239 1396 c 1
 1290 1396 1312 1381 1332 1368 c 1
 1255 1238 l 1
 1127 1014 863 581 611 18 c 1
 575 -54 531 -98 491 -138 c 1
115 950 m 0
 115 1155 233 1327 423 1327 c 0
 614 1327 736 1149 736 941 c 0
 736 742 621 574 435 571 c 1
 237 571 115 745 115 950 c 0
583 929 m 0
 583 1133 530 1270 419 1270 c 0
 318 1270 268 1148 268 956 c 0
 268 765 321 633 434 633 c 0
 535 633 583 750 583 929 c 0
EndSplineSet
EndChar

StartChar: ampersand
Encoding: 38 38 7
Width: 1468
Flags: MW
HStem: -28 21G<1130.5 1236> -26 191
VStem: 73 193<345.5 410.5> 264 163<1069.5 1143.5 1069.5 1191.5>
LayerCount: 2
Fore
SplineSet
984 886 m 1x50
 1393 886 l 1
 1394 868 1394 851 1394 835 c 1
 1370 815 1284 813 1261 776 c 0
 1177 643 1141 488 1020 296 c 1
 1081 219 1135 165 1197 165 c 0x60
 1252 165 1312 208 1387 318 c 1
 1446 275 l 1
 1395 62 1292 -28 1180 -28 c 0xa0
 1081 -28 974 40 896 152 c 1
 765 25 648 -26 488 -26 c 0
 225 -26 73 136 73 319 c 0x60
 73 502 185 610 411 758 c 1
 310 870 264 960 264 1042 c 0
 264 1341 892 1466 892 1085 c 0
 892 977 788 911 602 799 c 1
 707 681 838 509 969 357 c 1
 1026 457 1071 571 1098 692 c 1
 1106 712 1110 728 1110 741 c 0
 1110 784 1043 813 984 832 c 1
 983 840 982 848 982 858 c 0
 982 866 983 875 984 886 c 1x50
266 435 m 0
 266 256 408 102 611 102 c 0
 697 102 761 132 845 209 c 1
 717 374 559 576 457 702 c 1
 326 612 266 531 266 435 c 0
427 1104 m 0x50
 427 1035 475 951 558 849 c 1
 678 918 749 984 749 1071 c 0
 749 1151 685 1250 597 1250 c 0
 499 1250 427 1183 427 1104 c 0x50
EndSplineSet
EndChar

StartChar: quotesingle
Encoding: 39 39 8
Width: 370
Flags: MW
HStem: 1282 20G<153 217>
VStem: 83 203<1169 1232>
LayerCount: 2
Fore
SplineSet
172 753 m 1
 140 828 83 1138 83 1200 c 0
 83 1264 121 1302 185 1302 c 0
 249 1302 286 1264 286 1200 c 0
 286 1106 228 752 172 753 c 1
EndSplineSet
EndChar

StartChar: parenleft
Encoding: 40 40 9
Width: 687
Flags: MW
HStem: -268 21G<613 613> 1389 20G<613 613>
LayerCount: 2
Fore
SplineSet
666 -208 m 1
 613 -268 l 1
 286 -119 147 229 147 571 c 0
 147 913 285 1261 613 1409 c 1
 666 1350 l 1
 389 1187 279 878 279 571 c 0
 279 262 389 -41 666 -208 c 1
EndSplineSet
EndChar

StartChar: parenright
Encoding: 41 41 10
Width: 687
Flags: MW
HStem: -268 21G 1389 20G
LayerCount: 2
Fore
SplineSet
21 1350 m 1
 31 1376 53 1393 74 1409 c 1
 401 1261 540 913 540 571 c 0
 540 229 401 -119 74 -268 c 1
 53 -252 31 -234 21 -208 c 1
 295 -35 408 258 408 571 c 0
 408 881 296 1180 21 1350 c 1
EndSplineSet
EndChar

StartChar: asterisk
Encoding: 42 42 11
Width: 1218
Flags: MW
HStem: 295 21G<329 371.5 846 888> 1289 20G<585.5 634>
VStem: 515 185<1162 1246 1158 1251>
LayerCount: 2
Fore
SplineSet
700 1221 m 0
 700 1095 666 946 650 820 c 1
 714 853 981 1009 1040 1009 c 0
 1092 1009 1131 961 1131 911 c 0
 1131 869 1099 833 1058 824 c 2
 678 741 l 1
 728 685 960 467 960 389 c 0
 960 339 913 295 863 295 c 0
 829 295 797 316 782 346 c 2
 609 695 l 1
 435 346 l 2
 420 316 389 295 354 295 c 0
 304 295 257 339 257 389 c 0
 257 467 489 685 539 741 c 1
 159 824 l 2
 118 833 86 869 86 911 c 0
 86 961 125 1009 177 1009 c 0
 236 1009 503 853 567 820 c 1
 550 948 515 1098 515 1226 c 0
 515 1276 562 1309 609 1309 c 0
 659 1309 700 1271 700 1221 c 0
EndSplineSet
EndChar

StartChar: plus
Encoding: 43 43 12
Width: 1099
Flags: MW
HStem: 129 21G<537 558> 995 20G<539.5 560.5>
LayerCount: 2
Fore
SplineSet
107 618 m 1
 151 635 198 639 291 639 c 2
 482 639 l 1
 482 828 l 2
 482 906 483 963 490 1012 c 1
 508 1014 529 1015 550 1015 c 0
 571 1015 590 1015 608 1012 c 1
 615 964 617 906 617 830 c 2
 617 639 l 1
 806 639 l 2
 883 639 941 636 990 629 c 1
 992 611 993 591 993 570 c 0
 993 549 992 530 990 512 c 1
 941 506 884 505 806 505 c 2
 617 505 l 1
 617 315 l 2
 617 238 614 181 607 132 c 1
 588 130 568 129 548 129 c 0
 526 129 507 130 489 132 c 1
 483 181 482 237 482 315 c 2
 482 505 l 1
 159 505 l 1
 109 535 107 568 107 618 c 1
EndSplineSet
EndChar

StartChar: comma
Encoding: 44 44 13
Width: 563
Flags: MW
HStem: -268 21G 291 20G<215.5 311>
VStem: 118 333<-58 213>
LayerCount: 2
Fore
SplineSet
116 -268 m 1
 107 -253 98 -236 98 -208 c 1
 202 -174 318 -153 318 -23 c 1
 299 22 269 47 216 56 c 0
 153 66 118 110 118 174 c 0
 118 252 173 311 258 311 c 0
 364 311 451 217 451 45 c 0
 451 -161 294 -265 116 -268 c 1
EndSplineSet
EndChar

StartChar: hyphen
Encoding: 45 45 14
Width: 772
Flags: MW
HStem: 402 21G<89 691 89 89> 510 20G<89 691 691 691>
LayerCount: 2
Fore
SplineSet
691 402 m 1
 89 402 l 1
 89 530 l 1
 691 530 l 1
 691 402 l 1
EndSplineSet
EndChar

StartChar: period
Encoding: 46 46 15
Width: 556
Flags: MW
HStem: -20 271<239 315.5>
VStem: 140 275<80 152.5 80 152.5>
LayerCount: 2
Fore
SplineSet
277 251 m 0
 354 251 415 189 415 116 c 0
 415 44 354 -20 277 -20 c 0
 201 -20 140 42 140 116 c 0
 140 189 201 251 277 251 c 0
EndSplineSet
EndChar

StartChar: slash
Encoding: 47 47 16
Width: 673
Flags: MW
HStem: -70 21G<45 73 45 45> 1382 20G<575 589.5>
LayerCount: 2
Fore
SplineSet
655 1378 m 1
 539 965 326 507 183 89 c 0
 165 37 144 -15 121 -65 c 1
 105 -69 89 -70 73 -70 c 2
 45 -70 l 1
 41 -54 40 -37 40 -21 c 0
 40 24 53 67 69 109 c 2
 438 1089 l 2
 465 1160 514 1370 575 1402 c 1
 604 1402 631 1395 655 1378 c 1
EndSplineSet
EndChar

StartChar: zero
Encoding: 48 48 17
Width: 1127
Flags: MW
HStem: -17 21G<404.5 725.5> 882 20G<402.5 722.5>
VStem: 84 205<377.5 558> 839 205<327 517>
LayerCount: 2
Fore
SplineSet
557 846 m 0
 373 846 289 666 289 479 c 0
 289 276 389 64 572 64 c 0
 759 64 839 232 839 413 c 0
 839 621 732 846 557 846 c 0
566 -17 m 0
 243 -17 84 214 84 444 c 0
 84 672 243 902 562 902 c 0
 883 902 1044 671 1044 441 c 0
 1044 213 885 -17 566 -17 c 0
EndSplineSet
EndChar

StartChar: one
Encoding: 49 49 18
Width: 684
Flags: MW
HStem: 0 21G<77 665 77 77> 826 20G<77 443 443 450.5>
VStem: 272 193<130 710 710 761>
LayerCount: 2
Fore
SplineSet
465 833 m 2
 465 129 l 2
 465 13 670 84 670 19 c 0
 670 16 668 10 665 0 c 1
 77 0 l 1
 74 9 73 14 73 17 c 0xe0
 73 76 272 23 272 130 c 2
 272 710 l 2
 272 812 72 774 72 828 c 0
 72 832 74 838 77 846 c 1
 443 846 l 2
 458 846 465 842 465 833 c 2
EndSplineSet
EndChar

StartChar: two
Encoding: 50 50 19
Width: 766
Flags: MW
HStem: 0 21G<76 654 76 76> 882 20G<323 441>
VStem: 446 212<563 707>
LayerCount: 2
Fore
SplineSet
230 84 m 1
 520 97 l 2
 651 103 595 259 657 259 c 1
 671 256 l 1
 654 0 l 1
 76 0 l 1
 65 38 l 1
 192 172 446 469 446 657 c 0
 446 757 393 827 289 827 c 0
 206 827 162 785 91 759 c 1
 78 779 l 1
 80 791 l 1
 127 865 282 902 364 902 c 0
 518 902 658 814 658 647 c 0
 658 463 365 197 230 84 c 1
EndSplineSet
EndChar

StartChar: three
Encoding: 51 51 20
Width: 890
Flags: MW
HStem: -334 305<92.5 485> 881 20G<398 528.5>
VStem: 16 175<-216 -188 -228.5 -107.5> 578 244 622 200<-59.5 100>
LayerCount: 2
Fore
SplineSet
353 -278 m 0xf0
 524 -278 622 -140 622 21 c 0xe8
 622 179 550 324 373 324 c 0
 339 324 306 319 273 311 c 1
 228 363 l 1
 361 407 578 509 578 674 c 0
 578 764 524 807 436 807 c 0
 317 807 248 745 145 706 c 1
 136 711 128 722 128 733 c 1
 131 749 l 1
 207 847 337 901 459 901 c 0
 598 901 732 833 732 678 c 0
 732 511 582 400 427 387 c 1
 664 387 822 275 822 24 c 0
 822 -222 594 -334 376 -334 c 0
 253 -334 16 -297 16 -135 c 0
 16 -80 65 -29 120 -29 c 0
 166 -29 211 -72 211 -119 c 0
 211 -149 191 -174 191 -202 c 0
 191 -255 314 -278 353 -278 c 0xf0
EndSplineSet
EndChar

StartChar: four
Encoding: 52 52 21
Width: 921
Flags: MW
HStem: -283 21G<325 863 325 325> 0 21G<29 500 29 29 694 694 694 841> 847 20G<640 693>
VStem: 500 367<-269.5 0 -269.5 0 -269.5 713>
LayerCount: 2
Fore
SplineSet
500 -168 m 2
 500 0 l 1
 29 0 l 1
 15 47 l 1
 489 850 l 1
 527 858 587 867 693 867 c 1
 693 113 l 1xf0
 826 113 l 2
 849 113 856 82 856 53 c 0
 856 26 849 0 841 0 c 2
 694 0 l 1
 694 -173 l 2
 694 -257 867 -223 867 -267 c 0
 867 -272 866 -278 863 -283 c 1
 325 -283 l 1
 322 -275 321 -270 321 -267 c 0
 321 -215 500 -255 500 -168 c 2
500 113 m 1
 500 713 l 1
 126 113 l 1
 500 113 l 1
EndSplineSet
EndChar

StartChar: five
Encoding: 53 53 22
Width: 910
Flags: MW
HStem: -360 305<136.5 535> 848 20G<101 758 758 758>
VStem: 60 175<-242 -214 -254.5 -133.5> 666 200<-52 110>
LayerCount: 2
Fore
SplineSet
404 303 m 0
 286 303 210 227 127 220 c 1
 116 221 101 230 101 243 c 2
 101 868 l 1
 758 868 l 1
 722 733 l 1
 177 733 l 1
 177 324 l 1
 262 376 360 402 460 402 c 0
 697 402 866 277 866 30 c 0
 866 -218 650 -360 420 -360 c 0
 297 -360 60 -323 60 -161 c 0
 60 -106 109 -55 164 -55 c 0
 210 -55 255 -98 255 -145 c 0
 255 -175 235 -200 235 -228 c 0
 235 -281 358 -304 397 -304 c 0
 574 -304 666 -131 666 27 c 0
 666 193 576 303 404 303 c 0
EndSplineSet
EndChar

StartChar: six
Encoding: 54 54 23
Width: 994
Flags: MW
HStem: -17 21G<362.5 625.5> 1231 20G<683 699.5>
VStem: 83 204<322.5 492 322.5 617.5> 744 200<282 505.5>
LayerCount: 2
Fore
SplineSet
652 1247 m 1
 663 1250 677 1251 689 1251 c 0
 710 1251 716 1246 716 1223 c 0
 716 1211 715 1204 696 1197 c 0
 547 1138 373 952 320 731 c 1
 396 767 474 783 547 783 c 0
 771 783 944 642 944 389 c 0
 944 147 735 -17 516 -17 c 0
 209 -17 83 195 83 447 c 0
 83 788 315 1199 652 1247 c 1
744 396 m 0
 744 615 644 717 495 717 c 0
 438 717 375 699 311 662 c 1
 295 580 287 525 287 459 c 0
 287 186 394 52 535 52 c 0
 647 52 744 168 744 396 c 0
EndSplineSet
EndChar

StartChar: seven
Encoding: 55 55 24
Width: 856
Flags: MW
HStem: -334 21G<247 457 247 247> 517 350<84 110.5>
LayerCount: 2
Fore
SplineSet
457 -334 m 1
 247 -334 l 1
 341 -1 499 477 688 763 c 1
 256 735 l 2
 77 723 150 517 71 517 c 0
 65 517 56 520 51 521 c 1
 74 856 l 1
 84 867 l 1
 817 867 l 1
 832 815 l 1
 656 459 544 53 457 -334 c 1
EndSplineSet
EndChar

StartChar: eight
Encoding: 56 56 25
Width: 1013
Flags: MW
HStem: -28 21G<365 662.5> 1187 20G<393 636>
VStem: 137 178<943 1017> 735 200<223.5 330.5>
LayerCount: 2
Fore
SplineSet
82 275 m 0
 82 428 209 529 349 623 c 1
 236 706 137 803 137 943 c 0
 137 1091 270 1207 516 1207 c 0
 756 1207 841 1070 841 972 c 0
 841 838 755 759 642 673 c 1
 790 580 935 472 935 264 c 0
 935 124 836 -28 489 -28 c 0
 241 -28 82 107 82 275 c 0
504 41 m 0
 683 41 735 170 735 277 c 0
 735 384 621 457 494 539 c 2
 474 552 l 1
 335 464 214 383 214 277 c 0
 214 133 313 41 504 41 c 0
315 997 m 0
 315 889 410 817 526 746 c 1
 641 821 713 881 713 978 c 0
 713 1062 674 1144 516 1144 c 0
 387 1144 315 1089 315 997 c 0
EndSplineSet
EndChar

StartChar: nine
Encoding: 57 57 26
Width: 1019
Flags: MW
HStem: -367 21G<332.5 349> 881 20G<406.5 669.5>
VStem: 88 200<378.5 602 378.5 616> 745 204<392 561.5>
LayerCount: 2
Fore
SplineSet
380 -363 m 1
 369 -366 355 -367 343 -367 c 0
 322 -367 316 -362 316 -339 c 0
 316 -327 317 -321 336 -313 c 0
 485 -255 659 -68 712 153 c 1
 636 117 558 101 485 101 c 0
 261 101 88 242 88 495 c 0
 88 737 297 901 516 901 c 0
 823 901 949 689 949 437 c 0
 949 96 717 -315 380 -363 c 1
288 488 m 0
 288 269 388 167 537 167 c 0
 594 167 657 185 721 222 c 1
 737 304 745 359 745 425 c 0
 745 698 638 832 497 832 c 0
 385 832 288 716 288 488 c 0
EndSplineSet
EndChar

StartChar: colon
Encoding: 58 58 27
Width: 590
Flags: MW
HStem: -20 271<256 332.5> 768 271<256 332.5>
VStem: 157 276<80 152.5 80 152.5 868 940>
LayerCount: 2
Fore
SplineSet
294 251 m 0
 371 251 433 189 433 116 c 0
 433 44 371 -20 294 -20 c 0
 218 -20 157 42 157 116 c 0
 157 189 218 251 294 251 c 0
294 1039 m 0
 371 1039 433 976 433 904 c 0
 433 832 371 768 294 768 c 0
 218 768 157 830 157 904 c 0
 157 976 218 1039 294 1039 c 0
EndSplineSet
EndChar

StartChar: semicolon
Encoding: 59 59 28
Width: 594
Flags: MW
HStem: -268 21G 768 271<256 332.5>
VStem: 157 276<868 940 868 940> 157 311
LayerCount: 2
Fore
SplineSet
294 1039 m 0xe0
 371 1039 433 976 433 904 c 0
 433 832 371 768 294 768 c 0
 218 768 157 830 157 904 c 0
 157 976 218 1039 294 1039 c 0xe0
133 -268 m 1
 124 -253 116 -236 116 -208 c 1
 220 -174 335 -153 335 -23 c 1
 316 22 286 47 233 56 c 0
 171 66 135 110 135 174 c 0
 135 252 190 311 276 311 c 0
 381 311 468 217 468 45 c 0xd0
 468 -163 312 -264 133 -268 c 1
EndSplineSet
EndChar

StartChar: less
Encoding: 60 60 29
Width: 626
Flags: MW
HStem: 18 21G<461 493.5> 1048 20G<469 485.5>
LayerCount: 2
Fore
SplineSet
479 18 m 0
 443 18 424 29 403 59 c 2
 64 553 l 1
 151 668 361 996 469 1068 c 1
 502 1068 542 1047 542 1009 c 1
 472 855 302 688 195 553 c 1
 246 482 524 144 524 69 c 0
 524 42 508 18 479 18 c 0
EndSplineSet
EndChar

StartChar: equal
Encoding: 61 61 30
Width: 845
Flags: MW
HStem: 395 334<263 266 266 578>
LayerCount: 2
Fore
SplineSet
578 729 m 2
 614 729 713 735 713 679 c 0
 713 623 614 637 578 637 c 2
 266 637 l 2
 227 637 131 625 131 684 c 0
 131 738 228 729 263 729 c 2
 578 729 l 2
578 487 m 2
 614 487 713 493 713 437 c 0
 713 381 614 395 578 395 c 2
 266 395 l 2
 227 395 131 383 131 442 c 0
 131 496 228 487 263 487 c 2
 578 487 l 2
EndSplineSet
EndChar

StartChar: greater
Encoding: 62 62 31
Width: 626
Flags: MW
HStem: 18 21G<132.5 165> 1048 20G<140.5 157>
LayerCount: 2
Fore
SplineSet
147 18 m 0
 118 18 102 42 102 69 c 0
 102 145 379 480 431 553 c 1
 324 688 154 855 84 1009 c 1
 84 1047 124 1068 157 1068 c 1
 265 996 475 668 562 553 c 1
 223 59 l 2
 202 29 183 18 147 18 c 0
EndSplineSet
EndChar

StartChar: question
Encoding: 63 63 32
Width: 806
Flags: MW
HStem: -13 249<270.5 337.5> 1096 233<122 421>
VStem: 181 249<78 144.5> 225 505<539 1065.5>
LayerCount: 2
Fore
SplineSet
304 236 m 0xe0
 372 236 430 179 430 111 c 0
 430 43 371 -13 304 -13 c 0
 237 -13 181 45 181 111 c 0
 181 178 236 236 304 236 c 0xe0
338 358 m 1
 257 358 l 1
 250 431 225 502 225 576 c 0
 225 690 593 756 593 984 c 0
 593 1110 476 1218 352 1218 c 0
 263 1218 232 1096 144 1096 c 0
 100 1096 68 1138 68 1179 c 0
 68 1294 219 1329 324 1329 c 0
 518 1329 730 1161 730 970 c 0xd0
 730 613 338 649 338 397 c 2
 338 358 l 1
EndSplineSet
EndChar

StartChar: at
Encoding: 64 64 33
Width: 1697
Flags: MW
HStem: -112 21G<526 747.5> -26 21G<598.5 801.5> 1018 310<815.5 984>
VStem: 64 213<297 650 297 697> 1439 198<617.5 829>
LayerCount: 2
Fore
SplineSet
947 1328 m 0
 1325 1328 1637 1112 1637 710 c 0
 1637 487 1486 131 1223 131 c 0
 1113 131 1050 224 1028 322 c 1
 959 236 852 183 741 183 c 0
 549 183 455 332 455 510 c 0
 455 781 653 1057 942 1057 c 0
 1162 1057 1217 902 1217 711 c 0
 1217 574 1186 439 1186 302 c 0
 1186 258 1189 181 1251 181 c 0
 1393 181 1439 562 1439 673 c 0
 1439 985 1284 1275 938 1275 c 0
 506 1275 277 843 277 457 c 0
 277 137 437 -26 760 -26 c 0
 843 -26 925 -13 1005 10 c 1
 998 -63 l 1
 901 -94 799 -112 696 -112 c 0
 356 -112 64 91 64 453 c 0
 64 941 463 1328 947 1328 c 0
1059 739 m 0
 1059 829 1047 1018 921 1018 c 0
 710 1018 617 689 617 519 c 0
 617 412 644 251 781 251 c 0
 869 251 960 302 1025 358 c 1
 1038 484 1059 612 1059 739 c 0
EndSplineSet
EndChar

StartChar: A
Encoding: 65 65 34
Width: 1366
Flags: MW
HStem: 0 21G<-4 468 -4 -4 799 799 799 1381> 1304 20G<595 625.5>
LayerCount: 2
Fore
SplineSet
427 620 m 1
 807 620 l 1
 610 1112 l 1
 427 620 l 1
965 180 m 0
 965 227 866 472 844 532 c 1
 393 532 l 1
 373 477 277 253 277 175 c 0
 277 96 382 75 449 61 c 2
 468 57 l 1
 468 0 l 1
 -4 0 l 1
 -4 52 l 1
 51 97 115 85 156 163 c 0
 174 198 187 236 202 273 c 2
 576 1231 l 2
 586 1258 577 1299 595 1324 c 1
 656 1324 701 1315 751 1277 c 1
 1210 176 l 2
 1247 86 1311 90 1383 52 c 1
 1381 0 l 1
 799 0 l 1
 797 52 l 1
 857 70 965 101 965 180 c 0
EndSplineSet
EndChar

StartChar: B
Encoding: 66 66 35
Width: 1380
Flags: MW
HStem: 0 21G<65 785 65 65> 1282 20G<65 633 633 749.5>
VStem: 279 215<239.5 274 274 542 730 1023 1023 1129.5> 1042 184 1042 250<256.5 461.5 215 481.5>
LayerCount: 2
Fore
SplineSet
279 221 m 2xe8
 279 1023 l 2
 279 1236 218 1188 63 1251 c 1
 65 1302 l 1
 633 1302 l 2
 866 1302 1226 1292 1226 975 c 0xf0
 1226 771 1037 698 865 669 c 1
 1053 660 1292 574 1292 349 c 0
 1292 81 1004 0 785 0 c 2
 65 0 l 1
 63 52 l 1
 158 80 279 95 279 221 c 2xe8
519 630 m 1
 494 608 494 572 494 542 c 2
 494 274 l 2
 494 205 513 87 604 87 c 2
 766 87 l 2
 917 87 1042 177 1042 336 c 0
 1042 627 731 630 519 630 c 1
494 1227 m 1
 494 730 l 1
 513 713 548 700 574 700 c 2
 707 700 l 2
 875 700 1027 749 1027 943 c 0
 1027 1224 749 1226 540 1227 c 1
 494 1227 l 1
EndSplineSet
EndChar

StartChar: C
Encoding: 67 67 36
Width: 1438
Flags: MW
HStem: -26 21G<609.5 886> 1307 20G<633.5 930.5>
VStem: 111 234<497.5 831>
LayerCount: 2
Fore
SplineSet
1279 1245 m 1
 1320 943 l 1
 1273 941 l 1
 1234 980 1197 1075 1155 1117 c 0
 1063 1209 951 1250 835 1250 c 0
 580 1250 345 1048 345 680 c 0
 345 315 554 81 877 81 c 0
 1055 81 1203 155 1282 304 c 1
 1331 297 l 1
 1322 108 l 1
 1175 26 967 -26 805 -26 c 0
 414 -26 111 225 111 640 c 0
 111 1022 404 1327 863 1327 c 0
 998 1327 1135 1301 1279 1245 c 1
EndSplineSet
EndChar

StartChar: D
Encoding: 68 68 37
Width: 1597
Flags: MW
HStem: 0 21G<60 779 60 60> 1282 20G<60 652 652 890>
VStem: 282 215<219 271 271 1010 1010 1031.5> 1264 238<489.5 781.5>
LayerCount: 2
Fore
SplineSet
665 1225 m 2
 497 1225 l 1
 497 271 l 2
 497 166 530 85 645 80 c 0
 682 78 723 77 760 77 c 0
 1106 77 1264 352 1264 609 c 0
 1264 954 1084 1225 665 1225 c 2
282 219 m 2
 282 1010 l 2
 282 1053 278 1094 272 1131 c 0
 257 1212 131 1226 58 1251 c 1
 60 1302 l 1
 652 1302 l 2
 1128 1302 1502 1130 1502 658 c 0
 1502 321 1257 0 779 0 c 2
 60 0 l 1
 58 52 l 1
 155 81 282 81 282 219 c 2
EndSplineSet
EndChar

StartChar: E
Encoding: 69 69 38
Width: 1360
Flags: MW
HStem: -12 21G<1181.5 1206.5> 0 21G<60 1086 60 60> 1292 20G<1170 1194>
VStem: 271 215<267 304 304 641 717 1024 1024 1123>
LayerCount: 2
Fore
SplineSet
1236 342 m 1x70
 1299 342 l 1
 1233 -9 l 1
 1222 -11 1212 -12 1201 -12 c 0xb0
 1162 -12 1125 0 1086 0 c 2
 60 0 l 1
 58 49 l 1
 202 128 271 26 271 267 c 2
 271 1024 l 2
 271 1225 213 1190 58 1251 c 1
 60 1302 l 1
 1080 1302 l 2
 1116 1302 1152 1312 1188 1312 c 0
 1200 1312 1213 1311 1225 1308 c 1
 1225 997 l 1
 1173 995 l 1
 1110 1057 1119 1175 1023 1207 c 0
 938 1235 788 1235 692 1235 c 0
 619 1235 556 1234 490 1226 c 1
 487 1192 486 1157 486 1123 c 2
 486 717 l 1
 774 717 l 2
 932 717 949 748 1012 864 c 1
 1027 891 l 1
 1084 891 l 1
 1084 462 l 1
 1027 459 l 1
 989 561 932 641 813 641 c 2
 486 641 l 1
 486 304 l 2
 486 88 563 70 714 70 c 2
 812 70 l 2
 942 70 1100 84 1165 215 c 0
 1187 258 1202 306 1236 342 c 1x70
EndSplineSet
EndChar

StartChar: F
Encoding: 70 70 39
Width: 1274
Flags: MW
HStem: 0 21G<66 740 66 66> 1285 20G<1059 1227 1227 1227>
VStem: 281 215<261 657 733 1021 1021 1126>
LayerCount: 2
Fore
SplineSet
1075 901 m 1
 1075 466 l 1
 1056 464 1037 463 1018 463 c 1
 930 645 907 657 745 657 c 2
 496 657 l 1
 496 258 l 2
 496 36 588 106 740 52 c 1
 740 0 l 1
 66 0 l 1
 64 52 l 1
 206 116 281 40 281 261 c 2
 281 1021 l 2
 281 1231 218 1193 58 1251 c 1
 58 1302 l 1
 391 1302 725 1305 1059 1305 c 2
 1227 1305 l 1
 1227 995 l 1
 1182 993 l 1
 1115 1067 1096 1205 982 1222 c 0
 912 1232 840 1232 769 1232 c 2
 577 1232 l 2
 509 1232 496 1229 496 1160 c 2
 496 733 l 1
 576 733 643 729 709 729 c 0
 776 729 842 733 903 749 c 0
 972 767 984 850 1016 903 c 1
 1075 901 l 1
EndSplineSet
EndChar

StartChar: G
Encoding: 71 71 40
Width: 1558
Flags: MW
HStem: -26 21G<621 944.5> 1307 20G<671.5 965>
VStem: 91 239<498.5 839 498.5 846.5> 1145 220<329 410>
LayerCount: 2
Fore
SplineSet
1365 463 m 2
 1365 95 l 1
 1231 25 1040 -26 849 -26 c 0
 393 -26 91 237 91 638 c 0
 91 1055 457 1327 886 1327 c 0
 1044 1327 1161 1305 1325 1247 c 1
 1355 945 l 1
 1334 943 1314 942 1297 942 c 1
 1260 974 1231 1062 1199 1100 c 0
 1106 1211 987 1250 860 1250 c 0
 551 1250 330 1003 330 675 c 0
 330 322 547 62 866 62 c 0
 973 62 1054 78 1133 127 c 1
 1141 195 1145 277 1145 381 c 0
 1145 439 1137 498 1117 553 c 0
 1093 621 983 609 929 632 c 1
 929 649 931 684 931 684 c 1
 1531 684 l 1
 1531 684 1533 648 1533 632 c 1
 1451 601 1365 587 1365 463 c 2
EndSplineSet
EndChar

StartChar: H
Encoding: 72 72 41
Width: 1695
Flags: MW
HStem: 0 21G<66 710 66 66 1003 1003 1003 1632> 1282 20G<66 709 709 709 1003 1630 1630 1630>
VStem: 275 215<265 625 712 1037> 1204 215<252 267 267 625 625 625 712 1030>
LayerCount: 2
Fore
SplineSet
1204 625 m 1
 490 625 l 1
 490 255 l 2
 490 42 569 110 712 52 c 1
 710 0 l 1
 66 0 l 1
 65 17 63 35 63 52 c 1
 214 116 275 43 275 265 c 2
 275 1038 l 2
 275 1245 205 1188 64 1251 c 1
 66 1302 l 1
 709 1302 l 1
 711 1250 l 1
 570 1186 490 1253 490 1037 c 2
 490 712 l 1
 1204 712 l 1
 1204 1047 l 2
 1204 1241 1129 1188 1001 1251 c 1
 1003 1302 l 1
 1630 1302 l 1
 1632 1250 l 1
 1477 1195 1419 1233 1419 1030 c 2
 1419 267 l 2
 1419 55 1474 107 1632 52 c 1
 1632 0 l 1
 1003 0 l 1
 1001 52 l 1
 1125 119 1204 38 1204 252 c 2
 1204 625 l 1
EndSplineSet
EndChar

StartChar: I
Encoding: 73 73 42
Width: 766
Flags: MW
HStem: 0 21G<54 719 54 54> 1282 20G<52 715 715 715>
VStem: 276 215<278 1030 1030 1081>
LayerCount: 2
Fore
SplineSet
491 1081 m 2
 491 260 l 2
 491 46 568 108 721 53 c 1
 719 0 l 1
 54 0 l 1
 54 52 l 1
 201 119 276 20 276 278 c 2
 276 1030 l 2
 276 1284 173 1178 50 1251 c 1
 52 1302 l 1
 715 1302 l 1
 717 1250 l 1
 621 1217 491 1217 491 1081 c 2
EndSplineSet
EndChar

StartChar: J
Encoding: 74 74 43
Width: 726
Flags: MW
HStem: -333 211<6 281> 1282 20G<49 716 716 716>
VStem: 274 215<55.5 170 170 1035 1035 1044>
LayerCount: 2
Fore
SplineSet
49 1302 m 1
 716 1302 l 1
 716 1251 l 1
 574 1190 489 1260 489 1044 c 2
 489 170 l 2
 489 -59 420 -333 142 -333 c 0
 66 -333 -58 -304 -58 -207 c 0
 -58 -155 -19 -122 31 -122 c 0
 135 -122 117 -251 195 -251 c 0
 267 -251 274 -90 274 6 c 2
 274 1035 l 2
 274 1249 201 1195 46 1250 c 1
 49 1302 l 1
EndSplineSet
EndChar

StartChar: K
Encoding: 75 75 44
Width: 1568
Flags: MW
HStem: 0 21G<50 720 50 50 786 1470 786 786> 1282 20G<50 716 716 716 886 1430 1430 1430>
VStem: 46 442<15.5 124> 273 215<130 660 716 1166> 725 229<17.5 104> 725 349
LayerCount: 2
Fore
SplineSet
488 1166 m 2xd4
 488 716 l 1
 574 716 l 1
 1070 1178 l 1
 1073 1187 1074 1194 1074 1200 c 0xd4
 1074 1277 881 1228 881 1284 c 0
 881 1288 883 1293 886 1302 c 1
 1430 1302 l 1
 1434 1284 l 1
 1434 1265 1365 1247 1292 1231 c 0
 1224 1216 1178 1195 1150 1172 c 1
 742 784 l 1
 1230 130 l 1
 1270 86 1474 56 1474 18 c 0
 1474 11 1473 5 1470 0 c 1
 786 0 l 1
 781 11 780 14 780 17 c 0
 780 67 954 33 954 102 c 0
 954 106 950 117 937 134 c 1
 578 660 l 1
 488 660 l 1
 488 124 l 2
 488 9 725 83 725 19 c 0
 725 16 723 10 720 0 c 1
 50 0 l 1
 47 9 46 14 46 17 c 0xe8
 46 76 273 23 273 130 c 2
 273 1166 l 2
 273 1268 45 1230 45 1284 c 0
 45 1288 47 1293 50 1302 c 1
 716 1302 l 1
 719 1292 720 1286 720 1285 c 0
 720 1227 488 1271 488 1166 c 2xd4
EndSplineSet
EndChar

StartChar: L
Encoding: 76 76 45
Width: 1273
Flags: MW
HStem: -11 21G<1219 1219> 0 21G<47 1000 47 47> 1282 20G<48 724 724 724>
VStem: 276 216<240 312 312 1034 1034 1040>
LayerCount: 2
Fore
SplineSet
276 240 m 2x70
 276 1034 l 2
 276 1250 210 1199 46 1251 c 1
 48 1302 l 1
 724 1302 l 1
 724 1250 l 1
 571 1188 492 1263 492 1040 c 2
 492 312 l 2
 492 124 520 76 709 76 c 0
 753 76 798 74 842 74 c 0
 965 74 1082 91 1148 217 c 0
 1170 260 1188 308 1222 344 c 1
 1282 342 l 1
 1219 -11 l 1xb0
 1146 -5 1073 0 1000 0 c 2
 47 0 l 1
 45 54 l 1
 155 92 276 88 276 240 c 2x70
EndSplineSet
EndChar

StartChar: M
Encoding: 77 77 46
Width: 1934
Flags: MW
HStem: 0 21G<45 529 45 45 880 959 880 880 1284 1907 1284 1284> 1282 20G<146 535 535 535 1387 1799 1799 1799>
LayerCount: 2
Fore
SplineSet
1616 1082 m 1
 1688 271 l 2
 1693 216 1706 159 1744 117 c 1
 1764 59 1869 83 1909 52 c 1
 1907 0 l 1
 1284 0 l 1
 1282 52 l 1
 1366 80 1476 99 1476 211 c 2
 1476 224 l 1
 1414 1068 l 1
 1281 705 1073 368 959 0 c 1
 880 0 l 1
 764 357 544 678 405 1029 c 1
 382 766 340 495 340 232 c 0
 340 101 431 88 531 52 c 1
 529 0 l 1
 45 0 l 1
 43 52 l 1
 136 90 233 94 246 220 c 2
 322 968 l 2
 326 1009 329 1054 329 1096 c 0
 329 1219 224 1209 144 1251 c 1
 146 1302 l 1
 535 1302 l 1
 621 935 846 615 982 267 c 1
 1086 486 1385 1077 1387 1302 c 1
 1799 1302 l 1
 1801 1250 l 1
 1783 1244 l 2
 1700 1216 1616 1188 1616 1082 c 1
EndSplineSet
EndChar

StartChar: N
Encoding: 78 78 47
Width: 1661
Flags: MW
HStem: -16 21G<1372.5 1390> 0 21G<48 612 48 48> 1282 20G<36 385 385 385 1097 1624 1624 1624>
LayerCount: 2
Fore
SplineSet
46 54 m 1x60
 157 85 278 92 291 239 c 1
 291 1091 l 1
 220 1208 146 1205 36 1250 c 1
 36 1302 l 1
 385 1302 l 1
 1326 329 l 1
 1326 958 l 2
 1326 1019 1319 1073 1299 1131 c 0
 1266 1230 1170 1211 1094 1249 c 1
 1094 1267 1095 1284 1097 1302 c 1
 1624 1302 l 1
 1624 1248 l 1
 1446 1167 1415 1184 1413 959 c 0
 1411 757 1408 555 1408 353 c 0
 1408 231 1428 112 1431 -9 c 1
 1415 -15 1398 -16 1382 -16 c 0xa0
 1363 -16 1343 -14 1325 -9 c 1
 1273 55 1219 118 1161 178 c 2
 371 1009 l 1
 371 307 l 2
 371 262 377 216 388 172 c 0
 415 65 539 92 615 53 c 1
 615 35 614 18 612 0 c 1
 48 0 l 1
 46 18 46 36 46 54 c 1x60
EndSplineSet
EndChar

StartChar: O
Encoding: 79 79 48
Width: 1580
Flags: MW
HStem: -26 21G<597.5 963.5> 1307 20G<620 979>
VStem: 100 233<530 866> 1246 233<444 771.5>
LayerCount: 2
Fore
SplineSet
333 720 m 0
 333 340 538 51 825 51 c 0
 1064 51 1246 248 1246 585 c 0
 1246 958 1048 1250 757 1250 c 0
 529 1250 333 1071 333 720 c 0
100 637 m 0
 100 1095 448 1327 792 1327 c 0
 1166 1327 1479 1063 1479 648 c 0
 1479 240 1155 -26 772 -26 c 0
 423 -26 100 224 100 637 c 0
EndSplineSet
EndChar

StartChar: P
Encoding: 80 80 49
Width: 1294
Flags: MW
HStem: 0 21G<65 715 65 65> 1282 20G<65 561 561 696>
VStem: 274 216<222 275 275 1031 1031 1133> 1008 233<803.5 1043>
LayerCount: 2
Fore
SplineSet
274 222 m 2
 274 1031 l 2
 274 1235 209 1189 63 1251 c 1
 65 1302 l 1
 561 1302 l 2
 831 1302 1241 1292 1241 939 c 0
 1241 668 1027 548 780 548 c 0
 747 548 572 569 572 614 c 0
 572 630 598 632 616 632 c 2
 631 632 l 2
 844 632 1008 670 1008 925 c 0
 1008 1161 785 1232 587 1232 c 0
 555 1232 522 1230 490 1227 c 1
 490 275 l 2
 490 33 553 117 717 52 c 1
 715 0 l 1
 65 0 l 1
 62 52 l 1
 158 80 274 96 274 222 c 2
EndSplineSet
EndChar

StartChar: Q
Encoding: 81 81 50
Width: 1580
Flags: MW
HStem: -314 21G<1318 1423.5> 1307 20G<603.5 979>
VStem: 100 234<521.5 851> 1246 233<473 770>
LayerCount: 2
Fore
SplineSet
334 729 m 0
 334 314 554 51 823 51 c 0
 1052 51 1246 233 1246 587 c 0
 1246 953 1048 1250 758 1250 c 0
 523 1250 334 1052 334 729 c 0
1578 -213 m 1
 1590 -285 l 1
 1539 -302 1461 -314 1386 -314 c 0
 1250 -314 1168 -293 1066 -244 c 1
 961 -195 732 -73 638 -11 c 1
 326 71 100 286 100 641 c 0
 100 1061 415 1327 792 1327 c 0
 1166 1327 1479 1063 1479 651 c 0
 1479 295 1229 51 912 -11 c 1
 1177 -138 1296 -188 1578 -213 c 1
EndSplineSet
EndChar

StartChar: R
Encoding: 82 82 51
Width: 1413
Flags: MW
HStem: -26 21G<1129.5 1298.5> 0 21G<74 707 74 74> 1283 20G<74 535 535 659>
VStem: 278 215<277 636 703 1035 1035 1133> 990 233<870 1092>
LayerCount: 2
Fore
SplineSet
1269 -26 m 0
 990 -26 831 344 699 542 c 0
 656 607 637 626 556 632 c 2
 493 636 l 1
 493 251 l 2
 493 36 578 114 709 52 c 1
 707 0 l 1
 74 0 l 1
 72 52 l 1
 204 124 278 22 278 277 c 2
 278 1035 l 2
 278 1231 212 1189 72 1251 c 1
 74 1303 l 1
 535 1303 l 2
 783 1303 1223 1302 1223 970 c 0
 1223 770 1033 672 859 647 c 1
 976 496 1089 338 1213 193 c 0
 1276 119 1353 79 1445 54 c 1
 1445 -2 l 1
 1387 -16 1328 -26 1269 -26 c 0
493 1227 m 1
 493 703 l 1
 509 703 527 704 545 704 c 0
 737 707 990 710 990 958 c 0
 990 1226 714 1227 515 1227 c 2
 493 1227 l 1
EndSplineSet
EndChar

StartChar: S
Encoding: 83 83 52
Width: 1142
Flags: MW
HStem: -26 21G<493 676> 1307 20G<482 652.5>
VStem: 137 187<946 1114> 846 195<211.5 405.5>
LayerCount: 2
Fore
SplineSet
120 77 m 1
 120 400 l 1
 179 402 l 1
 198 370 206 333 217 297 c 0
 265 137 414 58 574 58 c 0
 699 58 846 124 846 268 c 0
 846 543 137 617 137 991 c 0
 137 1237 377 1327 587 1327 c 0
 718 1327 851 1294 968 1234 c 1
 981 949 l 1
 919 949 l 1
 902 981 893 1017 881 1051 c 0
 834 1187 709 1250 571 1250 c 0
 469 1250 324 1198 324 1075 c 0
 324 817 1041 737 1041 344 c 0
 1041 79 791 -26 561 -26 c 0
 425 -26 230 10 120 77 c 1
EndSplineSet
EndChar

StartChar: T
Encoding: 84 84 53
Width: 1395
Flags: MW
HStem: 0 21G<363 1025 363 363> 1290 20G<1333 1333>
VStem: 586 215<241 1228>
LayerCount: 2
Fore
SplineSet
586 241 m 2
 586 1228 l 1
 440 1228 l 2
 391 1228 341 1227 294 1220 c 0
 188 1204 141 1056 80 982 c 1
 34 982 l 1
 59 1308 l 1
 136 1305 214 1302 291 1302 c 0
 485 1302 680 1298 875 1298 c 0
 1028 1298 1181 1300 1333 1310 c 1
 1365 981 l 1
 1317 981 l 1
 1258 1054 1211 1205 1109 1220 c 0
 1058 1228 1006 1229 954 1229 c 0
 909 1229 864 1228 820 1228 c 2
 801 1228 l 1
 801 241 l 2
 801 80 890 69 1027 52 c 1
 1027 35 1027 17 1025 0 c 1
 363 0 l 1
 361 52 l 1
 469 89 586 95 586 241 c 2
EndSplineSet
EndChar

StartChar: U
Encoding: 85 85 54
Width: 1639
Flags: MW
HStem: -26 21G<683 1084> 1282 20G<29 689 689 689 1084 1623 1623 1623>
VStem: 244 215<965 1023>
LayerCount: 2
Fore
SplineSet
29 1302 m 1
 689 1302 l 1
 691 1250 l 1
 524 1190 459 1251 459 1023 c 2
 459 596 l 2
 459 303 555 82 888 82 c 0
 1220 82 1317 322 1317 613 c 2
 1317 1006 l 2
 1317 1236 1261 1190 1084 1251 c 1
 1084 1302 l 1
 1623 1302 l 1
 1625 1250 l 1
 1560 1216 1442 1238 1415 1150 c 0
 1403 1109 1399 1065 1399 1022 c 0
 1399 922 1403 817 1403 714 c 0
 1403 330 1347 -26 821 -26 c 0
 545 -26 284 101 251 401 c 0
 242 488 239 576 239 664 c 0
 239 785 244 906 244 1024 c 0
 244 1062 243 1102 234 1139 c 0
 216 1218 90 1228 26 1251 c 1
 29 1302 l 1
EndSplineSet
EndChar

StartChar: V
Encoding: 86 86 55
Width: 1405
Flags: MW
HStem: -19 21G<714 729.5> 1282 20G<-8 581 581 581 905 1421 1421 1421>
LayerCount: 2
Fore
SplineSet
402 1138 m 0
 402 1073 687 486 779 251 c 1
 858 465 1102 976 1102 1114 c 0
 1102 1217 981 1216 905 1240 c 1
 903 1249 902 1259 902 1269 c 0
 902 1280 903 1291 905 1302 c 1
 1421 1302 l 1
 1423 1284 1424 1265 1424 1247 c 1
 1385 1220 1338 1201 1295 1181 c 0
 1197 1135 1149 929 1108 833 c 0
 992 559 770 -11 770 -11 c 1
 770 -11 738 -19 721 -19 c 0
 707 -19 694 -19 680 -17 c 1
 519 353 355 720 188 1088 c 0
 139 1197 96 1213 -10 1245 c 1
 -8 1302 l 1
 581 1302 l 1
 582 1282 587 1262 587 1242 c 1
 535 1225 402 1211 402 1138 c 0
EndSplineSet
EndChar

StartChar: W
Encoding: 87 87 56
Width: 1916
Flags: MW
HStem: -21 21G<557 594.5> -19 21G<1346 1362> 1282 20G
VStem: 1355 331<1161 1284>
LayerCount: 2
Fore
SplineSet
375 1182 m 0xb0
 375 1161 603 524 665 353 c 1
 934 1071 l 1
 917 1111 902 1152 885 1192 c 1
 859 1214 700 1260 700 1282 c 0
 700 1285 706 1299 707 1302 c 1
 1349 1302 l 1
 1350 1298 1355 1286 1355 1282 c 0
 1355 1211 1163 1274 1163 1188 c 0
 1163 1156 1393 445 1424 355 c 1
 1457 456 1686 1135 1686 1187 c 0
 1686 1260 1541 1241 1485 1271 c 1
 1479 1282 l 1
 1485 1302 l 1
 2002 1302 l 2
 2007 1302 2017 1296 2020 1291 c 1
 2020 1237 1782 1259 1746 1157 c 0
 1727 1103 1712 1047 1696 992 c 2
 1397 1 l 2
 1392 -16 1369 -19 1355 -19 c 0x70
 1337 -19 1321 -16 1312 1 c 0
 1287 49 1274 115 1256 167 c 2
 972 994 l 1
 713 249 l 2
 686 171 664 74 627 1 c 0
 618 -17 604 -21 585 -21 c 0
 529 -21 498 119 482 161 c 0
 361 483 243 807 120 1128 c 0
 80 1232 -38 1216 -103 1280 c 1
 -96 1302 l 1
 547 1302 l 1
 548 1297 552 1288 552 1282 c 0
 552 1217 375 1270 375 1182 c 0xb0
EndSplineSet
EndChar

StartChar: X
Encoding: 88 88 57
Width: 1463
Flags: MW
HStem: 0 21G<20 541 20 20 808 1460 808 808> 1282 20G<23 665 665 665 861 1374 1374 1374>
LayerCount: 2
Fore
SplineSet
1053 1029 m 2
 811 725 l 1
 1182 236 l 2
 1257 137 1292 100 1372 78 c 0
 1403 69 1444 59 1462 52 c 1
 1462 36 1461 19 1460 0 c 1
 808 0 l 1
 806 17 806 34 806 52 c 1
 881 69 962 98 962 156 c 0
 962 171 956 197 942 216 c 2
 679 565 l 1
 456 294 l 2
 417 246 377 182 377 144 c 0
 377 94 460 73 541 57 c 1
 542 48 542 39 542 30 c 0
 542 21 542 11 541 0 c 1
 20 0 l 1
 18 17 18 34 18 52 c 1
 72 73 179 94 245 165 c 0
 267 190 292 219 319 252 c 2
 632 628 l 1
 273 1097 l 2
 190 1206 89 1220 21 1246 c 1
 21 1262 21 1279 23 1302 c 1
 665 1302 l 1
 666 1285 667 1267 667 1250 c 1
 590 1234 512 1198 512 1144 c 0
 512 1129 519 1115 529 1095 c 1
 762 788 l 1
 945 1014 l 2
 995 1076 1007 1096 1007 1130 c 0
 1007 1183 951 1228 861 1246 c 1
 859 1254 859 1263 859 1273 c 0
 859 1281 859 1291 861 1302 c 1
 1374 1302 l 1
 1376 1285 1376 1267 1376 1250 c 1
 1334 1233 1211 1208 1136 1126 c 0
 1110 1098 1082 1066 1053 1029 c 2
EndSplineSet
EndChar

StartChar: Y
Encoding: 89 89 58
Width: 1330
Flags: MW
HStem: 0 21G<344 990 344 344> 1282 20G<-2 618 618 618 839 1339 1339 1339>
LayerCount: 2
Fore
SplineSet
1341 1250 m 1
 1324 1243 l 2
 1234 1206 1161 1175 1103 1086 c 2
 775 583 l 1
 775 246 l 2
 775 41 864 111 992 52 c 1
 990 0 l 1
 344 0 l 1
 342 52 l 1
 465 121 560 25 560 254 c 2
 560 562 l 1
 195 1134 l 2
 162 1185 56 1238 -2 1251 c 1
 -2 1302 l 1
 618 1302 l 1
 620 1250 l 1
 567 1241 459 1211 459 1142 c 0
 459 1081 699 738 744 667 c 1
 771 711 1004 1037 1004 1140 c 0
 1004 1211 891 1230 839 1246 c 1
 837 1273 l 2
 837 1282 838 1291 839 1302 c 1
 1339 1302 l 1
 1341 1250 l 1
EndSplineSet
EndChar

StartChar: Z
Encoding: 90 90 59
Width: 1285
Flags: MW
HStem: -10 21G<1083.5 1108 1108 1149> 0 21G<67 964 67 67> 1287 20G<160 192 192 356>
LayerCount: 2
Fore
SplineSet
1209 357 m 1x60
 1149 -10 l 1
 1108 -10 l 2xa0
 1059 -10 1011 0 964 0 c 2
 67 0 l 1
 63 43 l 1
 843 1119 l 2
 854 1134 917 1225 917 1225 c 1
 917 1225 667 1225 521 1225 c 0
 410 1225 328 1224 266 1112 c 0
 240 1065 217 1016 186 972 c 1
 168 972 151 973 133 975 c 1
 160 1307 l 1
 192 1307 l 2
 520 1307 849 1302 1178 1302 c 1
 1190 1297 1191 1283 1191 1272 c 2
 1190 1245 l 1
 425 198 l 2
 399 162 374 127 351 89 c 1
 380 80 410 74 441 74 c 2
 580 74 l 2
 687 74 796 76 900 92 c 0
 979 104 1010 134 1047 203 c 0
 1076 257 1110 315 1153 359 c 1
 1209 357 l 1x60
EndSplineSet
EndChar

StartChar: bracketleft
Encoding: 91 91 60
Width: 662
Flags: MW
HStem: -214 21G<598 694> 1509 20G<641 740>
LayerCount: 2
Fore
SplineSet
173 1449 m 0
 173 1485 226 1524 260 1524 c 0
 412 1524 565 1529 717 1529 c 0
 763 1529 816 1509 816 1455 c 0
 816 1399 769 1380 721 1380 c 2
 329 1380 l 1
 329 1097 311 815 311 532 c 0
 311 334 313 136 316 -62 c 1
 438 -61 560 -56 682 -56 c 0
 718 -56 757 -109 757 -143 c 0
 757 -200 719 -214 669 -214 c 0
 527 -214 385 -199 243 -199 c 0
 189 -199 179 -165 179 -119 c 0
 179 18 184 155 184 292 c 0
 184 678 173 1063 173 1449 c 0
EndSplineSet
EndChar

StartChar: backslash
Encoding: 92 92 61
Width: 689
Flags: MW
HStem: -117 21G<615.5 625 625 644> 1382 20G<82.5 97>
LayerCount: 2
Fore
SplineSet
17 1378 m 1
 40 1396 68 1402 97 1402 c 1
 167 1336 183 1229 216 1142 c 2
 617 72 l 2
 638 17 639 -58 644 -117 c 1
 625 -117 l 2
 606 -117 586 -117 567 -112 c 1
 542 -58 521 -3 502 53 c 0
 350 498 152 928 17 1378 c 1
EndSplineSet
EndChar

StartChar: bracketright
Encoding: 93 93 62
Width: 664
Flags: MW
HStem: -214 21G<-25 71> 1509 20G<-71 28>
LayerCount: 2
Fore
SplineSet
0 -214 m 0
 -50 -214 -88 -200 -88 -143 c 0
 -88 -64 -2 -54 59 -54 c 0
 109 -54 158 -63 208 -63 c 2
 353 -63 l 1
 356 135 358 334 358 532 c 0
 358 815 341 1097 340 1380 c 1
 -66 1380 l 2
 -108 1380 -147 1411 -147 1455 c 0
 -147 1509 -94 1529 -48 1529 c 0
 104 1529 257 1524 409 1524 c 0
 443 1524 496 1485 496 1449 c 0
 496 1113 488 776 488 440 c 0
 488 219 505 57 505 -48 c 0
 505 -150 489 -199 426 -199 c 0
 284 -199 142 -214 0 -214 c 0
EndSplineSet
EndChar

StartChar: asciicircum
Encoding: 94 94 63
Width: 1192
Flags: MW
HStem: 722 21G<272 288 899 915> 1372 20G<573 587>
LayerCount: 2
Fore
SplineSet
653 1369 m 1
 764 1174 906 939 994 738 c 1
 964 726 931 722 899 722 c 1
 779 862 691 1038 594 1193 c 1
 492 1037 402 870 288 722 c 1
 256 722 224 726 194 738 c 1
 269 911 402 1130 496 1300 c 0
 515 1335 541 1367 573 1392 c 1
 601 1392 629 1384 653 1369 c 1
EndSplineSet
EndChar

StartChar: underscore
Encoding: 95 95 64
Width: 935
Flags: MW
HStem: -147 21G<102 768 102 102> -69 20G<196 835 835 835>
LayerCount: 2
Fore
SplineSet
893 -129 m 1
 859 -145 810 -147 768 -147 c 2
 102 -147 l 1
 63 -131 44 -112 44 -68 c 1
 89 -49 147 -49 196 -49 c 2
 835 -49 l 1
 872 -65 893 -88 893 -129 c 1
EndSplineSet
EndChar

StartChar: grave
Encoding: 96 96 65
Width: 968
Flags: MW
HStem: 1096 21G<643 655.5> 1550 20G<291 322.5>
LayerCount: 2
Fore
SplineSet
252 1442 m 0
 237 1455 231 1471 231 1488 c 0
 231 1528 270 1570 312 1570 c 0
 333 1570 355 1560 373 1536 c 0
 438 1449 577 1262 660 1152 c 0
 667 1142 671 1131 671 1122 c 0
 671 1107 663 1096 648 1096 c 0
 638 1096 624 1102 608 1116 c 0
 539 1177 354 1349 252 1442 c 0
EndSplineSet
EndChar

StartChar: a
Encoding: 97 97 66
Width: 985
Flags: MW
HStem: -20 21G<251.5 373.5 734.5 830> 572 354<187 628>
VStem: 82 197<181 290.5 181 295> 113 200<665.5 682.5 638.5 782> 621 187<200 669 455 669 527.5 609 609 669 527.5 674>
LayerCount: 2
Fore
SplineSet
621 200 m 1xe8
 621 455 l 1
 518 420 279 361 279 220 c 0
 279 142 324 93 403 93 c 0
 487 93 563 143 621 200 c 1xe8
621 514 m 1
 621 609 l 2
 621 739 597 852 438 852 c 0
 392 852 279 821 279 762 c 0xe8
 279 727 313 700 313 665 c 0
 313 612 276 572 222 572 c 0
 152 572 113 633 113 698 c 0xd8
 113 866 352 926 483 926 c 0
 773 926 808 797 808 541 c 0
 808 514 802 419 802 324 c 0
 802 212 811 99 849 99 c 0
 881 99 919 145 937 168 c 1
 979 123 l 1
 929 40 881 -20 779 -20 c 0
 690 -20 629 41 624 129 c 1
 542 40 435 -20 312 -20 c 0
 191 -20 82 47 82 178 c 0
 82 412 449 469 621 514 c 1
EndSplineSet
EndChar

StartChar: b
Encoding: 98 98 67
Width: 1134
Flags: MW
HStem: -13 21G<420.5 709.5> 906 20G<601 785.5> 1356 20G<344 344>
VStem: 158 186<134 665 758 1163 1163 1163> 866 186<335 524.5>
LayerCount: 2
Fore
SplineSet
344 665 m 1
 344 134 l 2
 344 81 355 65 555 65 c 0
 791 65 866 258 866 412 c 0
 866 637 758 794 589 794 c 0
 487 794 400 733 344 665 c 1
158 134 m 2
 158 1163 l 1
 130 1208 -10 1254 -10 1254 c 1
 -8 1288 l 1
 258 1367 l 1
 344 1376 l 1
 344 758 l 1
 436 857 535 926 667 926 c 0
 904 926 1052 691 1052 462 c 0
 1052 180 847 -13 572 -13 c 0
 269 -13 158 0 158 134 c 2
EndSplineSet
EndChar

StartChar: c
Encoding: 99 99 68
Width: 952
Flags: MW
HStem: -20 21G<384 603.5> 642 284<425.5 814>
VStem: 84 183<400 580.5>
LayerCount: 2
Fore
SplineSet
849 211 m 1
 881 188 l 1
 838 49 680 -20 527 -20 c 0
 241 -20 84 203 84 448 c 0
 84 713 277 926 574 926 c 0
 741 926 892 868 892 737 c 0
 892 670 831 642 797 642 c 0
 647 642 792 852 559 852 c 0
 408 852 267 734 267 502 c 0
 267 298 377 120 584 120 c 0
 705 120 770 149 849 211 c 1
EndSplineSet
EndChar

StartChar: d
Encoding: 100 100 69
Width: 1180
Flags: MW
HStem: -20 21G<374.5 548> -12 21G<813 880 813 813> 903 20G<411.5 589> 1356 20G<985 985>
VStem: 80 186<386.5 564> 799 186<222 510 510 567.5 849 1175 1175 1175>
LayerCount: 2
Fore
SplineSet
799 222 m 1xbc
 799 510 l 2
 799 625 788 706 713 772 c 0
 661 818 598 846 534 846 c 0
 370 846 266 671 266 477 c 0
 266 296 362 99 562 99 c 0
 669 99 748 154 799 222 c 1xbc
799 849 m 1
 799 1175 l 1
 770 1220 629 1266 629 1266 c 1
 631 1301 l 1
 913 1369 l 1
 985 1376 l 1
 985 199 l 2
 985 108 1078 96 1137 88 c 0
 1141 88 1144 87 1147 87 c 1
 1147 32 l 1
 880 -12 l 1
 813 -12 l 1x7c
 804 143 l 1
 710 35 608 -20 488 -20 c 0
 261 -20 80 153 80 414 c 0
 80 714 279 923 544 923 c 0
 634 923 714 889 799 849 c 1
EndSplineSet
EndChar

StartChar: e
Encoding: 101 101 70
Width: 958
Flags: MW
HStem: -20 21G<394.5 587> 906 20G<407 619.5>
VStem: 82 176<366 501.5 366 590.5>
LayerCount: 2
Fore
SplineSet
266 585 m 1
 619 594 l 2
 646 595 672 600 693 610 c 1
 684 765 621 859 500 859 c 0
 366 859 283 735 266 585 c 1
891 526 m 1
 259 526 l 1
 258 516 258 506 258 497 c 0
 258 235 414 121 597 121 c 0
 683 121 762 145 840 193 c 1
 869 165 l 1
 819 44 652 -20 522 -20 c 0
 267 -20 82 169 82 447 c 0
 82 734 291 926 523 926 c 0
 716 926 854 801 880 620 c 1
 887 591 891 562 891 535 c 2
 891 526 l 1
EndSplineSet
EndChar

StartChar: f
Encoding: 102 102 71
Width: 647
Flags: MW
HStem: 0 21G<48 594 48 48> 879 20G<53 122 122 154 397 627 627 627> 1140 234<454 745>
VStem: 207 190
LayerCount: 2
Fore
SplineSet
627 818 m 1
 397 818 l 1
 397 259 l 2
 397 198 401 151 419 112 c 1
 436 61 543 71 595 50 c 1
 595 35 595 19 594 0 c 1
 48 0 l 1
 47 19 46 35 46 50 c 1
 83 71 175 62 190 113 c 1
 205 141 211 175 211 215 c 2
 211 818 l 1
 53 818 l 1
 53 899 l 1
 122 899 l 2
 186 899 206 901 207 971 c 0
 212 1231 341 1374 567 1374 c 0
 700 1374 809 1323 809 1230 c 0
 809 1179 775 1140 715 1140 c 0
 607 1140 629 1302 524 1302 c 0
 438 1302 397 1249 397 1021 c 2
 397 899 l 1
 627 899 l 1
 627 818 l 1
EndSplineSet
EndChar

StartChar: g
Encoding: 103 103 72
Width: 999
Flags: MW
HStem: -351 21G<323 576.5> 1 170 906 20G<356.5 499.5>
VStem: 110 178<562.5 699 562.5 704.5> 637 175<531.5 670 520.5 680>
LayerCount: 2
Fore
SplineSet
560 1 m 2
 481 2 l 2
 423 3 366 8 303 15 c 1
 233 -45 206 -94 206 -137 c 0
 206 -242 385 -268 468 -268 c 0
 602 -268 803 -223 803 -118 c 0
 803 -47 730 -2 560 1 c 2
288 634 m 0
 288 491 346 374 477 374 c 0
 589 374 637 466 637 597 c 0
 637 763 554 852 449 852 c 0
 359 852 288 764 288 634 c 0
941 888 m 1
 926 761 l 1
 873 777 733 803 733 803 c 1
 733 803 812 714 812 626 c 0
 812 415 630 308 458 308 c 0
 420 308 382 314 330 326 c 1
 299 302 259 292 259 243 c 0
 259 174 404 189 656 171 c 0
 817 159 939 87 939 -52 c 0
 939 -238 711 -351 442 -351 c 0
 204 -351 76 -263 76 -184 c 0
 76 -128 119 -57 229 24 c 1
 156 54 110 103 110 163 c 0
 110 239 180 297 275 352 c 1
 172 410 110 498 110 613 c 0
 110 796 256 926 457 926 c 0
 542 926 614 906 677 873 c 1
 677 873 803 892 894 892 c 0
 917 892 941 888 941 888 c 1
EndSplineSet
EndChar

StartChar: h
Encoding: 104 104 73
Width: 1188
Flags: MW
HStem: 0 21G<15 548 15 15 670 1162 670 670> 906 20G<633.5 792> 1356 20G<375 375>
VStem: 188 187<233 684 768 1164 1164 1164> 826 186<214 221 221 568>
LayerCount: 2
Fore
SplineSet
1012 568 m 2
 1012 221 l 2
 1012 117 1067 59 1164 50 c 1
 1164 34 1162 0 1162 0 c 1
 670 0 l 1
 670 0 668 34 668 50 c 1
 774 96 826 66 826 214 c 2
 826 577 l 2
 826 713 774 818 634 818 c 0
 531 818 440 752 375 684 c 1
 375 233 l 2
 375 112 426 62 549 50 c 1
 549 34 548 0 548 0 c 1
 15 0 l 1
 15 0 13 34 13 50 c 1
 125 59 188 115 188 233 c 2
 188 1164 l 1
 166 1196 53 1253 17 1258 c 1
 17 1293 l 1
 303 1369 l 1
 375 1376 l 1
 375 768 l 1
 470 862 562 926 705 926 c 0
 879 926 1012 821 1012 568 c 2
EndSplineSet
EndChar

StartChar: i
Encoding: 105 105 74
Width: 582
Flags: MW
HStem: 0 21G<51 547 51 51> 1108 232<260.5 325>
VStem: 177 222 213 186<204 220 220 713 713 713>
LayerCount: 2
Fore
SplineSet
177 1224 m 0xe0
 177 1288 228 1340 293 1340 c 0
 357 1340 409 1288 409 1224 c 0
 409 1159 357 1108 293 1108 c 0
 228 1108 177 1159 177 1224 c 0xe0
213 181 m 2xd0
 213 713 l 1
 183 764 61 797 61 797 c 1
 63 832 l 1
 340 912 l 1
 399 918 l 1
 399 220 l 2
 399 188 402 159 409 135 c 1
 421 68 520 71 548 50 c 1
 548 33 548 17 547 0 c 1
 51 0 l 1
 49 18 49 34 49 50 c 1
 94 74 213 83 213 181 c 2xd0
EndSplineSet
EndChar

StartChar: j
Encoding: 106 106 75
Width: 540
Flags: MW
HStem: -308 21G<14 14> 1108 232<248 312.5>
VStem: 165 222 201 186<88 125 125 710 710 710>
LayerCount: 2
Fore
SplineSet
165 1224 m 0xe0
 165 1288 216 1340 280 1340 c 0
 345 1340 396 1288 396 1224 c 0
 396 1159 345 1108 280 1108 c 0
 216 1108 165 1159 165 1224 c 0xe0
201 88 m 1xd0
 201 710 l 1
 173 754 74 786 45 795 c 0
 43 796 40 797 39 797 c 1
 39 832 l 1
 319 911 l 1
 387 918 l 1
 387 125 l 2
 387 -168 251 -282 14 -308 c 1
 -1 -250 l 1
 163 -176 190 -136 201 88 c 1xd0
EndSplineSet
EndChar

StartChar: k
Encoding: 107 107 76
Width: 1076
Flags: MW
HStem: 0 21G<22 546 22 22 614 1109 614 614> 1294 20G<398 398>
VStem: 192 206<120 420 475 1122 1122 1156.5>
LayerCount: 2
Fore
SplineSet
192 120 m 2
 192 1122 l 2
 192 1191 -4 1195 -4 1227 c 0
 -4 1232 -3 1238 0 1244 c 1
 398 1314 l 1
 398 475 l 1
 460 475 l 1
 810 778 l 1
 812 783 812 787 812 789 c 0
 812 852 683 813 683 855 c 0
 683 858 684 863 686 868 c 1
 1080 868 l 1
 1083 855 l 1
 1083 840 1053 828 1000 817 c 0
 951 806 918 791 898 774 c 2
 602 522 l 1
 936 94 l 1
 964 62 1112 41 1112 13 c 0
 1112 9 1112 4 1109 0 c 1
 614 0 l 1
 611 6 609 10 609 12 c 0
 609 49 726 24 726 74 c 0
 726 77 724 85 713 97 c 1
 463 420 l 1
 398 420 l 1
 398 116 l 2
 398 32 550 60 550 14 c 0
 550 11 549 7 546 0 c 1
 22 0 l 1
 19 7 19 9 19 12 c 0
 19 55 192 44 192 120 c 2
EndSplineSet
EndChar

StartChar: l
Encoding: 108 108 77
Width: 573
Flags: MW
HStem: 0 21G<39 531 39 39> 1356 20G<384 384>
VStem: 198 186<212 234 234 385>
LayerCount: 2
Fore
SplineSet
312 1369 m 1
 384 1376 l 1
 384 234 l 2
 384 126 422 62 533 50 c 1
 533 33 531 0 531 0 c 1
 39 0 l 1
 39 0 38 34 38 50 c 1
 77 76 178 74 190 140 c 0
 195 167 198 196 198 228 c 0
 198 542 197 855 197 1169 c 1
 170 1213 32 1258 32 1258 c 1
 34 1293 l 1
 312 1369 l 1
EndSplineSet
EndChar

StartChar: m
Encoding: 109 109 78
Width: 1768
Flags: MW
HStem: 0 21G<49 542 49 49 643 643 643 1143 1248 1248 1248 1729> 895 20G<322 383 383 383> 904 20G<1208.5 1362.5> 906 20G<641 777.5>
VStem: 205 187<222 235 235 678> 804 187<229 230 230 472> 1401 187<225 487>
LayerCount: 2
Fore
SplineSet
392 678 m 1xae
 392 235 l 2
 392 199 394 168 398 141 c 0
 408 75 498 74 544 50 c 1
 544 33 542 0 542 0 c 1
 49 0 l 1
 49 0 48 34 48 50 c 1
 84 71 181 72 194 136 c 1
 201 161 205 190 205 222 c 2
 205 724 l 1
 177 777 40 813 40 813 c 1
 43 847 l 1
 322 915 l 1
 383 915 l 1xce
 392 771 l 1
 481 866 570 926 712 926 c 0x9e
 843 926 927 873 972 765 c 1
 1058 859 1138 924 1279 924 c 0
 1446 924 1565 849 1580 676 c 0
 1585 617 1588 555 1588 487 c 2
 1588 225 l 2
 1588 194 1590 165 1595 140 c 0
 1606 78 1690 73 1731 50 c 1
 1731 34 1729 0 1729 0 c 1
 1248 0 l 1
 1248 0 1246 34 1246 50 c 1
 1289 73 1380 77 1393 138 c 0
 1399 163 1401 192 1401 225 c 2
 1401 622 l 2
 1401 746 1335 819 1216 819 c 0
 1126 819 1039 753 985 694 c 1
 991 625 991 551 991 472 c 2
 991 230 l 2
 991 198 992 168 997 142 c 0
 1008 78 1100 74 1145 50 c 1
 1145 33 1143 0 1143 0 c 1
 643 0 l 1
 643 0 641 34 641 50 c 1
 674 71 766 68 782 117 c 1
 797 146 804 182 804 229 c 2
 804 577 l 2
 804 720 769 818 638 818 c 0
 534 818 458 753 392 678 c 1xae
EndSplineSet
EndChar

StartChar: n
Encoding: 110 110 79
Width: 1204
Flags: MW
HStem: 0 21G<44 559 44 44 680 680 680 1173> 906 20G<643.5 808.5>
VStem: 199 186<185 222 222 668> 841 187<226 245 245 449 449 468>
LayerCount: 2
Fore
SplineSet
385 668 m 1
 385 222 l 2
 385 101 450 61 561 50 c 1
 561 33 559 0 559 0 c 1
 44 0 l 1
 44 0 43 16 43 32 c 0
 43 40 43 48 44 54 c 1
 134 75 199 89 199 185 c 2
 199 727 l 1
 173 778 40 811 40 811 c 1
 43 845 l 1
 316 913 l 1
 377 917 l 1
 388 755 l 1
 456 847 574 926 713 926 c 0
 904 926 1016 819 1025 599 c 0
 1027 556 1028 512 1028 468 c 2
 1028 245 l 2
 1028 73 1061 91 1173 54 c 1
 1174 48 1174 40 1174 32 c 0
 1174 16 1173 0 1173 0 c 1
 680 0 l 1
 680 0 678 34 678 50 c 1
 729 70 824 76 836 149 c 0
 840 172 841 198 841 226 c 2
 841 449 l 2
 841 657 841 818 651 818 c 0
 548 818 458 745 385 668 c 1
EndSplineSet
EndChar

StartChar: o
Encoding: 111 111 80
Width: 1111
Flags: MW
HStem: -20 21G<434 686> 906 20G<425 681>
VStem: 82 200<403 597.5> 832 197<311.5 515>
LayerCount: 2
Fore
SplineSet
282 515 m 0
 282 291 392 58 573 58 c 0
 749 58 832 200 832 388 c 0
 832 642 721 859 543 859 c 0
 396 859 282 755 282 515 c 0
82 456 m 0
 82 739 301 926 549 926 c 0
 813 926 1029 747 1029 457 c 0
 1029 166 812 -20 560 -20 c 0
 308 -20 82 174 82 456 c 0
EndSplineSet
EndChar

StartChar: p
Encoding: 112 112 81
Width: 1159
Flags: MW
HStem: -378 21G<27 554 27 27> -19 21G<572 746.5> 906 20G<616.5 799>
VStem: 186 186<-153 -144 -144 75 266 347 347 677> 887 186<328.5 554>
LayerCount: 2
Fore
SplineSet
372 677 m 1
 372 347 l 2
 372 185 466 65 632 65 c 0
 803 65 887 208 887 428 c 0
 887 680 755 796 613 796 c 0
 521 796 437 740 372 677 c 1
372 75 m 1
 372 -144 l 2
 372 -272 433 -314 556 -328 c 1
 556 -344 554 -378 554 -378 c 1
 27 -378 l 1
 27 -378 25 -344 25 -328 c 1
 128 -314 186 -261 186 -153 c 2
 186 714 l 1
 160 761 61 799 28 811 c 2
 20 814 l 1
 20 848 l 1
 290 915 l 1
 358 918 l 1
 366 754 l 1
 452 850 547 926 686 926 c 0
 912 926 1073 756 1073 477 c 0
 1073 180 876 -19 617 -19 c 0
 527 -19 443 14 372 75 c 1
EndSplineSet
EndChar

StartChar: q
Encoding: 113 113 82
Width: 1134
Flags: MW
HStem: -378 21G<612 1129 612 612> -22 21G<353.5 530> 904 20G<417 608> 906 20G<942 964>
VStem: 84 181<376 592> 791 186<236 624 624 624>
LayerCount: 2
Fore
SplineSet
791 236 m 1xdc
 791 624 l 1
 774 759 684 853 527 853 c 0
 362 853 265 701 265 495 c 0
 265 257 391 113 548 113 c 0
 629 113 703 149 791 236 c 1xdc
792 -186 m 2
 792 144 l 1
 676 23 584 -22 476 -22 c 0
 231 -22 84 197 84 432 c 0
 84 752 284 924 550 924 c 0xec
 666 924 774 896 869 848 c 1
 869 885 l 1
 879 910 928 926 956 926 c 0
 972 926 977 915 977 898 c 2
 977 -138 l 2
 977 -250 1015 -309 1131 -329 c 1
 1131 -345 1129 -378 1129 -378 c 1
 612 -378 l 1
 612 -378 610 -344 610 -329 c 1
 677 -305 792 -295 792 -186 c 2
EndSplineSet
EndChar

StartChar: r
Encoding: 114 114 83
Width: 786
Flags: MW
HStem: 0 21G<47 583 47 47> 692 229<652 681.5 590 726.5> 896 20G<312 369 369 369>
VStem: 201 187<234.5 261 261 633>
LayerCount: 2
Fore
SplineSet
388 633 m 1xd0
 388 261 l 2
 388 208 390 164 400 129 c 1
 414 63 522 71 584 50 c 1
 584 33 583 0 583 0 c 1
 47 0 l 1
 47 0 46 20 46 36 c 0
 46 44 46 51 47 54 c 1
 139 81 201 70 201 215 c 2
 201 723 l 1
 172 773 44 805 44 805 c 1
 46 840 l 1
 312 916 l 1
 369 916 l 1xb0
 385 732 l 1
 462 873 540 921 640 921 c 0
 723 921 782 862 782 811 c 0
 782 783 757 692 696 692 c 0
 608 692 613 794 551 794 c 0
 475 794 434 709 388 633 c 1xd0
EndSplineSet
EndChar

StartChar: s
Encoding: 115 115 84
Width: 807
Flags: MW
HStem: -20 21G<355.5 501.5> 906 20G<304.5 439>
LayerCount: 2
Fore
SplineSet
659 853 m 1
 665 631 l 1
 651 630 632 630 618 630 c 1
 584 750 512 859 381 859 c 0
 300 859 245 819 245 738 c 0
 245 634 395 575 514 512 c 0
 656 436 729 361 729 237 c 0
 729 67 593 -20 410 -20 c 0
 301 -20 179 8 106 52 c 1
 106 296 l 1
 137 300 148 301 159 301 c 1
 186 169 255 50 401 50 c 0
 497 50 571 102 571 183 c 0
 571 296 422 329 244 441 c 0
 148 501 91 573 91 684 c 0
 91 843 222 926 387 926 c 0
 491 926 585 900 659 853 c 1
EndSplineSet
EndChar

StartChar: t
Encoding: 116 116 85
Width: 670
Flags: MW
HStem: -20 21G<329 480> 879 20G<371 622 622 622> 1129 20G<342.5 354>
VStem: 186 187<317 815>
LayerCount: 2
Fore
SplineSet
622 815 m 1
 373 815 l 1
 373 314 l 2
 373 135 377 86 505 86 c 0
 563 86 622 101 645 108 c 1
 653 35 l 1
 605 12 535 -20 425 -20 c 0
 233 -20 186 66 186 317 c 2
 186 815 l 1
 37 815 l 1
 37 859 l 1
 181 917 236 1002 300 1101 c 0
 325 1141 337 1149 348 1149 c 0
 360 1149 371 1139 371 1110 c 2
 371 899 l 1
 622 899 l 1
 622 815 l 1
EndSplineSet
EndChar

StartChar: u
Encoding: 117 117 86
Width: 1191
Flags: MW
HStem: -20 21G<361.5 546.5> 884 20G<378 378 1002 1002>
VStem: 192 186<429 440 440 645 645 666> 816 186<220 643 643 664.5>
LayerCount: 2
Fore
SplineSet
1160 85 m 1
 1160 68 1157 32 1157 32 c 1
 829 -15 l 1
 821 145 l 1
 716 28 603 -20 490 -20 c 0
 233 -20 192 197 192 429 c 2
 192 645 l 2
 192 687 189 719 184 746 c 0
 173 803 75 823 26 828 c 1
 26 878 l 1
 378 904 l 1
 378 440 l 2
 378 190 419 98 554 98 c 0
 643 98 729 134 816 220 c 1
 816 643 l 2
 816 686 813 719 808 747 c 0
 797 804 689 824 642 829 c 1
 642 878 l 1
 1002 904 l 1
 1002 201 l 2
 1002 112 1079 99 1160 85 c 1
EndSplineSet
EndChar

StartChar: v
Encoding: 118 118 87
Width: 969
Flags: MW
HStem: -18 21G<466.5 479> 879 20G<-4 446 446 446 601 973 973 973>
LayerCount: 2
Fore
SplineSet
813 706 m 1
 503 -12 l 1
 495 -16 485 -18 473 -18 c 0
 460 -18 450 -16 443 -12 c 1
 137 724 l 2
 89 840 69 813 -4 847 c 1
 -4 899 l 1
 446 899 l 1
 447 882 451 860 451 845 c 1
 384 827 322 810 322 760 c 0
 322 752 324 743 327 733 c 2
 531 230 l 1
 703 649 l 2
 718 686 731 728 731 755 c 1
 727 805 680 824 601 843 c 1
 600 849 600 858 600 866 c 0
 600 883 601 899 601 899 c 1
 973 899 l 1
 975 882 975 866 975 848 c 1
 928 818 864 821 813 706 c 1
EndSplineSet
EndChar

StartChar: w
Encoding: 119 119 88
Width: 1434
Flags: MW
HStem: -20 21G<441 454.5 971.5 984.5> 879 20G<1 413 413 413 521 963 963 963 1085 1436 1436 1436>
VStem: 850 356<758.5 792 740.5 796.5>
LayerCount: 2
Fore
SplineSet
318 726 m 0
 318 723 318 722 319 719 c 2
 504 243 l 1
 687 688 l 1
 664 769 613 846 519 851 c 1
 521 899 l 1
 963 899 l 1
 964 882 965 867 965 851 c 1
 915 827 850 825 850 768 c 0
 850 749 858 725 868 698 c 2
 1031 251 l 1
 1187 672 l 2
 1197 698 1206 727 1206 754 c 0
 1206 830 1162 825 1085 848 c 1
 1084 855 1083 863 1083 872 c 0
 1083 881 1084 890 1085 899 c 1
 1436 899 l 1
 1436 870 1436 846 1436 846 c 1
 1377 838 1298 768 1278 714 c 2
 1008 -14 l 1
 1001 -18 991 -20 978 -20 c 0
 965 -20 955 -18 947 -14 c 1
 720 596 l 1
 479 -14 l 1
 471 -18 461 -20 448 -20 c 0
 434 -20 423 -18 416 -14 c 1
 137 699 l 2
 106 778 83 832 -1 850 c 1
 1 899 l 1
 413 899 l 1
 414 882 414 867 414 851 c 1
 364 834 313 813 313 758 c 0
 313 749 314 738 318 726 c 0
EndSplineSet
EndChar

StartChar: x
Encoding: 120 120 89
Width: 1008
Flags: MW
HStem: 0 21G<-1 382 -1 -1 523 1000 523 523> 879 20G<23 466 466 466 580 950 950 950>
LayerCount: 2
Fore
SplineSet
171 152 m 2
 418 431 l 1
 151 772 l 2
 113 821 52 836 22 851 c 1
 22 866 23 899 23 899 c 1
 466 899 l 1
 466 899 467 866 467 851 c 1
 418 836 379 811 379 779 c 0
 379 768 383 761 388 748 c 1
 528 561 l 1
 650 710 l 2
 671 736 681 756 681 774 c 0
 681 809 640 839 580 848 c 1
 580 899 l 1
 950 899 l 1
 950 899 951 866 951 850 c 1
 910 833 837 819 783 753 c 2
 577 501 l 1
 847 159 l 2
 906 84 929 75 1002 47 c 1
 1002 33 1000 0 1000 0 c 1
 523 0 l 1
 523 0 522 32 522 48 c 1
 566 71 640 75 640 115 c 0
 640 129 632 146 615 165 c 1
 459 376 l 1
 323 225 l 2
 293 192 267 143 267 113 c 0
 267 77 323 63 382 51 c 1
 383 45 383 38 383 30 c 0
 383 15 382 0 382 0 c 1
 -1 0 l 1
 -1 0 -3 31 -3 48 c 1
 31 67 114 87 171 152 c 2
EndSplineSet
EndChar

StartChar: y
Encoding: 121 121 90
Width: 971
Flags: MW
HStem: -395 209<170 196.5 132 280> 879 20G<-5 464 464 464 608 975 975 975>
LayerCount: 2
Fore
SplineSet
465 0 m 1
 153 712 l 2
 89 857 65 818 -5 847 c 1
 -5 899 l 1
 464 899 l 1
 464 899 469 874 469 867 c 0
 469 849 432 840 417 830 c 1
 361 826 334 810 334 776 c 0
 334 762 340 743 347 721 c 1
 554 227 l 1
 723 675 l 2
 733 701 738 723 738 743 c 0
 738 801 697 828 608 843 c 1
 607 849 607 858 607 866 c 0
 607 883 608 899 608 899 c 1
 975 899 l 1
 975 899 976 866 976 848 c 1
 931 812 861 827 827 707 c 1
 472 -167 l 2
 418 -301 346 -395 214 -395 c 0
 126 -395 60 -351 60 -279 c 0
 60 -224 105 -186 159 -186 c 0
 234 -186 233 -257 297 -257 c 0
 379 -257 424 -129 465 0 c 1
EndSplineSet
EndChar

StartChar: z
Encoding: 122 122 91
Width: 892
Flags: MW
HStem: -11 21G<811 811> 0 21G<44 652 44 44> 879 20G<267 768 768 768> 905 20G<100 100>
LayerCount: 2
Fore
SplineSet
823 840 m 1x70
 278 60 l 1
 472 60 l 2
 537 60 592 71 643 86 c 0
 720 109 742 232 789 279 c 1
 806 279 823 277 840 277 c 1
 811 -11 l 1xb0
 811 -11 686 0 652 0 c 2
 44 0 l 1
 30 33 l 1
 607 838 l 1
 438 838 l 2
 394 838 351 838 313 829 c 1
 223 818 187 707 124 662 c 1
 79 664 l 1
 100 925 l 1
 169 899 225 899 267 899 c 2
 768 899 l 1
 787 898 822 895 823 895 c 1
 823 840 l 1x70
EndSplineSet
EndChar

StartChar: braceleft
Encoding: 123 123 92
Width: 827
Flags: MW
HStem: -233 21G 1477 20G
VStem: 376 198<9.5 382.5> 401 173<358 382.5 245.5 494.5>
LayerCount: 2
Fore
SplineSet
191 619 m 1xd0
 191 637 197 657 213 667 c 1
 332 677 403 752 403 871 c 0
 403 967 375 1061 375 1157 c 0
 375 1372 518 1484 724 1497 c 1
 727 1488 729 1477 729 1467 c 0
 729 1458 727 1448 724 1440 c 1
 615 1425 532 1382 532 1261 c 0
 532 1162 574 1067 574 967 c 0
 574 794 463 680 304 632 c 1
 462 585 574 468 574 297 c 0
 574 194 530 97 530 -4 c 0
 530 -117 626 -160 724 -176 c 1
 729 -184 732 -194 732 -205 c 0
 732 -215 729 -225 724 -233 c 1
 507 -220 376 -101 376 120 c 0xe0
 376 216 401 310 401 406 c 0
 401 583 288 547 191 619 c 1xd0
EndSplineSet
EndChar

StartChar: bar
Encoding: 124 124 93
Width: 824
Flags: MW
HStem: -315 21G 1447 20G<434 438 438 438>
LayerCount: 2
Fore
SplineSet
354 1165 m 1
 354 1431 l 1
 372 1457 403 1467 434 1467 c 2
 438 1467 l 1
 440 1459 l 1
 455 1387 469 1317 469 1244 c 2
 469 -88 l 2
 469 -164 468 -244 438 -315 c 1
 405 -314 382 -301 354 -283 c 1
 354 1165 l 1
EndSplineSet
EndChar

StartChar: braceright
Encoding: 125 125 94
Width: 827
Flags: MW
HStem: -233 21G 1477 20G
VStem: 253 171<353 382.5 881 915> 253 199<881 1264.5>
LayerCount: 2
Fore
SplineSet
614 667 m 1xe0
 630 657 637 637 637 619 c 1
 530 548 424 580 424 399 c 0xe0
 424 307 451 218 451 127 c 0
 451 -97 326 -219 104 -233 c 1
 99 -228 96 -219 96 -212 c 0
 96 -199 96 -187 104 -176 c 1
 203 -161 297 -117 297 -4 c 0
 297 97 253 194 253 297 c 0
 253 468 365 585 523 632 c 1
 363 679 253 795 253 967 c 0
 253 1067 295 1162 295 1261 c 0
 295 1380 212 1425 104 1440 c 1
 100 1448 98 1458 98 1467 c 0
 98 1477 101 1488 104 1497 c 1
 309 1484 452 1372 452 1157 c 0xd0
 452 1059 424 964 424 866 c 0
 424 748 498 676 614 667 c 1xe0
EndSplineSet
EndChar

StartChar: asciitilde
Encoding: 126 126 95
Width: 858
Flags: MW
HStem: 583 268
LayerCount: 2
Fore
SplineSet
757 846 m 1
 846 846 l 1
 846 691 779 583 645 583 c 0
 483 583 324 713 214 713 c 0
 141 713 105 665 97 596 c 1
 6 596 l 1
 18 731 70 851 223 851 c 0
 365 851 538 718 642 718 c 0
 724 718 754 770 757 846 c 1
EndSplineSet
EndChar

StartChar: exclamdown
Encoding: 161 161 96
Width: 567
Flags: MW
HStem: -29 21G<240.5 315.5> 1067 245<249.5 316.5 249.5 317>
VStem: 153 256<44.5 172 44.5 178>
LayerCount: 2
Fore
SplineSet
279 -29 m 0
 202 -29 153 0 153 82 c 0
 153 274 223 639 248 833 c 0
 251 856 249 927 283 927 c 0
 312 927 314 836 317 817 c 0
 344 636 409 260 409 84 c 0
 409 5 352 -29 279 -29 c 0
162 1191 m 0
 162 1258 216 1312 283 1312 c 0
 350 1312 407 1259 407 1191 c 0
 407 1123 351 1067 283 1067 c 0
 215 1067 162 1124 162 1191 c 0
EndSplineSet
EndChar

StartChar: cent
Encoding: 162 162 97
Width: 1049
Flags: MW
HStem: -253 21G<448.5 462> 639 284<440 867.5> 902 20G<621.5 627> 1203 20G<704 712>
VStem: 125 186<424 561.5>
LayerCount: 2
Fore
SplineSet
485 165 m 1xd8
 611 846 l 1
 453 846 311 742 311 516 c 0
 311 332 368 222 485 165 c 1xd8
396 -201 m 1
 448 6 l 1
 254 56 125 224 125 447 c 0
 125 676 284 923 596 923 c 0xd8
 606 923 616 922 627 922 c 1xb8
 657 1107 l 2
 665 1157 686 1196 704 1223 c 1
 720 1223 737 1223 755 1221 c 1
 754 1187 753 1158 743 1097 c 2
 714 916 l 1
 844 896 933 832 933 735 c 0
 933 675 891 639 844 639 c 0
 722 639 818 775 691 830 c 1
 563 139 l 1
 600 126 632 122 668 122 c 0
 758 122 834 155 891 212 c 1
 904 206 914 198 923 189 c 1
 919 173 913 158 907 142 c 0
 872 50 722 -16 604 -19 c 1
 579 -26 558 -29 536 -29 c 2
 527 -29 l 1
 512 -157 489 -209 462 -253 c 1
 435 -253 411 -244 396 -201 c 1
EndSplineSet
EndChar

StartChar: sterling
Encoding: 163 163 98
Width: 1238
Flags: MW
HStem: -11 171<706 821.5 706 846> -11 321<182.5 252.5 182.5 273.5> 901 309<544.5 849.5>
VStem: 65 425 153 337<600 937.5> 275 215<850 937.5 850 972> 752 175<1057 1078 970 1098>
LayerCount: 2
Fore
SplineSet
501 574 m 1xa6
 516 359 l 1
 516 330 503 265 496 242 c 1
 565 213 669 160 743 160 c 0
 900 160 912 312 946 312 c 0
 952 312 960 309 965 307 c 1
 953 154 946 -11 746 -11 c 0
 637 -11 527 55 436 109 c 1
 389 41 316 -11 231 -11 c 0
 134 -11 65 65 65 160 c 0xb2
 65 257 136 310 229 310 c 0
 276 310 322 301 367 288 c 1
 302 574 l 1
 293 574 280 573 265 573 c 0
 218 573 153 579 153 621 c 0x6a
 153 661 208 667 250 667 c 0
 264 667 276 666 285 666 c 1
 282 732 275 799 275 865 c 0
 275 1079 442 1210 647 1210 c 0
 771 1210 927 1151 927 1005 c 0
 927 935 875 901 824 901 c 0
 777 901 732 930 732 988 c 0
 732 1018 752 1043 752 1071 c 0
 752 1125 711 1164 658 1164 c 0
 526 1164 490 988 490 887 c 0
 490 813 497 739 501 666 c 1
 729 666 l 1
 734 650 735 633 735 616 c 0
 735 596 734 582 729 574 c 1
 501 574 l 1xa6
248 73 m 0
 298 73 340 111 359 155 c 1
 322 176 271 205 227 205 c 0
 199 205 175 187 175 158 c 0
 175 112 198 73 248 73 c 0
EndSplineSet
EndChar

StartChar: currency
Encoding: 164 164 99
Width: 1188
Flags: MW
HStem: 233 21G 1174 20G
LayerCount: 2
Fore
SplineSet
331 721 m 0
 331 568 437 445 594 445 c 0
 738 445 857 562 857 707 c 0
 857 859 750 983 594 983 c 0
 450 983 331 865 331 721 c 0
817 1044 m 1
 860 1098 897 1157 957 1194 c 1
 991 1173 1019 1143 1039 1109 c 1
 1005 1055 954 1007 912 959 c 1
 968 887 998 806 998 714 c 0
 998 621 970 544 914 470 c 1
 955 421 1015 373 1046 318 c 1
 1023 286 993 258 959 238 c 1
 911 267 858 340 822 384 c 1
 754 340 677 318 596 318 c 0
 517 318 441 341 373 382 c 1
 329 327 293 268 231 233 c 1
 198 255 169 283 149 317 c 1
 185 371 234 419 277 467 c 1
 220 541 191 619 191 713 c 0
 191 805 220 885 275 958 c 1
 234 1007 174 1055 142 1110 c 1
 166 1141 196 1170 230 1190 c 1
 280 1160 333 1087 369 1042 c 1
 437 1084 514 1109 594 1109 c 0
 675 1109 748 1087 817 1044 c 1
EndSplineSet
EndChar

StartChar: yen
Encoding: 165 165 100
Width: 1340
Flags: MW
HStem: 0 307<755 984> 210 277<364.5 540 463 540 755 984 984 995 463 755> 1156 20G<50 676 676 676 762 1258 1258 1258>
VStem: 249 506<72.5 268.5 72.5 466> 309 446<15.5 124> 540 215<130 210 72.5 210 307 393 487 530 530 530>
LayerCount: 2
Fore
SplineSet
370 302 m 2x70
 540 303 l 1
 540 395 l 1xa4
 484 394 433 391 389 391 c 0
 304 391 249 401 249 452 c 0xb0
 249 480 266 487 463 487 c 2
 540 487 l 1
 540 530 l 1x64
 260 1030 l 2
 241 1064 46 1146 46 1159 c 0
 46 1160 47 1166 50 1176 c 1
 676 1176 l 1
 679 1169 680 1163 680 1158 c 0
 680 1118 491 1110 491 1059 c 0
 491 1053 493 1047 496 1040 c 2
 726 630 l 1
 940 1040 l 2
 944 1047 946 1053 946 1060 c 0
 946 1109 821 1103 762 1148 c 0
 759 1150 758 1154 758 1159 c 0
 758 1160 759 1166 762 1176 c 1
 1258 1176 l 1
 1261 1169 1262 1162 1262 1157 c 0
 1262 1140 1204 1124 1171 1119 c 0
 1099 1107 1050 1090 1021 1040 c 2
 755 580 l 1
 755 487 l 1
 984 487 l 2x70
 1013 487 1087 479 1087 434 c 0
 1087 415 1058 393 1006 393 c 2
 755 393 l 1
 755 307 l 1
 1011 307 l 2xb0
 1064 307 1088 285 1088 265 c 0
 1088 221 1034 210 995 210 c 2
 755 210 l 1x70
 755 124 l 2
 755 21 988 73 988 17 c 0
 988 14 987 9 984 0 c 1
 314 0 l 1
 311 7 309 13 309 18 c 0xa8
 309 84 540 14 540 130 c 2
 540 210 l 1x64
 463 210 l 2
 266 210 249 227 249 254 c 0
 249 283 271 301 370 302 c 2x70
EndSplineSet
EndChar

StartChar: brokenbar
Encoding: 166 166 101
Width: 826
Flags: MW
HStem: -229 21G<418 438> 1359 20G<422.5 438>
LayerCount: 2
Fore
SplineSet
355 160 m 1
 355 407 l 1
 372 435 407 443 438 443 c 1
 470 382 477 282 477 183 c 0
 477 111 473 40 473 -17 c 0
 473 -82 472 -172 438 -229 c 1
 398 -229 388 -213 355 -197 c 1
 355 160 l 1
355 1343 m 1
 372 1371 407 1379 438 1379 c 1
 456 1335 470 1296 470 1247 c 2
 470 739 l 1
 445 717 421 707 387 707 c 1
 357 793 355 911 355 1010 c 2
 355 1343 l 1
EndSplineSet
EndChar

StartChar: section
Encoding: 167 167 102
Width: 856
Flags: MW
HStem: -222 253<155 490> 1134 226<355 674.5>
LayerCount: 2
Fore
SplineSet
234 1043 m 1
 203 997 187 928 187 872 c 0
 187 517 513 390 624 110 c 1
 626 107 l 1
 649 153 659 204 659 255 c 0
 659 523 403 846 234 1043 c 1
195 1073 m 1
 185 1098 181 1125 181 1152 c 0
 181 1285 293 1360 417 1360 c 0
 529 1360 727 1331 727 1181 c 0
 727 1150 687 1134 662 1134 c 0
 594 1134 529 1296 413 1296 c 0
 341 1296 261 1262 261 1179 c 0
 261 997 744 830 744 381 c 0
 744 274 711 169 658 76 c 1
 673 46 683 13 683 -21 c 0
 683 -152 548 -222 432 -222 c 0
 316 -222 105 -187 105 -34 c 0
 105 8 135 31 175 31 c 0
 272 31 212 -149 429 -149 c 0
 503 -149 605 -121 605 -30 c 0
 605 203 112 344 112 757 c 0
 112 867 145 975 195 1073 c 1
EndSplineSet
EndChar

StartChar: dieresis
Encoding: 168 168 103
Width: 1121
Flags: MW
HStem: 1083 218<307.5 368 747 807.5>
VStem: 229 218<1161.5 1222> 669 218<1161.5 1222>
LayerCount: 2
Fore
SplineSet
338 1301 m 0
 398 1301 447 1252 447 1192 c 0
 447 1131 398 1083 338 1083 c 0
 277 1083 229 1131 229 1192 c 0
 229 1252 277 1301 338 1301 c 0
777 1301 m 0
 838 1301 887 1252 887 1192 c 0
 887 1131 838 1083 777 1083 c 0
 717 1083 669 1131 669 1192 c 0
 669 1252 717 1301 777 1301 c 0
EndSplineSet
EndChar

StartChar: copyright
Encoding: 169 169 104
Width: 1507
Flags: MW
HStem: -23 305<697.5 866.5 697.5 941.5> 1055 259<684.5 854>
VStem: 73 398<551 789.5 551 839.5>
LayerCount: 2
Fore
SplineSet
1350 627 m 0
 1350 969 1110 1249 748 1249 c 0
 404 1249 162 982 162 666 c 0
 162 314 413 41 772 41 c 0
 1092 41 1350 300 1350 627 c 0
1435 646 m 0
 1435 258 1130 -23 753 -23 c 0
 397 -23 73 255 73 646 c 0
 73 1033 395 1314 754 1314 c 0
 1111 1314 1435 1041 1435 646 c 0
1080 1080 m 1
 1101 840 l 1
 1089 838 1081 838 1071 838 c 1
 1022 972 933 1055 775 1055 c 0
 594 1055 471 901 471 678 c 0
 471 424 594 282 801 282 c 0
 932 282 1002 322 1088 392 c 1
 1098 389 1107 382 1114 376 c 1
 1059 269 904 205 763 205 c 0
 505 205 310 388 310 647 c 0
 310 901 511 1081 756 1096 c 1
 870 1096 940 1054 989 1054 c 0
 1001 1054 1008 1060 1016 1080 c 1
 1080 1080 l 1
EndSplineSet
EndChar

StartChar: ordfeminine
Encoding: 170 170 105
Width: 708
Flags: MW
HStem: 546 21G<188.5 268.5 504 555> 1144 20G<301.5 431.5>
VStem: 70 496<630 1011.5>
LayerCount: 2
Fore
SplineSet
439 688 m 1
 439 855 l 1
 356 827 205 804 205 693 c 0
 205 643 243 619 289 619 c 0
 343 619 399 654 439 688 c 1
439 893 m 1
 439 959 l 2
 439 1047 419 1117 314 1117 c 0
 284 1117 205 1098 205 1058 c 0
 205 1035 229 1017 229 995 c 0
 229 966 175 935 149 935 c 0
 118 935 92 990 92 1016 c 0
 92 1129 258 1164 345 1164 c 0
 518 1164 566 1095 566 928 c 0
 566 907 560 842 560 780 c 0
 560 687 560 634 597 634 c 0
 609 634 625 640 646 651 c 1
 662 602 l 1
 637 560 578 546 532 546 c 0
 476 546 445 592 441 644 c 1
 380 592 310 546 227 546 c 0
 150 546 70 587 70 673 c 0
 70 839 321 853 439 893 c 1
EndSplineSet
EndChar

StartChar: guillemotleft
Encoding: 171 171 106
Width: 794
Flags: MW
HStem: 63 21G<400 411> 927 20G<396 410.5>
LayerCount: 2
Fore
SplineSet
228 507 m 1
 294 377 407 201 442 85 c 1
 433 74 422 63 400 63 c 1
 378 78 362 94 339 124 c 2
 45 507 l 1
 346 885 l 2
 364 907 381 933 396 947 c 1
 425 947 440 934 449 922 c 1
 415 814 296 635 228 507 c 1
693 808 m 2
 540 507 l 1
 689 200 l 2
 700 177 705 157 710 134 c 1
 701 123 690 113 669 113 c 1
 648 126 634 143 613 172 c 2
 369 507 l 1
 456 626 610 829 665 898 c 1
 693 898 709 885 718 872 c 1
 713 854 702 825 693 808 c 2
EndSplineSet
EndChar

StartChar: logicalnot
Encoding: 172 172 107
Width: 1345
Flags: MW
HStem: 286 21G<1144 1167> 875 20G<1048 1070.5>
LayerCount: 2
Fore
SplineSet
141 893 m 1
 314 893 l 2
 559 893 804 894 1048 895 c 0
 1093 895 1138 891 1183 885 c 1
 1196 799 1198 709 1198 620 c 2
 1198 403 l 2
 1198 363 1197 316 1167 286 c 1
 1121 286 1086 306 1043 314 c 1
 1043 742 l 1
 230 742 l 2
 189 742 141 743 109 773 c 1
 109 819 129 851 141 893 c 1
EndSplineSet
EndChar

StartChar: uni00AD
Encoding: 173 173 108
Width: 772
Flags: MW
HStem: 391 21G<151 586 151 151> 510 20G<221 586 586 605.5>
LayerCount: 2
Fore
SplineSet
586 391 m 2
 151 391 l 1
 120 406 120 423 120 461 c 0
 120 485 120 506 124 525 c 1
 152 529 183 530 221 530 c 2
 586 530 l 2
 625 530 657 528 685 524 c 1
 689 504 689 482 689 458 c 0
 689 432 689 412 685 394 c 1
 658 391 625 391 586 391 c 2
EndSplineSet
EndChar

StartChar: registered
Encoding: 174 174 109
Width: 1507
Flags: MW
HStem: -23 21G<567 943> 1024 290<686 752.5>
LayerCount: 2
Fore
SplineSet
1350 627 m 0
 1350 976 1103 1249 748 1249 c 0
 419 1249 162 996 162 666 c 0
 162 313 414 41 772 41 c 0
 1096 41 1350 305 1350 627 c 0
1435 646 m 0
 1435 262 1133 -23 753 -23 c 0
 381 -23 73 271 73 646 c 0
 73 1021 383 1314 754 1314 c 0
 1128 1314 1435 1024 1435 646 c 0
630 1018 m 1
 630 680 l 1
 753 682 910 694 910 853 c 0
 910 979 808 1024 697 1024 c 0
 675 1024 652 1022 630 1018 c 1
701 641 m 1
 630 644 l 1
 630 338 l 2
 630 276 702 278 745 266 c 1
 744 241 l 1
 378 241 l 1
 376 266 l 1
 424 283 485 281 485 349 c 2
 485 951 l 2
 485 1012 430 1025 384 1045 c 1
 385 1069 l 1
 746 1069 l 2
 878 1069 1064 1020 1064 857 c 0
 1064 729 948 674 838 652 c 1
 885 577 1039 302 1109 282 c 1
 1116 262 1146 273 1146 241 c 1
 947 241 l 1
 862 372 778 505 701 641 c 1
EndSplineSet
EndChar

StartChar: macron
Encoding: 175 175 110
Width: 772
Flags: MW
HStem: 1302 21G<89 691 89 89> 1410 20G<89 691 691 691>
LayerCount: 2
Fore
SplineSet
691 1302 m 1
 89 1302 l 1
 89 1430 l 1
 691 1430 l 1
 691 1302 l 1
EndSplineSet
EndChar

StartChar: degree
Encoding: 176 176 111
Width: 703
Flags: MW
HStem: 803 21G<282.5 418.5> 1267 20G<282.5 418.5>
VStem: 106 487<979.5 1111 979.5 1111>
LayerCount: 2
Fore
SplineSet
593 1045 m 0
 593 914 486 803 351 803 c 0
 214 803 106 911 106 1045 c 0
 106 1177 214 1287 351 1287 c 0
 486 1287 593 1177 593 1045 c 0
543 1045 m 0
 543 1145 458 1233 352 1233 c 0
 246 1233 160 1145 160 1045 c 0
 160 940 246 855 352 855 c 0
 458 855 543 943 543 1045 c 0
EndSplineSet
EndChar

StartChar: plusminus
Encoding: 177 177 112
Width: 1099
Flags: MW
HStem: 129 21G<538 558> 995 20G<540 559.5>
LayerCount: 2
Fore
SplineSet
107 618 m 1
 158 637 242 642 321 642 c 0
 384 642 445 639 482 639 c 1
 482 701 480 766 480 831 c 0
 480 892 482 954 490 1012 c 1
 510 1014 530 1015 550 1015 c 0
 569 1015 589 1015 608 1012 c 1
 617 951 619 888 619 825 c 0
 619 762 617 699 617 639 c 1
 672 639 728 640 785 640 c 0
 854 640 923 638 990 629 c 1
 992 609 993 590 993 570 c 0
 993 551 992 531 990 512 c 1
 931 505 871 503 810 503 c 0
 745 503 679 505 617 505 c 1
 617 450 618 394 618 337 c 0
 618 268 616 199 607 132 c 1
 587 130 568 129 548 129 c 0
 528 129 509 130 489 132 c 1
 482 191 480 251 480 312 c 0
 480 377 482 443 482 505 c 1
 159 505 l 1
 111 533 107 567 107 618 c 1
EndSplineSet
EndChar

StartChar: acute
Encoding: 180 180 113
Width: 968
Flags: MW
HStem: 1096 21G<246.5 259> 1550 20G<579.5 611>
LayerCount: 2
Fore
SplineSet
650 1442 m 0
 548 1349 363 1177 294 1116 c 0
 278 1102 264 1096 254 1096 c 0
 239 1096 231 1107 231 1122 c 0
 231 1131 235 1142 242 1152 c 0
 325 1262 464 1449 529 1536 c 0
 547 1560 569 1570 590 1570 c 0
 632 1570 671 1528 671 1488 c 0
 671 1471 665 1455 650 1442 c 0
EndSplineSet
EndChar

StartChar: paragraph
Encoding: 182 182 114
Width: 1029
Flags: MW
HStem: -224 21G<313 604 313 313 744 1005 744 744> 1283 20G<535 1003 1003 1003>
VStem: 512 323
LayerCount: 2
Fore
SplineSet
835 1204 m 1
 836 -112 l 2
 836 -156 1005 -134 1005 -158 c 2
 1005 -224 l 1
 744 -224 l 1
 744 1220 l 1
 604 1220 l 1
 604 -224 l 1
 313 -224 l 1
 313 -158 l 2
 313 -134 512 -155 512 -112 c 2
 512 577 l 1
 264 577 22 642 22 935 c 0
 22 1233 286 1303 535 1303 c 2
 1003 1303 l 1
 1005 1264 l 1
 973 1235 863 1251 835 1204 c 1
EndSplineSet
EndChar

StartChar: cedilla
Encoding: 184 184 115
Width: 691
Flags: MW
HStem: -425 21G<289.5 374> -9 20G<275 358 358 358>
VStem: 380 163<-294.5 -231>
LayerCount: 2
Fore
SplineSet
358 11 m 1
 358 11 375 -62 382 -94 c 1
 495 -110 543 -177 543 -246 c 0
 543 -357 436 -425 312 -425 c 0
 267 -425 227 -415 176 -393 c 1
 189 -336 l 1
 217 -350 245 -356 271 -356 c 0
 330 -356 380 -321 380 -268 c 0
 380 -194 311 -168 228 -164 c 1
 275 11 l 1
 358 11 l 1
EndSplineSet
EndChar

StartChar: ordmasculine
Encoding: 186 186 116
Width: 791
Flags: MW
HStem: 547 21G<312.5 484.5> 1144 20G<308.5 481.5>
LayerCount: 2
Fore
SplineSet
209 893 m 0
 209 711 302 602 408 602 c 0
 506 602 588 680 588 808 c 0
 588 945 525 1119 386 1119 c 0
 283 1119 209 1040 209 893 c 0
72 861 m 0
 72 1043 225 1164 392 1164 c 0
 571 1164 719 1048 719 858 c 0
 719 667 570 547 399 547 c 0
 226 547 72 672 72 861 c 0
EndSplineSet
EndChar

StartChar: guillemotright
Encoding: 187 187 117
Width: 794
Flags: MW
HStem: 63 21G<385 394> 926 20G<387.5 398>
LayerCount: 2
Fore
SplineSet
352 85 m 1
 397 234 494 372 566 507 c 1
 498 629 388 781 345 921 c 1
 357 938 377 946 398 946 c 1
 525 811 633 651 748 507 c 1
 461 132 l 2
 441 106 420 82 394 63 c 1
 376 63 363 72 352 85 c 1
84 134 m 1
 108 258 200 398 254 507 c 1
 203 606 103 755 76 872 c 1
 89 889 108 897 129 897 c 1
 236 776 327 635 425 507 c 1
 386 453 201 168 125 112 c 1
 107 112 95 121 84 134 c 1
EndSplineSet
EndChar

StartChar: onequarter
Encoding: 188 188 118
Width: 1894
Flags: MW
HStem: -81 21G<456 489 456 456> 47 278<1342 1465 1202 1742 1342 1342> 1390 20G<1253 1269>
LayerCount: 2
Fore
SplineSet
398 1295 m 1
 397 685 l 2
 397 622 398 564 476 559 c 0
 488 558 520 560 526 548 c 1
 526 512 l 1
 115 512 l 1
 115 547 l 1
 194 586 247 527 247 663 c 2
 247 1084 l 2
 247 1197 188 1169 117 1199 c 1
 119 1234 l 1
 204 1244 287 1264 364 1301 c 1
 376 1301 387 1299 398 1295 c 1
543 -77 m 1
 525 -81 507 -81 489 -81 c 2
 456 -81 l 1
 474 -27 489 42 515 91 c 2
 1024 1045 l 2
 1084 1157 1148 1338 1253 1410 c 1
 1285 1410 1316 1403 1343 1386 c 1
 1265 1254 l 2
 1154 1067 1040 883 937 691 c 0
 829 488 737 279 640 71 c 0
 616 20 576 -31 543 -77 c 1
1202 325 m 1
 1465 325 l 1
 1465 716 l 1
 1202 325 l 1
1745 251 m 1
 1617 251 l 1
 1617 155 l 2
 1617 97 1703 96 1742 84 c 1
 1742 47 l 1
 1342 47 l 1
 1342 83 l 1
 1383 98 1467 94 1467 155 c 2
 1467 251 l 1
 1116 251 l 1
 1111 319 l 1
 1477 840 l 1
 1523 842 1570 846 1617 846 c 1
 1617 328 l 1
 1727 328 1709 351 1745 386 c 1
 1755 386 1767 384 1774 367 c 1
 1768 329 1754 288 1745 251 c 1
EndSplineSet
EndChar

StartChar: onehalf
Encoding: 189 189 119
Width: 1831
Flags: MW
HStem: -81 21G<456 489 456 456> 1390 20G<1253 1268.5>
LayerCount: 2
Fore
SplineSet
395 1295 m 1
 394 685 l 2
 394 622 395 564 473 559 c 0
 486 558 517 560 525 548 c 1
 523 512 l 1
 114 512 l 1
 112 547 l 1
 193 587 244 525 244 663 c 2
 244 1084 l 2
 244 1197 186 1169 116 1199 c 1
 116 1234 l 1
 201 1244 284 1264 361 1301 c 1
 373 1301 384 1299 395 1295 c 1
1679 269 m 1
 1636 45 l 1
 1571 45 l 2
 1470 45 1368 46 1266 46 c 0
 1215 46 1165 46 1114 45 c 1
 1110 88 l 1
 1223 217 1492 439 1492 620 c 0
 1492 696 1444 761 1364 761 c 0
 1281 761 1202 697 1152 636 c 1
 1109 654 l 1
 1117 675 1128 695 1141 713 c 1
 1142 718 l 1
 1205 794 1290 842 1390 842 c 0
 1524 842 1653 769 1653 621 c 0
 1653 438 1372 262 1253 145 c 1
 1462 145 l 2
 1543 145 1584 152 1615 233 c 0
 1620 247 1625 259 1635 269 c 1
 1679 269 l 1
543 -77 m 1
 525 -81 507 -81 489 -81 c 2
 456 -81 l 1
 475 -24 486 37 515 91 c 2
 1024 1045 l 2
 1085 1159 1145 1336 1253 1410 c 1
 1284 1410 1316 1403 1343 1386 c 1
 1207 1155 1063 927 937 691 c 0
 803 440 709 153 543 -77 c 1
EndSplineSet
EndChar

StartChar: threequarters
Encoding: 190 190 120
Width: 1931
Flags: MW
HStem: -81 21G<556 589 556 556> 47 278<1342 1465 1202 1742 1342 1342> 405 228<116 407.5> 1307 20G<346 444> 1390 20G<1353 1369>
VStem: 477 199 511 165<609.5 729>
LayerCount: 2
Fore
SplineSet
643 -77 m 1xfc
 625 -81 607 -81 589 -81 c 2
 556 -81 l 1
 574 -27 589 42 615 91 c 2
 1124 1045 l 2
 1184 1157 1248 1338 1353 1410 c 1
 1385 1410 1416 1403 1443 1386 c 1
 1365 1254 l 2
 1254 1067 1140 883 1037 691 c 0
 929 488 837 279 740 71 c 0
 716 20 676 -31 643 -77 c 1xfc
1202 325 m 1
 1465 325 l 1
 1465 716 l 1
 1202 325 l 1
1745 251 m 1
 1617 251 l 1
 1617 155 l 2
 1617 97 1703 96 1742 84 c 1
 1742 47 l 1
 1342 47 l 1
 1342 83 l 1
 1383 98 1467 94 1467 155 c 2
 1467 251 l 1
 1116 251 l 1
 1111 319 l 1
 1477 840 l 1
 1523 842 1570 846 1617 846 c 1
 1617 328 l 1
 1727 328 1709 351 1745 386 c 1
 1755 386 1767 384 1774 367 c 1
 1768 329 1754 288 1745 251 c 1
397 950 m 1
 562 950 676 839 676 673 c 0
 676 490 487 405 328 405 c 0
 236 405 59 433 59 554 c 0
 59 596 95 633 137 633 c 0
 171 633 205 601 205 566 c 0
 205 543 190 524 190 504 c 0
 190 465 281 447 310 447 c 0
 439 447 511 549 511 670 c 0xfa
 511 788 457 896 325 896 c 0
 300 896 275 892 251 887 c 1
 217 925 l 1
 220 926 223 928 226 930 c 0
 307 969 477 1051 477 1150 c 0
 477 1221 445 1257 372 1257 c 0
 286 1257 231 1182 155 1182 c 0
 145 1182 142 1192 142 1201 c 0
 142 1205 144 1209 145 1213 c 1
 197 1287 302 1327 390 1327 c 0
 498 1327 595 1268 595 1151 c 0
 595 1038 505 961 397 950 c 1
EndSplineSet
EndChar

StartChar: questiondown
Encoding: 191 191 121
Width: 806
Flags: MW
HStem: -13 233<377 676> 1080 249<460.5 527.5 460.5 528>
VStem: 68 505<250.5 777> 368 249<1171.5 1238 1171.5 1239>
LayerCount: 2
Fore
SplineSet
494 1080 m 0xd0
 426 1080 368 1137 368 1205 c 0
 368 1273 427 1329 494 1329 c 0
 561 1329 617 1271 617 1205 c 0
 617 1138 562 1080 494 1080 c 0xd0
460 958 m 1
 541 958 l 1
 548 885 573 814 573 740 c 0
 573 626 205 560 205 332 c 0
 205 206 322 98 446 98 c 0
 535 98 566 220 654 220 c 0
 698 220 730 178 730 137 c 0
 730 22 579 -13 474 -13 c 0
 280 -13 68 155 68 346 c 0xe0
 68 703 460 667 460 919 c 2
 460 958 l 1
EndSplineSet
EndChar

StartChar: Agrave
Encoding: 192 192 122
Width: 1366
Flags: MW
HStem: 0 21G<-4 467 -4 -4 798 798 798 1380> 1304 20G<594 616.5> 1924 20G<352 383.5>
LayerCount: 2
Fore
SplineSet
313 1816 m 0
 298 1829 292 1845 292 1862 c 0
 292 1902 331 1944 373 1944 c 0
 394 1944 416 1934 434 1910 c 0
 499 1823 638 1636 721 1526 c 0
 728 1516 732 1505 732 1496 c 0
 732 1481 724 1470 709 1470 c 0
 699 1470 685 1476 669 1490 c 0
 600 1551 415 1723 313 1816 c 0
426 620 m 1
 806 620 l 1
 609 1112 l 1
 426 620 l 1
959 213 m 2
 843 532 l 1
 392 532 l 1
 320 338 l 2
 301 286 276 222 276 175 c 0
 276 97 368 78 467 57 c 1
 467 0 l 1
 -4 0 l 1
 -5 52 l 1
 35 85 119 89 155 163 c 0
 171 195 185 231 201 273 c 2
 575 1231 l 1
 584 1287 585 1311 594 1324 c 1
 639 1324 689 1324 750 1277 c 1
 1209 176 l 2
 1248 83 1338 76 1382 52 c 1
 1380 0 l 1
 798 0 l 1
 796 52 l 1
 878 77 964 109 964 180 c 0
 964 190 963 201 959 213 c 2
EndSplineSet
EndChar

StartChar: Aacute
Encoding: 193 193 123
Width: 1366
Flags: MW
HStem: 0 21G<-4 467 -4 -4 798 798 798 1380> 1304 20G<594 616.5> 1924 20G<994.5 1026>
LayerCount: 2
Fore
SplineSet
1065 1816 m 0
 963 1723 778 1551 709 1490 c 0
 693 1476 679 1470 669 1470 c 0
 654 1470 646 1481 646 1496 c 0
 646 1505 650 1516 657 1526 c 0
 740 1636 879 1823 944 1910 c 0
 962 1934 984 1944 1005 1944 c 0
 1047 1944 1086 1902 1086 1862 c 0
 1086 1845 1080 1829 1065 1816 c 0
426 620 m 1
 806 620 l 1
 609 1112 l 1
 426 620 l 1
959 213 m 2
 843 532 l 1
 392 532 l 1
 320 338 l 2
 301 286 276 222 276 175 c 0
 276 97 368 78 467 57 c 1
 467 0 l 1
 -4 0 l 1
 -5 52 l 1
 35 85 119 89 155 163 c 0
 171 195 185 231 201 273 c 2
 575 1231 l 1
 584 1287 585 1311 594 1324 c 1
 639 1324 689 1324 750 1277 c 1
 1209 176 l 2
 1248 83 1338 76 1382 52 c 1
 1380 0 l 1
 798 0 l 1
 796 52 l 1
 878 77 964 109 964 180 c 0
 964 190 963 201 959 213 c 2
EndSplineSet
EndChar

StartChar: Acircumflex
Encoding: 194 194 124
Width: 1366
Flags: MW
HStem: 0 21G<-4 467 -4 -4 798 798 798 1380> 1304 20G<594 616.5> 1953 20G<676.5 701.5>
LayerCount: 2
Fore
SplineSet
689 1752 m 1
 689 1752 497 1546 437 1483 c 0
 428 1474 419 1470 411 1470 c 0
 401 1470 394 1477 394 1487 c 0
 394 1491 395 1495 397 1500 c 0
 470 1641 537 1780 603 1909 c 0
 628 1957 664 1973 689 1973 c 0
 714 1973 749 1957 774 1909 c 0
 840 1780 908 1641 981 1500 c 0
 983 1495 984 1491 984 1487 c 0
 984 1477 977 1470 967 1470 c 0
 959 1470 950 1474 941 1483 c 0
 881 1546 689 1752 689 1752 c 1
426 620 m 1
 806 620 l 1
 609 1112 l 1
 426 620 l 1
959 213 m 2
 843 532 l 1
 392 532 l 1
 320 338 l 2
 301 286 276 222 276 175 c 0
 276 97 368 78 467 57 c 1
 467 0 l 1
 -4 0 l 1
 -5 52 l 1
 35 85 119 89 155 163 c 0
 171 195 185 231 201 273 c 2
 575 1231 l 1
 584 1287 585 1311 594 1324 c 1
 639 1324 689 1324 750 1277 c 1
 1209 176 l 2
 1248 83 1338 76 1382 52 c 1
 1380 0 l 1
 798 0 l 1
 796 52 l 1
 878 77 964 109 964 180 c 0
 964 190 963 201 959 213 c 2
EndSplineSet
EndChar

StartChar: Atilde
Encoding: 195 195 125
Width: 1366
Flags: MW
HStem: 0 21G<-4 467 -4 -4 798 798 798 1380> 1304 20G<594 616.5> 1470 243<503 875>
LayerCount: 2
Fore
SplineSet
429 1480 m 1
 391 1480 l 1
 395 1643 455 1713 551 1713 c 0
 663 1713 783 1603 863 1603 c 0
 906 1603 936 1639 949 1711 c 1
 987 1711 l 1
 984 1553 924 1470 826 1470 c 0
 714 1470 586 1586 508 1586 c 0
 465 1586 440 1543 429 1480 c 1
426 620 m 1
 806 620 l 1
 609 1112 l 1
 426 620 l 1
959 213 m 2
 843 532 l 1
 392 532 l 1
 320 338 l 2
 301 286 276 222 276 175 c 0
 276 97 368 78 467 57 c 1
 467 0 l 1
 -4 0 l 1
 -5 52 l 1
 35 85 119 89 155 163 c 0
 171 195 185 231 201 273 c 2
 575 1231 l 1
 584 1287 585 1311 594 1324 c 1
 639 1324 689 1324 750 1277 c 1
 1209 176 l 2
 1248 83 1338 76 1382 52 c 1
 1380 0 l 1
 798 0 l 1
 796 52 l 1
 878 77 964 109 964 180 c 0
 964 190 963 201 959 213 c 2
EndSplineSet
EndChar

StartChar: Adieresis
Encoding: 196 196 126
Width: 1366
Flags: MW
HStem: 0 21G<-4 467 -4 -4 798 798 798 1380> 1304 20G<594 616.5> 1470 218<438.5 499 878 938.5>
VStem: 360 218<1548.5 1609> 800 218<1548.5 1609>
LayerCount: 2
Fore
SplineSet
469 1688 m 0
 529 1688 578 1639 578 1579 c 0
 578 1518 529 1470 469 1470 c 0
 408 1470 360 1518 360 1579 c 0
 360 1639 408 1688 469 1688 c 0
908 1688 m 0
 969 1688 1018 1639 1018 1579 c 0
 1018 1518 969 1470 908 1470 c 0
 848 1470 800 1518 800 1579 c 0xf8
 800 1639 848 1688 908 1688 c 0
426 620 m 1
 806 620 l 1
 609 1112 l 1
 426 620 l 1
959 213 m 2
 843 532 l 1
 392 532 l 1
 320 338 l 2
 301 286 276 222 276 175 c 0
 276 97 368 78 467 57 c 1
 467 0 l 1
 -4 0 l 1
 -5 52 l 1
 35 85 119 89 155 163 c 0
 171 195 185 231 201 273 c 2
 575 1231 l 1
 584 1287 585 1311 594 1324 c 1
 639 1324 689 1324 750 1277 c 1
 1209 176 l 2
 1248 83 1338 76 1382 52 c 1
 1380 0 l 1
 798 0 l 1
 796 52 l 1
 878 77 964 109 964 180 c 0
 964 190 963 201 959 213 c 2
EndSplineSet
EndChar

StartChar: Aring
Encoding: 197 197 127
Width: 1366
Flags: MW
HStem: 0 21G<-4 467 -4 -4 798 798 798 1380> 1304 20G<594 616.5> 1786 20G<586.5 695.5>
VStem: 522 239<1583 1646.5 1583 1646.5>
LayerCount: 2
Fore
SplineSet
641 1733 m 0
 574 1733 522 1678 522 1615 c 0
 522 1550 574 1496 641 1496 c 0
 708 1496 761 1551 761 1615 c 0
 761 1678 708 1733 641 1733 c 0
641 1806 m 0
 750 1806 836 1718 836 1615 c 0
 836 1511 750 1422 641 1422 c 0
 532 1422 446 1508 446 1615 c 0
 446 1718 532 1806 641 1806 c 0
426 620 m 1
 806 620 l 1
 609 1112 l 1
 426 620 l 1
959 213 m 2
 843 532 l 1
 392 532 l 1
 320 338 l 2
 301 286 276 222 276 175 c 0
 276 97 368 78 467 57 c 1
 467 0 l 1
 -4 0 l 1
 -5 52 l 1
 35 85 119 89 155 163 c 0
 171 195 185 231 201 273 c 2
 575 1231 l 1
 584 1287 585 1311 594 1324 c 1
 639 1324 689 1324 750 1277 c 1
 1209 176 l 2
 1248 83 1338 76 1382 52 c 1
 1380 0 l 1
 798 0 l 1
 796 52 l 1
 878 77 964 109 964 180 c 0
 964 190 963 201 959 213 c 2
EndSplineSet
EndChar

StartChar: AE
Encoding: 198 198 128
Width: 1966
Flags: MW
HStem: -22 21G<1742.5 1766> 0 21G<-47 433 -47 -47 735 1692 735 735> 1303 20G<1603 1615.5> 1304 20G<656 680.5>
LayerCount: 2
Fore
SplineSet
502 685 m 1xe0
 831 685 l 1
 745 1130 l 1
 502 685 l 1xe0
1415 638 m 1
 1060 638 l 1
 1142 256 l 1
 1165 167 1176 93 1233 78 c 0
 1263 70 1297 71 1341 70 c 1
 1471 73 l 1
 1545 73 1599 78 1653 101 c 1
 1750 124 1749 256 1835 325 c 1
 1851 325 1868 324 1889 322 c 1
 1833 -20 l 1
 1805 -21 1778 -22 1754 -22 c 0
 1731 -22 1726 0 1692 0 c 2
 735 0 l 1
 735 16 734 36 736 52 c 1
 825 73 917 102 917 193 c 0
 917 208 912 223 912 241 c 1
 845 609 l 1
 461 609 l 1
 323 358 l 2
 289 297 245 237 245 178 c 0
 245 86 351 83 438 55 c 1
 438 45 436 35 435 25 c 2
 433 0 l 1
 -47 0 l 1
 -47 9 -48 17 -48 25 c 0
 -48 34 -47 43 -46 52 c 1
 7 81 92 98 144 192 c 0
 293 463 443 733 591 1006 c 0
 622 1064 636 1112 636 1148 c 0
 636 1182 624 1207 601 1224 c 1
 631 1283 641 1309 656 1324 c 1xd0
 705 1324 757 1324 808 1305 c 1
 1546 1305 l 2
 1572 1305 1582 1311 1603 1323 c 1
 1628 1323 1653 1322 1685 1320 c 1
 1741 997 l 1
 1724 996 1707 995 1690 995 c 1
 1608 1048 1595 1183 1508 1207 c 1
 1420 1226 1332 1231 1224 1231 c 2
 1124 1231 l 2
 1049 1231 986 1226 928 1209 c 1
 963 1046 1006 881 1045 719 c 1
 1308 719 l 2
 1362 719 1410 722 1452 729 c 1
 1515 744 1525 835 1540 893 c 1
 1556 893 1573 892 1594 891 c 1
 1689 466 l 1
 1669 465 1650 464 1631 464 c 1
 1565 548 1497 636 1415 638 c 1
EndSplineSet
EndChar

StartChar: Ccedilla
Encoding: 199 199 129
Width: 1438
Flags: MW
HStem: -447 21G<693.5 778> -398 20G<662 704.5> -26 21G<608.5 885> -11 21G<679 762 762 762> 1307 20G<632.5 929.5>
VStem: 110 234<497.5 831> 784 163<-316.5 -253>
LayerCount: 2
Fore
SplineSet
762 -11 m 1xde
 762 -11 779 -84 786 -116 c 1
 899 -132 947 -199 947 -268 c 0
 947 -379 840 -447 716 -447 c 0
 671 -447 631 -437 580 -415 c 1
 593 -358 l 1
 621 -372 649 -378 675 -378 c 0
 734 -378 784 -343 784 -290 c 0
 784 -216 715 -190 632 -186 c 1
 679 -11 l 1
 762 -11 l 1xde
1278 1245 m 1
 1319 943 l 1
 1272 941 l 1
 1233 980 1196 1075 1154 1117 c 0
 1062 1209 950 1250 834 1250 c 0
 579 1250 344 1048 344 680 c 0
 344 315 553 81 876 81 c 0
 1054 81 1202 155 1281 304 c 1
 1330 297 l 1
 1321 108 l 1
 1174 26 966 -26 804 -26 c 0xee
 413 -26 110 225 110 640 c 0
 110 1022 403 1327 862 1327 c 0
 997 1327 1134 1301 1278 1245 c 1
EndSplineSet
EndChar

StartChar: Egrave
Encoding: 200 200 130
Width: 1360
Flags: MW
HStem: -12 21G<1181 1205.5> 0 21G<59 1085 59 59> 1292 20G<1168.5 1193.5> 1924 20G<341 372.5>
VStem: 270 215<267 304 304 641 717 1024 1024 1045>
LayerCount: 2
Fore
SplineSet
302 1816 m 0x78
 287 1829 281 1845 281 1862 c 0
 281 1902 320 1944 362 1944 c 0
 383 1944 405 1934 423 1910 c 0
 488 1823 627 1636 710 1526 c 0
 717 1516 721 1505 721 1496 c 0
 721 1481 713 1470 698 1470 c 0
 688 1470 674 1476 658 1490 c 0
 589 1551 404 1723 302 1816 c 0x78
1235 344 m 1
 1298 342 l 1
 1232 -9 l 1
 1222 -11 1211 -12 1200 -12 c 0xb8
 1162 -12 1123 0 1085 0 c 2
 59 0 l 1
 57 49 l 1
 118 83 237 63 258 151 c 0
 266 184 270 223 270 267 c 2
 270 1024 l 2
 270 1066 266 1102 259 1137 c 0
 242 1216 120 1226 57 1251 c 1
 59 1302 l 1
 1079 1302 l 2
 1112 1302 1150 1312 1187 1312 c 0
 1200 1312 1212 1311 1224 1308 c 1
 1224 997 l 1
 1172 995 l 1
 1118 1047 1111 1182 1022 1207 c 0
 912 1237 762 1235 622 1235 c 0
 572 1235 523 1233 489 1226 c 1
 486 1195 485 1161 485 1123 c 2
 485 717 l 1
 773 717 l 2
 957 717 958 763 1026 893 c 1
 1083 891 l 1
 1083 462 l 1
 1026 459 l 1
 993 548 943 641 812 641 c 2
 485 641 l 1
 485 304 l 2
 485 165 512 74 637 74 c 1
 818 77 l 2
 979 80 1098 76 1164 215 c 0
 1186 262 1210 316 1235 344 c 1
EndSplineSet
EndChar

StartChar: Eacute
Encoding: 201 201 131
Width: 1360
Flags: MW
HStem: -12 21G<1181 1205.5> 0 21G<59 1085 59 59> 1292 20G<1168.5 1193.5> 1924 20G<983.5 1015>
VStem: 270 215<267 304 304 641 717 1024 1024 1045>
LayerCount: 2
Fore
SplineSet
1054 1816 m 0x78
 952 1723 767 1551 698 1490 c 0
 682 1476 668 1470 658 1470 c 0
 643 1470 635 1481 635 1496 c 0
 635 1505 639 1516 646 1526 c 0
 729 1636 868 1823 933 1910 c 0
 951 1934 973 1944 994 1944 c 0
 1036 1944 1075 1902 1075 1862 c 0
 1075 1845 1069 1829 1054 1816 c 0x78
1235 344 m 1
 1298 342 l 1
 1232 -9 l 1
 1222 -11 1211 -12 1200 -12 c 0xb8
 1162 -12 1123 0 1085 0 c 2
 59 0 l 1
 57 49 l 1
 118 83 237 63 258 151 c 0
 266 184 270 223 270 267 c 2
 270 1024 l 2
 270 1066 266 1102 259 1137 c 0
 242 1216 120 1226 57 1251 c 1
 59 1302 l 1
 1079 1302 l 2
 1112 1302 1150 1312 1187 1312 c 0
 1200 1312 1212 1311 1224 1308 c 1
 1224 997 l 1
 1172 995 l 1
 1118 1047 1111 1182 1022 1207 c 0
 912 1237 762 1235 622 1235 c 0
 572 1235 523 1233 489 1226 c 1
 486 1195 485 1161 485 1123 c 2
 485 717 l 1
 773 717 l 2
 957 717 958 763 1026 893 c 1
 1083 891 l 1
 1083 462 l 1
 1026 459 l 1
 993 548 943 641 812 641 c 2
 485 641 l 1
 485 304 l 2
 485 165 512 74 637 74 c 1
 818 77 l 2
 979 80 1098 76 1164 215 c 0
 1186 262 1210 316 1235 344 c 1
EndSplineSet
EndChar

StartChar: Ecircumflex
Encoding: 202 202 132
Width: 1360
Flags: MW
HStem: -12 21G<1181 1205.5> 0 21G<59 1085 59 59> 1292 20G<1168.5 1193.5> 1953 20G<665.5 690.5>
VStem: 270 215<267 304 304 641 717 1024 1024 1045>
LayerCount: 2
Fore
SplineSet
678 1752 m 1x78
 678 1752 486 1546 426 1483 c 0
 417 1474 408 1470 400 1470 c 0
 390 1470 383 1477 383 1487 c 0
 383 1491 384 1495 386 1500 c 0
 459 1641 526 1780 592 1909 c 0
 617 1957 653 1973 678 1973 c 0
 703 1973 738 1957 763 1909 c 0
 829 1780 897 1641 970 1500 c 0
 972 1495 973 1491 973 1487 c 0
 973 1477 966 1470 956 1470 c 0
 948 1470 939 1474 930 1483 c 0
 870 1546 678 1752 678 1752 c 1x78
1235 344 m 1
 1298 342 l 1
 1232 -9 l 1
 1222 -11 1211 -12 1200 -12 c 0xb8
 1162 -12 1123 0 1085 0 c 2
 59 0 l 1
 57 49 l 1
 118 83 237 63 258 151 c 0
 266 184 270 223 270 267 c 2
 270 1024 l 2
 270 1066 266 1102 259 1137 c 0
 242 1216 120 1226 57 1251 c 1
 59 1302 l 1
 1079 1302 l 2
 1112 1302 1150 1312 1187 1312 c 0
 1200 1312 1212 1311 1224 1308 c 1
 1224 997 l 1
 1172 995 l 1
 1118 1047 1111 1182 1022 1207 c 0
 912 1237 762 1235 622 1235 c 0
 572 1235 523 1233 489 1226 c 1
 486 1195 485 1161 485 1123 c 2
 485 717 l 1
 773 717 l 2
 957 717 958 763 1026 893 c 1
 1083 891 l 1
 1083 462 l 1
 1026 459 l 1
 993 548 943 641 812 641 c 2
 485 641 l 1
 485 304 l 2
 485 165 512 74 637 74 c 1
 818 77 l 2
 979 80 1098 76 1164 215 c 0
 1186 262 1210 316 1235 344 c 1
EndSplineSet
EndChar

StartChar: Edieresis
Encoding: 203 203 133
Width: 1360
Flags: MW
HStem: -12 21G<1181 1205.5> 0 21G<59 1085 59 59> 1292 20G<1168.5 1193.5> 1470 218<427.5 488 867 927.5>
VStem: 270 215<267 304 304 641 717 1024 1024 1045> 349 218<1548.5 1609> 789 218<1548.5 1609>
LayerCount: 2
Fore
SplineSet
458 1688 m 0x76
 518 1688 567 1639 567 1579 c 0
 567 1518 518 1470 458 1470 c 0
 397 1470 349 1518 349 1579 c 0
 349 1639 397 1688 458 1688 c 0x76
897 1688 m 0
 958 1688 1007 1639 1007 1579 c 0
 1007 1518 958 1470 897 1470 c 0
 837 1470 789 1518 789 1579 c 0
 789 1639 837 1688 897 1688 c 0
1235 344 m 1
 1298 342 l 1
 1232 -9 l 1
 1222 -11 1211 -12 1200 -12 c 0xba
 1162 -12 1123 0 1085 0 c 2
 59 0 l 1
 57 49 l 1
 118 83 237 63 258 151 c 0
 266 184 270 223 270 267 c 2
 270 1024 l 2
 270 1066 266 1102 259 1137 c 0
 242 1216 120 1226 57 1251 c 1
 59 1302 l 1
 1079 1302 l 2
 1112 1302 1150 1312 1187 1312 c 0
 1200 1312 1212 1311 1224 1308 c 1
 1224 997 l 1
 1172 995 l 1
 1118 1047 1111 1182 1022 1207 c 0
 912 1237 762 1235 622 1235 c 0
 572 1235 523 1233 489 1226 c 1
 486 1195 485 1161 485 1123 c 2
 485 717 l 1
 773 717 l 2
 957 717 958 763 1026 893 c 1
 1083 891 l 1
 1083 462 l 1
 1026 459 l 1
 993 548 943 641 812 641 c 2
 485 641 l 1
 485 304 l 2x7a
 485 165 512 74 637 74 c 1
 818 77 l 2
 979 80 1098 76 1164 215 c 0
 1186 262 1210 316 1235 344 c 1
EndSplineSet
EndChar

StartChar: Igrave
Encoding: 204 204 134
Width: 766
Flags: MW
HStem: 0 21G<54 718 54 54> 1924 20G<48 79.5>
VStem: 275 215<278 1030 1030 1059>
LayerCount: 2
Fore
SplineSet
9 1816 m 0
 -6 1829 -12 1845 -12 1862 c 0
 -12 1902 27 1944 69 1944 c 0
 90 1944 112 1934 130 1910 c 0
 195 1823 334 1636 417 1526 c 0
 424 1516 428 1505 428 1496 c 0
 428 1481 420 1470 405 1470 c 0
 395 1470 381 1476 365 1490 c 0
 296 1551 111 1723 9 1816 c 0
490 1081 m 2
 490 260 l 2
 490 226 492 195 496 166 c 0
 509 73 646 80 720 53 c 1
 720 37 718 0 718 0 c 1
 54 0 l 1
 54 0 53 36 53 52 c 1
 107 77 234 64 253 132 c 1
 271 169 275 216 275 278 c 2
 275 1030 l 2
 275 1088 268 1134 249 1169 c 1
 229 1235 99 1221 49 1251 c 1
 49 1266 51 1302 51 1302 c 1
 714 1302 l 1
 714 1302 716 1267 716 1250 c 1
 630 1220 490 1219 490 1081 c 2
EndSplineSet
EndChar

StartChar: Iacute
Encoding: 205 205 135
Width: 766
Flags: MW
HStem: 0 21G<54 718 54 54> 1924 20G<690.5 722>
VStem: 275 215<278 1030 1030 1059>
LayerCount: 2
Fore
SplineSet
761 1816 m 0
 659 1723 474 1551 405 1490 c 0
 389 1476 375 1470 365 1470 c 0
 350 1470 342 1481 342 1496 c 0
 342 1505 346 1516 353 1526 c 0
 436 1636 575 1823 640 1910 c 0
 658 1934 680 1944 701 1944 c 0
 743 1944 782 1902 782 1862 c 0
 782 1845 776 1829 761 1816 c 0
490 1081 m 2
 490 260 l 2
 490 226 492 195 496 166 c 0
 509 73 646 80 720 53 c 1
 720 37 718 0 718 0 c 1
 54 0 l 1
 54 0 53 36 53 52 c 1
 107 77 234 64 253 132 c 1
 271 169 275 216 275 278 c 2
 275 1030 l 2
 275 1088 268 1134 249 1169 c 1
 229 1235 99 1221 49 1251 c 1
 49 1266 51 1302 51 1302 c 1
 714 1302 l 1
 714 1302 716 1267 716 1250 c 1
 630 1220 490 1219 490 1081 c 2
EndSplineSet
EndChar

StartChar: Icircumflex
Encoding: 206 206 136
Width: 766
Flags: MW
HStem: 0 21G<54 718 54 54> 1953 20G<372.5 397.5>
VStem: 275 215<278 1030 1030 1059>
LayerCount: 2
Fore
SplineSet
385 1752 m 1
 385 1752 193 1546 133 1483 c 0
 124 1474 115 1470 107 1470 c 0
 97 1470 90 1477 90 1487 c 0
 90 1491 91 1495 93 1500 c 0
 166 1641 233 1780 299 1909 c 0
 324 1957 360 1973 385 1973 c 0
 410 1973 445 1957 470 1909 c 0
 536 1780 604 1641 677 1500 c 0
 679 1495 680 1491 680 1487 c 0
 680 1477 673 1470 663 1470 c 0
 655 1470 646 1474 637 1483 c 0
 577 1546 385 1752 385 1752 c 1
490 1081 m 2
 490 260 l 2
 490 226 492 195 496 166 c 0
 509 73 646 80 720 53 c 1
 720 37 718 0 718 0 c 1
 54 0 l 1
 54 0 53 36 53 52 c 1
 107 77 234 64 253 132 c 1
 271 169 275 216 275 278 c 2
 275 1030 l 2
 275 1088 268 1134 249 1169 c 1
 229 1235 99 1221 49 1251 c 1
 49 1266 51 1302 51 1302 c 1
 714 1302 l 1
 714 1302 716 1267 716 1250 c 1
 630 1220 490 1219 490 1081 c 2
EndSplineSet
EndChar

StartChar: Idieresis
Encoding: 207 207 137
Width: 766
Flags: MW
HStem: 0 21G<54 718 54 54> 1470 218<134.5 195 574 634.5>
VStem: 56 218<1548.5 1609> 275 215<278 1030 1030 1059> 496 218<1548.5 1609>
LayerCount: 2
Fore
SplineSet
165 1688 m 0
 225 1688 274 1639 274 1579 c 0
 274 1518 225 1470 165 1470 c 0
 104 1470 56 1518 56 1579 c 0
 56 1639 104 1688 165 1688 c 0
604 1688 m 0
 665 1688 714 1639 714 1579 c 0
 714 1518 665 1470 604 1470 c 0
 544 1470 496 1518 496 1579 c 0
 496 1639 544 1688 604 1688 c 0
490 1081 m 2
 490 260 l 2
 490 226 492 195 496 166 c 0
 509 73 646 80 720 53 c 1
 720 37 718 0 718 0 c 1
 54 0 l 1
 54 0 53 36 53 52 c 1
 107 77 234 64 253 132 c 1
 271 169 275 216 275 278 c 2
 275 1030 l 2
 275 1088 268 1134 249 1169 c 1
 229 1235 99 1221 49 1251 c 1
 49 1266 51 1302 51 1302 c 1
 714 1302 l 1
 714 1302 716 1267 716 1250 c 1
 630 1220 490 1219 490 1081 c 2
EndSplineSet
EndChar

StartChar: Eth
Encoding: 208 208 138
Width: 1595
Flags: MW
HStem: 0 21G<60 779 60 60> 1282 20G<60 652 652 817>
VStem: 282 215<219 271 271 1010 1010 1031.5> 1264 238<489.5 739 489.5 781.5>
LayerCount: 2
Fore
SplineSet
665 1225 m 2
 497 1225 l 1
 497 271 l 2
 497 166 530 85 645 80 c 0
 682 78 723 77 760 77 c 0
 1106 77 1264 352 1264 609 c 0
 1264 954 1084 1225 665 1225 c 2
282 219 m 2
 282 1010 l 2
 282 1053 278 1094 272 1131 c 0
 257 1212 132 1226 58 1251 c 1
 58 1266 59 1283 60 1302 c 1
 652 1302 l 2
 982 1302 1180 1253 1334 1087 c 1
 1456 959 1502 820 1502 658 c 0
 1502 321 1257 0 779 0 c 2
 60 0 l 1
 59 18 58 35 58 52 c 1
 155 81 282 81 282 219 c 2
691 580 m 1
 89 580 l 1
 89 708 l 1
 691 708 l 1
 691 580 l 1
EndSplineSet
EndChar

StartChar: Ntilde
Encoding: 209 209 139
Width: 1661
Flags: MW
HStem: -16 21G<1370.5 1390.5> 0 21G<47 611 47 47> 1470 243<643 1015>
LayerCount: 2
Fore
SplineSet
569 1480 m 1x60
 531 1480 l 1
 535 1643 595 1713 691 1713 c 0
 803 1713 923 1603 1003 1603 c 0
 1046 1603 1076 1639 1089 1711 c 1
 1127 1711 l 1
 1124 1553 1064 1470 966 1470 c 0
 854 1470 726 1586 648 1586 c 0
 605 1586 580 1543 569 1480 c 1x60
279 239 m 1
 290 1091 l 1
 215 1214 112 1218 34 1250 c 1
 35 1302 l 1
 384 1302 l 1
 1331 329 l 1
 1325 958 l 2
 1324 1020 1319 1082 1298 1131 c 1
 1278 1222 1152 1219 1093 1249 c 1
 1093 1265 1094 1281 1096 1302 c 1
 1622 1302 l 1
 1623 1285 1623 1267 1623 1248 c 1
 1564 1221 1445 1209 1427 1101 c 1
 1418 1059 1412 1011 1412 959 c 2
 1407 353 l 1
 1407 187 1427 114 1430 -9 c 1
 1417 -14 1400 -16 1381 -16 c 0xa0
 1360 -16 1341 -14 1324 -9 c 1
 1264 65 1210 126 1160 178 c 2
 360 1009 l 1
 370 307 l 2
 371 256 377 211 387 172 c 1
 408 69 550 86 614 53 c 1
 614 37 613 20 611 0 c 1
 47 0 l 1
 45 17 45 35 45 54 c 1
 148 83 279 91 279 239 c 1
EndSplineSet
EndChar

StartChar: Ograve
Encoding: 210 210 140
Width: 1580
Flags: MW
HStem: -26 21G<596.5 962.5> 1307 20G<619 978> 1924 20G<452 483.5>
VStem: 99 233<530 866> 1245 233<444 771.5>
LayerCount: 2
Fore
SplineSet
413 1816 m 0
 398 1829 392 1845 392 1862 c 0
 392 1902 431 1944 473 1944 c 0
 494 1944 516 1934 534 1910 c 0
 599 1823 738 1636 821 1526 c 0
 828 1516 832 1505 832 1496 c 0
 832 1481 824 1470 809 1470 c 0
 799 1470 785 1476 769 1490 c 0
 700 1551 515 1723 413 1816 c 0
332 720 m 0
 332 340 537 51 824 51 c 0
 1063 51 1245 248 1245 585 c 0
 1245 958 1047 1250 756 1250 c 0
 528 1250 332 1071 332 720 c 0
99 637 m 0
 99 1095 447 1327 791 1327 c 0
 1165 1327 1478 1063 1478 648 c 0
 1478 240 1154 -26 771 -26 c 0
 422 -26 99 224 99 637 c 0
EndSplineSet
EndChar

StartChar: Oacute
Encoding: 211 211 141
Width: 1580
Flags: MW
HStem: -26 21G<596.5 962.5> 1307 20G<619 978> 1924 20G<1094.5 1126>
VStem: 99 233<530 866> 1245 233<444 771.5>
LayerCount: 2
Fore
SplineSet
1165 1816 m 0
 1063 1723 878 1551 809 1490 c 0
 793 1476 779 1470 769 1470 c 0
 754 1470 746 1481 746 1496 c 0
 746 1505 750 1516 757 1526 c 0
 840 1636 979 1823 1044 1910 c 0
 1062 1934 1084 1944 1105 1944 c 0
 1147 1944 1186 1902 1186 1862 c 0
 1186 1845 1180 1829 1165 1816 c 0
332 720 m 0
 332 340 537 51 824 51 c 0
 1063 51 1245 248 1245 585 c 0
 1245 958 1047 1250 756 1250 c 0
 528 1250 332 1071 332 720 c 0
99 637 m 0
 99 1095 447 1327 791 1327 c 0
 1165 1327 1478 1063 1478 648 c 0
 1478 240 1154 -26 771 -26 c 0
 422 -26 99 224 99 637 c 0
EndSplineSet
EndChar

StartChar: Ocircumflex
Encoding: 212 212 142
Width: 1580
Flags: MW
HStem: -26 21G<597.5 963.5> 1307 20G<620 979> 1953 20G<779.5 804.5>
VStem: 100 233<530 866> 1246 233<444 771.5>
LayerCount: 2
Fore
SplineSet
792 1752 m 1
 792 1752 600 1546 540 1483 c 0
 531 1474 522 1470 514 1470 c 0
 504 1470 497 1477 497 1487 c 0
 497 1491 498 1495 500 1500 c 0
 573 1641 640 1780 706 1909 c 0
 731 1957 767 1973 792 1973 c 0
 817 1973 852 1957 877 1909 c 0
 943 1780 1011 1641 1084 1500 c 0
 1086 1495 1087 1491 1087 1487 c 0
 1087 1477 1080 1470 1070 1470 c 0
 1062 1470 1053 1474 1044 1483 c 0
 984 1546 792 1752 792 1752 c 1
333 720 m 0
 333 340 538 51 825 51 c 0
 1064 51 1246 248 1246 585 c 0
 1246 958 1048 1250 757 1250 c 0
 529 1250 333 1071 333 720 c 0
100 637 m 0
 100 1095 448 1327 792 1327 c 0
 1166 1327 1479 1063 1479 648 c 0
 1479 240 1155 -26 772 -26 c 0
 423 -26 100 224 100 637 c 0
EndSplineSet
EndChar

StartChar: Otilde
Encoding: 213 213 143
Width: 1580
Flags: MW
HStem: -26 21G<597.5 963.5> 1250 353<643 987.5> 1307 20G<620 979> 1470 243<606 978>
VStem: 100 233<530 866> 1246 233<444 771.5>
LayerCount: 2
Fore
SplineSet
532 1480 m 1xbc
 494 1480 l 1
 498 1643 558 1713 654 1713 c 0xbc
 766 1713 886 1603 966 1603 c 0xcc
 1009 1603 1039 1639 1052 1711 c 1
 1090 1711 l 1
 1087 1553 1027 1470 929 1470 c 0
 817 1470 689 1586 611 1586 c 0
 568 1586 543 1543 532 1480 c 1xbc
333 720 m 0
 333 340 538 51 825 51 c 0
 1064 51 1246 248 1246 585 c 0
 1246 958 1048 1250 757 1250 c 0xcc
 529 1250 333 1071 333 720 c 0
100 637 m 0
 100 1095 448 1327 792 1327 c 0xbc
 1166 1327 1479 1063 1479 648 c 0
 1479 240 1155 -26 772 -26 c 0
 423 -26 100 224 100 637 c 0
EndSplineSet
EndChar

StartChar: Odieresis
Encoding: 214 214 144
Width: 1580
Flags: MW
HStem: -26 21G<597.5 963.5> 1307 20G<620 979> 1470 218<541.5 602 981 1041.5>
VStem: 100 233<530 866> 463 218<1548.5 1609> 903 218<1548.5 1609> 1246 233<444 771.5>
LayerCount: 2
Fore
SplineSet
572 1688 m 0
 632 1688 681 1639 681 1579 c 0
 681 1518 632 1470 572 1470 c 0
 511 1470 463 1518 463 1579 c 0
 463 1639 511 1688 572 1688 c 0
1011 1688 m 0
 1072 1688 1121 1639 1121 1579 c 0
 1121 1518 1072 1470 1011 1470 c 0
 951 1470 903 1518 903 1579 c 0
 903 1639 951 1688 1011 1688 c 0
333 720 m 0
 333 340 538 51 825 51 c 0
 1064 51 1246 248 1246 585 c 0
 1246 958 1048 1250 757 1250 c 0
 529 1250 333 1071 333 720 c 0
100 637 m 0
 100 1095 448 1327 792 1327 c 0
 1166 1327 1479 1063 1479 648 c 0
 1479 240 1155 -26 772 -26 c 0
 423 -26 100 224 100 637 c 0
EndSplineSet
EndChar

StartChar: multiply
Encoding: 215 215 145
Width: 1098
Flags: MW
HStem: 211 21G 1003 20G
LayerCount: 2
Fore
SplineSet
141 932 m 1
 162 961 205 1002 234 1023 c 1
 324 947 446 820 549 717 c 1
 651 820 773 947 864 1023 c 1
 893 1002 935 961 957 932 c 1
 938 908 914 884 883 853 c 2
 648 618 l 1
 751 515 880 391 956 303 c 1
 935 274 893 232 864 211 c 1
 839 230 814 253 784 284 c 2
 549 519 l 1
 315 285 l 2
 284 254 259 231 235 212 c 1
 206 233 164 275 143 304 c 1
 162 328 186 354 215 383 c 2
 450 618 l 1
 215 853 l 2
 184 884 160 908 141 932 c 1
EndSplineSet
EndChar

StartChar: Oslash
Encoding: 216 216 146
Width: 1579
Flags: MW
HStem: -136 21G -26 21G 1307 20G<605 854.5> 1393 20G
VStem: 101 233<627.5 850.5> 1247 233<443.5 677>
LayerCount: 2
Fore
SplineSet
1117 1046 m 1
 947 807 759 522 558 171 c 1
 630 93 723 51 826 51 c 0
 1065 51 1247 248 1247 586 c 0
 1247 768 1197 931 1117 1046 c 1
479 247 m 1
 1045 1127 l 1
 969 1205 867 1250 758 1250 c 0
 528 1250 334 1059 334 723 c 0
 334 532 392 357 479 247 c 1
1122 1241 m 1
 1167 1320 1175 1383 1256 1413 c 1
 1294 1402 1310 1379 1323 1356 c 1
 1298 1314 1271 1277 1216 1189 c 1
 1377 1068 1480 880 1480 648 c 0
 1480 239 1155 -26 772 -26 c 0
 662 -26 562 0 478 57 c 1
 430 -31 396 -104 330 -136 c 1
 306 -125 283 -100 271 -71 c 1
 284 -50 299 -27 315 -5 c 1
 382 105 l 1
 206 223 101 394 101 641 c 0
 101 1060 416 1327 794 1327 c 0
 915 1327 1023 1300 1122 1241 c 1
EndSplineSet
EndChar

StartChar: Ugrave
Encoding: 217 217 147
Width: 1639
Flags: MW
HStem: -26 21G<650 962> 1924 20G<488 519.5>
VStem: 243 215<569 596 596 1023>
LayerCount: 2
Fore
SplineSet
449 1816 m 0
 434 1829 428 1845 428 1862 c 0
 428 1902 467 1944 509 1944 c 0
 530 1944 552 1934 570 1910 c 0
 635 1823 774 1636 857 1526 c 0
 864 1516 868 1505 868 1496 c 0
 868 1481 860 1470 845 1470 c 0
 835 1470 821 1476 805 1490 c 0
 736 1551 551 1723 449 1816 c 0
28 1302 m 1
 688 1302 l 1
 689 1283 690 1266 690 1250 c 1
 622 1225 487 1228 470 1145 c 0
 462 1110 458 1070 458 1023 c 2
 458 596 l 2
 458 542 461 491 466 441 c 0
 489 214 656 82 887 82 c 0
 1091 82 1287 198 1309 475 c 0
 1313 520 1316 565 1316 613 c 2
 1316 1006 l 2
 1316 1052 1312 1095 1305 1134 c 0
 1288 1221 1156 1225 1082 1251 c 1
 1082 1266 1082 1283 1083 1302 c 1
 1622 1302 l 1
 1623 1283 1624 1266 1624 1250 c 1
 1575 1223 1435 1234 1414 1150 c 0
 1404 1113 1398 1071 1398 1022 c 2
 1398 609 l 2
 1398 559 1396 510 1391 463 c 1
 1364 106 1104 -26 820 -26 c 0
 480 -26 276 152 250 401 c 0
 246 447 243 494 243 542 c 2
 243 1024 l 2
 243 1065 240 1104 233 1139 c 0
 218 1216 94 1226 25 1251 c 1
 25 1267 26 1283 28 1302 c 1
EndSplineSet
EndChar

StartChar: Uacute
Encoding: 218 218 148
Width: 1639
Flags: MW
HStem: -26 21G<650 962> 1924 20G<1130.5 1162>
VStem: 243 215<569 596 596 1023>
LayerCount: 2
Fore
SplineSet
1201 1816 m 0
 1099 1723 914 1551 845 1490 c 0
 829 1476 815 1470 805 1470 c 0
 790 1470 782 1481 782 1496 c 0
 782 1505 786 1516 793 1526 c 0
 876 1636 1015 1823 1080 1910 c 0
 1098 1934 1120 1944 1141 1944 c 0
 1183 1944 1222 1902 1222 1862 c 0
 1222 1845 1216 1829 1201 1816 c 0
28 1302 m 1
 688 1302 l 1
 689 1283 690 1266 690 1250 c 1
 622 1225 487 1228 470 1145 c 0
 462 1110 458 1070 458 1023 c 2
 458 596 l 2
 458 542 461 491 466 441 c 0
 489 214 656 82 887 82 c 0
 1091 82 1287 198 1309 475 c 0
 1313 520 1316 565 1316 613 c 2
 1316 1006 l 2
 1316 1052 1312 1095 1305 1134 c 0
 1288 1221 1156 1225 1082 1251 c 1
 1082 1266 1082 1283 1083 1302 c 1
 1622 1302 l 1
 1623 1283 1624 1266 1624 1250 c 1
 1575 1223 1435 1234 1414 1150 c 0
 1404 1113 1398 1071 1398 1022 c 2
 1398 609 l 2
 1398 559 1396 510 1391 463 c 1
 1364 106 1104 -26 820 -26 c 0
 480 -26 276 152 250 401 c 0
 246 447 243 494 243 542 c 2
 243 1024 l 2
 243 1065 240 1104 233 1139 c 0
 218 1216 94 1226 25 1251 c 1
 25 1267 26 1283 28 1302 c 1
EndSplineSet
EndChar

StartChar: Ucircumflex
Encoding: 219 219 149
Width: 1639
Flags: MW
HStem: -26 21G<650 962> 1953 20G<812.5 837.5>
VStem: 243 215<569 596 596 1023>
LayerCount: 2
Fore
SplineSet
825 1752 m 1
 825 1752 633 1546 573 1483 c 0
 564 1474 555 1470 547 1470 c 0
 537 1470 530 1477 530 1487 c 0
 530 1491 531 1495 533 1500 c 0
 606 1641 673 1780 739 1909 c 0
 764 1957 800 1973 825 1973 c 0
 850 1973 885 1957 910 1909 c 0
 976 1780 1044 1641 1117 1500 c 0
 1119 1495 1120 1491 1120 1487 c 0
 1120 1477 1113 1470 1103 1470 c 0
 1095 1470 1086 1474 1077 1483 c 0
 1017 1546 825 1752 825 1752 c 1
28 1302 m 1
 688 1302 l 1
 689 1283 690 1266 690 1250 c 1
 622 1225 487 1228 470 1145 c 0
 462 1110 458 1070 458 1023 c 2
 458 596 l 2
 458 542 461 491 466 441 c 0
 489 214 656 82 887 82 c 0
 1091 82 1287 198 1309 475 c 0
 1313 520 1316 565 1316 613 c 2
 1316 1006 l 2
 1316 1052 1312 1095 1305 1134 c 0
 1288 1221 1156 1225 1082 1251 c 1
 1082 1266 1082 1283 1083 1302 c 1
 1622 1302 l 1
 1623 1283 1624 1266 1624 1250 c 1
 1575 1223 1435 1234 1414 1150 c 0
 1404 1113 1398 1071 1398 1022 c 2
 1398 609 l 2
 1398 559 1396 510 1391 463 c 1
 1364 106 1104 -26 820 -26 c 0
 480 -26 276 152 250 401 c 0
 246 447 243 494 243 542 c 2
 243 1024 l 2
 243 1065 240 1104 233 1139 c 0
 218 1216 94 1226 25 1251 c 1
 25 1267 26 1283 28 1302 c 1
EndSplineSet
EndChar

StartChar: Udieresis
Encoding: 220 220 150
Width: 1639
Flags: MW
HStem: -26 21G<651 963> 1470 218<575.5 636 1015 1075.5>
VStem: 244 215<569 596 596 1023> 497 218<1548.5 1609> 937 218<1548.5 1609>
LayerCount: 2
Fore
SplineSet
606 1688 m 0
 666 1688 715 1639 715 1579 c 0
 715 1518 666 1470 606 1470 c 0
 545 1470 497 1518 497 1579 c 0
 497 1639 545 1688 606 1688 c 0
1045 1688 m 0
 1106 1688 1155 1639 1155 1579 c 0
 1155 1518 1106 1470 1045 1470 c 0
 985 1470 937 1518 937 1579 c 0
 937 1639 985 1688 1045 1688 c 0
29 1302 m 1
 689 1302 l 1
 690 1283 691 1266 691 1250 c 1
 623 1225 488 1228 471 1145 c 0
 463 1110 459 1070 459 1023 c 2
 459 596 l 2
 459 542 462 491 467 441 c 0
 490 214 657 82 888 82 c 0
 1092 82 1288 198 1310 475 c 0
 1314 520 1317 565 1317 613 c 2
 1317 1006 l 2
 1317 1052 1313 1095 1306 1134 c 0
 1289 1221 1157 1225 1083 1251 c 1
 1083 1266 1083 1283 1084 1302 c 1
 1623 1302 l 1
 1624 1283 1625 1266 1625 1250 c 1
 1576 1223 1436 1234 1415 1150 c 0
 1405 1113 1399 1071 1399 1022 c 2
 1399 609 l 2
 1399 559 1397 510 1392 463 c 1
 1365 106 1105 -26 821 -26 c 0
 481 -26 277 152 251 401 c 0
 247 447 244 494 244 542 c 2
 244 1024 l 2
 244 1065 241 1104 234 1139 c 0
 219 1216 95 1226 26 1251 c 1
 26 1267 27 1283 29 1302 c 1
EndSplineSet
EndChar

StartChar: Yacute
Encoding: 221 221 151
Width: 1330
Flags: MW
HStem: 0 21G<344 990 344 344> 1924 20G<974.5 1006>
VStem: 560 215<254 562 562 562>
LayerCount: 2
Fore
SplineSet
1045 1816 m 0
 943 1723 758 1551 689 1490 c 0
 673 1476 659 1470 649 1470 c 0
 634 1470 626 1481 626 1496 c 0
 626 1505 630 1516 637 1526 c 0
 720 1636 859 1823 924 1910 c 0
 942 1934 964 1944 985 1944 c 0
 1027 1944 1066 1902 1066 1862 c 0
 1066 1845 1060 1829 1045 1816 c 0
1103 1086 m 1
 775 583 l 1
 775 246 l 2
 775 208 780 175 789 146 c 1
 806 69 941 76 992 52 c 1
 992 36 990 0 990 0 c 1
 344 0 l 1
 344 0 342 35 342 52 c 1
 393 81 528 65 546 148 c 1
 555 178 560 214 560 254 c 2
 560 562 l 1
 195 1134 l 2
 160 1188 46 1240 -3 1251 c 1
 -3 1266 -3 1283 -2 1302 c 1
 618 1302 l 1
 619 1285 620 1267 620 1250 c 1
 542 1236 459 1201 459 1142 c 1
 458 1131 464 1108 471 1097 c 2
 744 667 l 1
 953 1006 l 1
 983 1052 1004 1102 1004 1140 c 0
 1004 1205 923 1220 839 1246 c 1
 837 1254 837 1263 837 1273 c 0
 837 1281 837 1291 839 1302 c 1
 1339 1302 l 1
 1340 1285 1341 1267 1341 1250 c 1
 1293 1230 1180 1201 1103 1086 c 1
EndSplineSet
EndChar

StartChar: Thorn
Encoding: 222 222 152
Width: 1294
Flags: MW
HStem: 0 21G<68 717 68 68> 957 345<489 599.5>
VStem: 273 216<214 308 380 957 1033 1048 1048 1072> 1006 234<554 803>
LayerCount: 2
Fore
SplineSet
489 957 m 1
 489 380 l 1
 548 377 606 375 665 375 c 0
 844 375 1006 454 1006 654 c 0
 1006 952 710 957 489 957 c 1
273 214 m 2
 273 1048 l 2
 273 1256 192 1185 68 1251 c 1
 68 1302 l 1
 701 1302 l 1
 703 1250 l 1
 605 1214 489 1210 489 1072 c 2
 489 1033 l 1
 568 1033 l 2
 844 1033 1240 1016 1240 668 c 0
 1240 385 953 300 718 300 c 0
 642 300 565 303 489 308 c 1
 489 105 516 98 688 58 c 0
 698 56 708 54 719 51 c 1
 717 0 l 1
 68 0 l 1
 66 52 l 1
 157 84 273 87 273 214 c 2
EndSplineSet
EndChar

StartChar: germandbls
Encoding: 223 223 153
Width: 1200
Flags: MW
HStem: -17 21G<701 882.5> 0 215<41 695> 1302 20G<556.5 734.5>
VStem: 197 186<252 795 795 795> 840 181<950.5 1092.5> 936 187<275 403>
LayerCount: 2
Fore
SplineSet
197 252 m 2x78
 197 795 l 1
 107 795 l 1
 107 819 97 850 134 850 c 2
 144 850 l 2
 159 850 174 851 185 862 c 1
 227 966 210 1111 330 1221 c 0
 402 1287 494 1322 619 1322 c 0
 850 1322 1021 1205 1021 1026 c 0x78
 1021 875 934 793 764 744 c 1
 764 741 l 1
 989 713 1123 547 1123 365 c 0
 1123 185 1001 -17 764 -17 c 0xb4
 638 -17 559 49 559 133 c 0
 559 180 596 215 641 215 c 0
 749 215 675 84 745 73 c 1
 753 64 772 59 792 59 c 0
 866 59 936 166 936 309 c 0x74
 936 497 843 632 663 674 c 1
 635 684 608 696 584 707 c 1
 584 730 589 752 597 769 c 1
 769 786 840 881 840 1020 c 0
 840 1165 729 1246 601 1246 c 0
 472 1246 395 1151 386 978 c 0
 384 941 383 904 383 866 c 2
 383 249 l 2
 383 189 387 147 407 116 c 1
 416 58 484 82 502 50 c 1
 502 34 502 17 500 0 c 1
 41 0 l 1
 39 18 39 35 39 52 c 1
 80 85 174 75 188 156 c 0
 194 186 197 217 197 252 c 2x78
EndSplineSet
EndChar

StartChar: agrave
Encoding: 224 224 154
Width: 985
Flags: MW
HStem: -20 21G<239.5 367.5 732 814> 572 354<195.5 575.5> 1523 20G<146 177.5>
VStem: 82 197<183 268.5> 113 200<655.5 679.5 634.5 764> 621 187<200 205 205 455 455 455 514 541>
LayerCount: 2
Fore
SplineSet
107 1415 m 0xf4
 92 1428 86 1444 86 1461 c 0
 86 1501 125 1543 167 1543 c 0
 188 1543 210 1533 228 1509 c 0
 293 1422 432 1235 515 1125 c 0
 522 1115 526 1104 526 1095 c 0
 526 1080 518 1069 503 1069 c 0
 493 1069 479 1075 463 1089 c 0
 394 1150 209 1322 107 1415 c 0xf4
621 200 m 1
 621 455 l 1
 375 371 279 326 279 220 c 0
 279 146 320 93 403 93 c 0
 475 93 552 132 621 200 c 1
621 514 m 1
 621 609 l 2
 621 633 621 658 620 682 c 0
 616 794 533 852 438 852 c 0
 370 852 279 811 279 762 c 0xf4
 279 733 313 694 313 665 c 0
 313 604 269 572 222 572 c 0
 169 572 113 613 113 698 c 0xec
 113 830 284 926 483 926 c 0
 668 926 779 866 798 716 c 0
 804 662 808 603 808 541 c 2
 808 205 l 2
 808 127 825 99 849 99 c 0
 874 99 907 130 937 168 c 1
 979 123 l 1
 904 -2 849 -20 779 -20 c 0
 685 -20 629 45 624 129 c 1
 531 28 423 -20 312 -20 c 0
 167 -20 82 66 82 178 c 0
 82 359 239 415 621 514 c 1
EndSplineSet
EndChar

StartChar: aacute
Encoding: 225 225 155
Width: 985
Flags: MW
HStem: -20 21G<239.5 367.5 732 814> 572 354<195.5 575.5> 1523 20G<788.5 820>
VStem: 82 197<183 268.5> 113 200<655.5 679.5 634.5 764> 621 187<200 205 205 455 455 455 514 541>
LayerCount: 2
Fore
SplineSet
859 1415 m 0xf4
 757 1322 572 1150 503 1089 c 0
 487 1075 473 1069 463 1069 c 0
 448 1069 440 1080 440 1095 c 0
 440 1104 444 1115 451 1125 c 0
 534 1235 673 1422 738 1509 c 0
 756 1533 778 1543 799 1543 c 0
 841 1543 880 1501 880 1461 c 0
 880 1444 874 1428 859 1415 c 0xf4
621 200 m 1
 621 455 l 1
 375 371 279 326 279 220 c 0
 279 146 320 93 403 93 c 0
 475 93 552 132 621 200 c 1
621 514 m 1
 621 609 l 2
 621 633 621 658 620 682 c 0
 616 794 533 852 438 852 c 0
 370 852 279 811 279 762 c 0xf4
 279 733 313 694 313 665 c 0
 313 604 269 572 222 572 c 0
 169 572 113 613 113 698 c 0xec
 113 830 284 926 483 926 c 0
 668 926 779 866 798 716 c 0
 804 662 808 603 808 541 c 2
 808 205 l 2
 808 127 825 99 849 99 c 0
 874 99 907 130 937 168 c 1
 979 123 l 1
 904 -2 849 -20 779 -20 c 0
 685 -20 629 45 624 129 c 1
 531 28 423 -20 312 -20 c 0
 167 -20 82 66 82 178 c 0
 82 359 239 415 621 514 c 1
EndSplineSet
EndChar

StartChar: acircumflex
Encoding: 226 226 156
Width: 985
Flags: MW
HStem: -20 21G<239.5 367.5 732 814> 572 354<195.5 575.5> 1552 20G<470.5 495.5>
VStem: 82 197<183 268.5> 113 200<655.5 679.5 634.5 764> 621 187<200 205 205 455 455 455 514 541>
LayerCount: 2
Fore
SplineSet
483 1351 m 1xf4
 483 1351 291 1145 231 1082 c 0
 222 1073 213 1069 205 1069 c 0
 195 1069 188 1076 188 1086 c 0
 188 1090 189 1094 191 1099 c 0
 264 1240 331 1379 397 1508 c 0
 422 1556 458 1572 483 1572 c 0
 508 1572 543 1556 568 1508 c 0
 634 1379 702 1240 775 1099 c 0
 777 1094 778 1090 778 1086 c 0
 778 1076 771 1069 761 1069 c 0
 753 1069 744 1073 735 1082 c 0
 675 1145 483 1351 483 1351 c 1xf4
621 200 m 1
 621 455 l 1
 375 371 279 326 279 220 c 0
 279 146 320 93 403 93 c 0
 475 93 552 132 621 200 c 1
621 514 m 1
 621 609 l 2
 621 633 621 658 620 682 c 0
 616 794 533 852 438 852 c 0
 370 852 279 811 279 762 c 0xf4
 279 733 313 694 313 665 c 0
 313 604 269 572 222 572 c 0
 169 572 113 613 113 698 c 0xec
 113 830 284 926 483 926 c 0
 668 926 779 866 798 716 c 0
 804 662 808 603 808 541 c 2
 808 205 l 2
 808 127 825 99 849 99 c 0
 874 99 907 130 937 168 c 1
 979 123 l 1
 904 -2 849 -20 779 -20 c 0
 685 -20 629 45 624 129 c 1
 531 28 423 -20 312 -20 c 0
 167 -20 82 66 82 178 c 0
 82 359 239 415 621 514 c 1
EndSplineSet
EndChar

StartChar: atilde
Encoding: 227 227 157
Width: 985
Flags: MW
HStem: -20 21G<239.5 367.5 732 814> 572 354<195.5 575.5> 852 350<404 678.5> 1069 243<297 669>
VStem: 82 197<183 268.5> 113 200<655.5 679.5 634.5 764> 621 187<200 205 205 455 455 455 514 541>
LayerCount: 2
Fore
SplineSet
223 1079 m 1xda
 185 1079 l 1
 189 1242 249 1312 345 1312 c 0xda
 457 1312 577 1202 657 1202 c 0xaa
 700 1202 730 1238 743 1310 c 1
 781 1310 l 1
 778 1152 718 1069 620 1069 c 0
 508 1069 380 1185 302 1185 c 0
 259 1185 234 1142 223 1079 c 1xda
621 200 m 1
 621 455 l 1
 375 371 279 326 279 220 c 0
 279 146 320 93 403 93 c 0
 475 93 552 132 621 200 c 1
621 514 m 1
 621 609 l 2
 621 633 621 658 620 682 c 0
 616 794 533 852 438 852 c 0
 370 852 279 811 279 762 c 0xaa
 279 733 313 694 313 665 c 0
 313 604 269 572 222 572 c 0
 169 572 113 613 113 698 c 0xd6
 113 830 284 926 483 926 c 0
 668 926 779 866 798 716 c 0
 804 662 808 603 808 541 c 2
 808 205 l 2
 808 127 825 99 849 99 c 0
 874 99 907 130 937 168 c 1
 979 123 l 1
 904 -2 849 -20 779 -20 c 0
 685 -20 629 45 624 129 c 1
 531 28 423 -20 312 -20 c 0
 167 -20 82 66 82 178 c 0
 82 359 239 415 621 514 c 1
EndSplineSet
EndChar

StartChar: adieresis
Encoding: 228 228 158
Width: 985
Flags: MW
HStem: -20 21G<239.5 367.5 732 814> 572 354<195.5 575.5> 1069 218<232.5 293 672 732.5>
VStem: 82 197<183 268.5> 113 200<655.5 679.5 634.5 764> 154 218<1147.5 1208> 594 218<1147.5 1208> 621 191
LayerCount: 2
Fore
SplineSet
263 1287 m 0xe6
 323 1287 372 1238 372 1178 c 0
 372 1117 323 1069 263 1069 c 0
 202 1069 154 1117 154 1178 c 0
 154 1238 202 1287 263 1287 c 0xe6
702 1287 m 0
 763 1287 812 1238 812 1178 c 0
 812 1117 763 1069 702 1069 c 0
 642 1069 594 1117 594 1178 c 0
 594 1238 642 1287 702 1287 c 0
621 200 m 1xf1
 621 455 l 1
 375 371 279 326 279 220 c 0
 279 146 320 93 403 93 c 0
 475 93 552 132 621 200 c 1xf1
621 514 m 1
 621 609 l 2
 621 633 621 658 620 682 c 0
 616 794 533 852 438 852 c 0
 370 852 279 811 279 762 c 0xf1
 279 733 313 694 313 665 c 0
 313 604 269 572 222 572 c 0
 169 572 113 613 113 698 c 0xea
 113 830 284 926 483 926 c 0
 668 926 779 866 798 716 c 0
 804 662 808 603 808 541 c 2
 808 205 l 2
 808 127 825 99 849 99 c 0
 874 99 907 130 937 168 c 1
 979 123 l 1
 904 -2 849 -20 779 -20 c 0
 685 -20 629 45 624 129 c 1
 531 28 423 -20 312 -20 c 0
 167 -20 82 66 82 178 c 0
 82 359 239 415 621 514 c 1
EndSplineSet
EndChar

StartChar: aring
Encoding: 229 229 159
Width: 985
Flags: MW
HStem: -20 21G<238.5 366.5 731 813> 572 354<194.5 574.5> 852 291<403 563.5> 1433 20G<475.5 584.5>
VStem: 81 197<183 268.5> 112 166<747.5 764> 335 390<1210 1313.5 1210 1313.5> 620 187<200 205 205 455 455 455 514 541>
LayerCount: 2
Fore
SplineSet
530 1380 m 0xba
 463 1380 411 1325 411 1262 c 0
 411 1197 463 1143 530 1143 c 0
 597 1143 650 1198 650 1262 c 0
 650 1325 597 1380 530 1380 c 0xba
530 1453 m 0
 639 1453 725 1365 725 1262 c 0
 725 1158 639 1069 530 1069 c 0
 421 1069 335 1155 335 1262 c 0
 335 1365 421 1453 530 1453 c 0
620 200 m 1xd9
 620 455 l 1
 374 371 278 326 278 220 c 0
 278 146 319 93 402 93 c 0
 474 93 551 132 620 200 c 1xd9
620 514 m 1
 620 609 l 2
 620 633 620 658 619 682 c 0
 615 794 532 852 437 852 c 0xb9
 369 852 278 811 278 762 c 0
 278 733 312 694 312 665 c 0
 312 604 268 572 221 572 c 0
 168 572 112 613 112 698 c 0xd6
 112 830 283 926 482 926 c 0
 667 926 778 866 797 716 c 0
 803 662 807 603 807 541 c 2
 807 205 l 2
 807 127 824 99 848 99 c 0
 873 99 906 130 936 168 c 1
 978 123 l 1
 903 -2 848 -20 778 -20 c 0
 684 -20 628 45 623 129 c 1
 530 28 422 -20 311 -20 c 0
 166 -20 81 66 81 178 c 0
 81 359 238 415 620 514 c 1
EndSplineSet
EndChar

StartChar: ae
Encoding: 230 230 160
Width: 1447
Flags: MW
HStem: -20 21G<232.5 361 948 1092.5> 578 348 904 20G<427.5 560.5>
VStem: 69 193<168.5 267 168.5 296.5> 613 191<348 622 348 686>
LayerCount: 2
Fore
SplineSet
805 544 m 1xd8
 1114 583 l 1
 1144 589 1173 600 1197 614 c 1
 1178 768 1127 852 1014 852 c 0
 871 852 807 725 805 544 c 1xd8
657 185 m 1
 625 267 618 362 617 446 c 1
 589 440 562 434 539 427 c 0
 325 362 262 329 262 205 c 0
 262 132 321 92 396 92 c 0
 486 92 594 138 657 185 c 1
1382 554 m 1
 804 486 l 1
 804 462 l 2
 804 234 861 128 1083 128 c 0
 1204 128 1271 157 1345 208 c 1
 1356 200 1366 191 1374 179 c 1
 1320 43 1164 -20 1021 -20 c 0
 875 -20 771 37 690 132 c 1
 577 34 425 -20 297 -20 c 0
 168 -20 69 47 69 172 c 0
 69 421 361 433 613 501 c 1
 613 622 l 2
 613 750 572 852 448 852 c 0
 408 852 272 828 272 760 c 0
 272 723 307 695 307 669 c 0
 307 644 241 578 191 578 c 0xd8
 142 578 103 660 103 711 c 0
 103 876 369 924 486 924 c 0xb8
 635 924 718 873 759 791 c 1
 810 863 902 926 1049 926 c 0
 1257 926 1382 759 1382 554 c 1
EndSplineSet
EndChar

StartChar: ccedilla
Encoding: 231 231 161
Width: 952
Flags: MW
HStem: -441 21G<460.5 545> -20 21G<383 602.5> -5 21G<446 529 529 529> 642 284<424.5 813>
VStem: 83 183<400 580.5> 551 163<-310.5 -247>
LayerCount: 2
Fore
SplineSet
529 -5 m 1xbc
 529 -5 546 -78 553 -110 c 1
 666 -126 714 -193 714 -262 c 0
 714 -373 607 -441 483 -441 c 0
 438 -441 398 -431 347 -409 c 1
 360 -352 l 1
 388 -366 416 -372 442 -372 c 0
 501 -372 551 -337 551 -284 c 0
 551 -210 482 -184 399 -180 c 1
 446 -5 l 1
 529 -5 l 1xbc
848 211 m 1
 880 188 l 1
 837 49 679 -20 526 -20 c 0xdc
 240 -20 83 203 83 448 c 0
 83 713 276 926 573 926 c 0
 740 926 891 868 891 737 c 0
 891 670 830 642 796 642 c 0
 646 642 791 852 558 852 c 0
 407 852 266 734 266 502 c 0
 266 298 376 120 583 120 c 0
 704 120 769 149 848 211 c 1
EndSplineSet
EndChar

StartChar: egrave
Encoding: 232 232 162
Width: 958
Flags: MW
HStem: -20 21G<393.5 586> 906 20G<406 618.5> 1523 20G<149 180.5>
VStem: 81 176<366 501.5 366 590.5>
LayerCount: 2
Fore
SplineSet
110 1415 m 0
 95 1428 89 1444 89 1461 c 0
 89 1501 128 1543 170 1543 c 0
 191 1543 213 1533 231 1509 c 0
 296 1422 435 1235 518 1125 c 0
 525 1115 529 1104 529 1095 c 0
 529 1080 521 1069 506 1069 c 0
 496 1069 482 1075 466 1089 c 0
 397 1150 212 1322 110 1415 c 0
265 585 m 1
 618 594 l 2
 645 595 671 600 692 610 c 1
 683 765 620 859 499 859 c 0
 365 859 282 735 265 585 c 1
890 526 m 1
 258 526 l 1
 257 516 257 506 257 497 c 0
 257 235 413 121 596 121 c 0
 682 121 761 145 839 193 c 1
 868 165 l 1
 818 44 651 -20 521 -20 c 0
 266 -20 81 169 81 447 c 0
 81 734 290 926 522 926 c 0
 715 926 853 801 879 620 c 1
 886 591 890 562 890 535 c 2
 890 526 l 1
EndSplineSet
EndChar

StartChar: eacute
Encoding: 233 233 163
Width: 958
Flags: MW
HStem: -20 21G<393.5 586> 906 20G<406 618.5> 1523 20G<791.5 823>
VStem: 81 176<366 501.5 366 590.5>
LayerCount: 2
Fore
SplineSet
862 1415 m 0
 760 1322 575 1150 506 1089 c 0
 490 1075 476 1069 466 1069 c 0
 451 1069 443 1080 443 1095 c 0
 443 1104 447 1115 454 1125 c 0
 537 1235 676 1422 741 1509 c 0
 759 1533 781 1543 802 1543 c 0
 844 1543 883 1501 883 1461 c 0
 883 1444 877 1428 862 1415 c 0
265 585 m 1
 618 594 l 2
 645 595 671 600 692 610 c 1
 683 765 620 859 499 859 c 0
 365 859 282 735 265 585 c 1
890 526 m 1
 258 526 l 1
 257 516 257 506 257 497 c 0
 257 235 413 121 596 121 c 0
 682 121 761 145 839 193 c 1
 868 165 l 1
 818 44 651 -20 521 -20 c 0
 266 -20 81 169 81 447 c 0
 81 734 290 926 522 926 c 0
 715 926 853 801 879 620 c 1
 886 591 890 562 890 535 c 2
 890 526 l 1
EndSplineSet
EndChar

StartChar: ecircumflex
Encoding: 234 234 164
Width: 958
Flags: MW
HStem: -20 21G<393.5 586> 906 20G<406 618.5> 1552 20G<473.5 498.5>
VStem: 81 176<366 501.5 366 590.5>
LayerCount: 2
Fore
SplineSet
486 1351 m 1
 486 1351 294 1145 234 1082 c 0
 225 1073 216 1069 208 1069 c 0
 198 1069 191 1076 191 1086 c 0
 191 1090 192 1094 194 1099 c 0
 267 1240 334 1379 400 1508 c 0
 425 1556 461 1572 486 1572 c 0
 511 1572 546 1556 571 1508 c 0
 637 1379 705 1240 778 1099 c 0
 780 1094 781 1090 781 1086 c 0
 781 1076 774 1069 764 1069 c 0
 756 1069 747 1073 738 1082 c 0
 678 1145 486 1351 486 1351 c 1
265 585 m 1
 618 594 l 2
 645 595 671 600 692 610 c 1
 683 765 620 859 499 859 c 0
 365 859 282 735 265 585 c 1
890 526 m 1
 258 526 l 1
 257 516 257 506 257 497 c 0
 257 235 413 121 596 121 c 0
 682 121 761 145 839 193 c 1
 868 165 l 1
 818 44 651 -20 521 -20 c 0
 266 -20 81 169 81 447 c 0
 81 734 290 926 522 926 c 0
 715 926 853 801 879 620 c 1
 886 591 890 562 890 535 c 2
 890 526 l 1
EndSplineSet
EndChar

StartChar: edieresis
Encoding: 235 235 165
Width: 958
Flags: MW
HStem: -20 21G<393.5 586> 906 20G<406 618.5> 1069 218<235.5 296 675 735.5>
VStem: 81 176<366 501.5 366 590.5> 157 218<1147.5 1208> 597 218<1147.5 1208>
LayerCount: 2
Fore
SplineSet
266 1287 m 0xec
 326 1287 375 1238 375 1178 c 0
 375 1117 326 1069 266 1069 c 0
 205 1069 157 1117 157 1178 c 0
 157 1238 205 1287 266 1287 c 0xec
705 1287 m 0
 766 1287 815 1238 815 1178 c 0
 815 1117 766 1069 705 1069 c 0
 645 1069 597 1117 597 1178 c 0
 597 1238 645 1287 705 1287 c 0
265 585 m 1
 618 594 l 2
 645 595 671 600 692 610 c 1
 683 765 620 859 499 859 c 0
 365 859 282 735 265 585 c 1
890 526 m 1
 258 526 l 1
 257 516 257 506 257 497 c 0
 257 235 413 121 596 121 c 0
 682 121 761 145 839 193 c 1
 868 165 l 1
 818 44 651 -20 521 -20 c 0
 266 -20 81 169 81 447 c 0xf4
 81 734 290 926 522 926 c 0
 715 926 853 801 879 620 c 1
 886 591 890 562 890 535 c 2
 890 526 l 1
EndSplineSet
EndChar

StartChar: igrave
Encoding: 236 236 166
Width: 589
Flags: MW
HStem: 0 21G<49 557 49 49> 1523 20G<-34 -2.5>
VStem: 219 186<203.5 220 220 707 707 707>
LayerCount: 2
Fore
SplineSet
-73 1415 m 0
 -88 1428 -94 1444 -94 1461 c 0
 -94 1501 -55 1543 -13 1543 c 0
 8 1543 30 1533 48 1509 c 0
 113 1422 252 1235 335 1125 c 0
 342 1115 346 1104 346 1095 c 0
 346 1080 338 1069 323 1069 c 0
 313 1069 299 1075 283 1089 c 0
 214 1150 29 1322 -73 1415 c 0
219 181 m 2
 219 707 l 1
 189 759 96 757 67 791 c 1
 67 802 68 813 69 826 c 1
 346 906 l 1
 405 912 l 1
 405 220 l 2
 405 187 408 159 415 135 c 1
 427 68 530 71 559 50 c 1
 559 33 558 17 557 0 c 1
 49 0 l 1
 47 18 47 34 47 50 c 1
 91 74 219 83 219 181 c 2
EndSplineSet
EndChar

StartChar: iacute
Encoding: 237 237 167
Width: 589
Flags: MW
HStem: 0 21G<49 557 49 49> 1523 20G<608.5 640>
VStem: 219 186<203.5 220 220 707 707 707>
LayerCount: 2
Fore
SplineSet
679 1415 m 0
 577 1322 392 1150 323 1089 c 0
 307 1075 293 1069 283 1069 c 0
 268 1069 260 1080 260 1095 c 0
 260 1104 264 1115 271 1125 c 0
 354 1235 493 1422 558 1509 c 0
 576 1533 598 1543 619 1543 c 0
 661 1543 700 1501 700 1461 c 0
 700 1444 694 1428 679 1415 c 0
219 181 m 2
 219 707 l 1
 189 759 96 757 67 791 c 1
 67 802 68 813 69 826 c 1
 346 906 l 1
 405 912 l 1
 405 220 l 2
 405 187 408 159 415 135 c 1
 427 68 530 71 559 50 c 1
 559 33 558 17 557 0 c 1
 49 0 l 1
 47 18 47 34 47 50 c 1
 91 74 219 83 219 181 c 2
EndSplineSet
EndChar

StartChar: icircumflex
Encoding: 238 238 168
Width: 589
Flags: MW
HStem: 0 21G<49 557 49 49> 1552 20G<290.5 315.5>
VStem: 219 186<203.5 220 220 707 707 707>
LayerCount: 2
Fore
SplineSet
303 1351 m 1
 303 1351 111 1145 51 1082 c 0
 42 1073 33 1069 25 1069 c 0
 15 1069 8 1076 8 1086 c 0
 8 1090 9 1094 11 1099 c 0
 84 1240 151 1379 217 1508 c 0
 242 1556 278 1572 303 1572 c 0
 328 1572 363 1556 388 1508 c 0
 454 1379 522 1240 595 1099 c 0
 597 1094 598 1090 598 1086 c 0
 598 1076 591 1069 581 1069 c 0
 573 1069 564 1073 555 1082 c 0
 495 1145 303 1351 303 1351 c 1
219 181 m 2
 219 707 l 1
 189 759 96 757 67 791 c 1
 67 802 68 813 69 826 c 1
 346 906 l 1
 405 912 l 1
 405 220 l 2
 405 187 408 159 415 135 c 1
 427 68 530 71 559 50 c 1
 559 33 558 17 557 0 c 1
 49 0 l 1
 47 18 47 34 47 50 c 1
 91 74 219 83 219 181 c 2
EndSplineSet
EndChar

StartChar: idieresis
Encoding: 239 239 169
Width: 589
Flags: MW
HStem: 0 21G<49 557 49 49> 1069 218<52.5 113 492 552.5>
VStem: -26 218<1147.5 1208> 219 186<203.5 220 220 707 707 707> 414 218<1147.5 1208>
LayerCount: 2
Fore
SplineSet
83 1287 m 0
 143 1287 192 1238 192 1178 c 0
 192 1117 143 1069 83 1069 c 0
 22 1069 -26 1117 -26 1178 c 0
 -26 1238 22 1287 83 1287 c 0
522 1287 m 0
 583 1287 632 1238 632 1178 c 0
 632 1117 583 1069 522 1069 c 0
 462 1069 414 1117 414 1178 c 0
 414 1238 462 1287 522 1287 c 0
219 181 m 2
 219 707 l 1
 189 759 96 757 67 791 c 1
 67 802 68 813 69 826 c 1
 346 906 l 1
 405 912 l 1
 405 220 l 2
 405 187 408 159 415 135 c 1
 427 68 530 71 559 50 c 1
 559 33 558 17 557 0 c 1
 49 0 l 1
 47 18 47 34 47 50 c 1
 91 74 219 83 219 181 c 2
EndSplineSet
EndChar

StartChar: eth
Encoding: 240 240 170
Width: 1074
Flags: MW
HStem: -22 21G<396.5 672> 906 20G<367 544> 1360 20G<399 399>
VStem: 65 200<413.5 572 413.5 572> 793 197<370 459.5>
LayerCount: 2
Fore
SplineSet
929 1262 m 1
 898 1224 781 1184 734 1159 c 1
 903 988 990 745 990 507 c 0
 990 233 819 -22 525 -22 c 0
 268 -22 65 187 65 443 c 0
 65 701 231 926 503 926 c 0
 585 926 669 890 731 837 c 1
 734 839 l 1
 715 935 672 1026 612 1104 c 1
 538 1074 468 1037 395 1004 c 1
 376 1015 362 1034 356 1055 c 1
 406 1108 500 1134 564 1167 c 1
 504 1236 427 1295 352 1347 c 1
 399 1380 l 1
 499 1341 597 1292 676 1218 c 1
 846 1306 l 1
 883 1306 924 1299 929 1262 c 1
265 490 m 0
 265 337 336 57 531 57 c 0
 731 57 793 262 793 428 c 0
 793 491 793 578 775 638 c 0
 745 742 626 849 515 849 c 0
 316 849 265 654 265 490 c 0
EndSplineSet
EndChar

StartChar: ntilde
Encoding: 241 241 171
Width: 1204
Flags: MW
HStem: 0 21G<44 559 44 44 680 680 680 1173> 906 20G<643.5 808.5> 1069 243<421 793>
VStem: 199 186<185 222 222 668> 841 187<226 245 245 449 449 468>
LayerCount: 2
Fore
SplineSet
347 1079 m 1
 309 1079 l 1
 313 1242 373 1312 469 1312 c 0
 581 1312 701 1202 781 1202 c 0
 824 1202 854 1238 867 1310 c 1
 905 1310 l 1
 902 1152 842 1069 744 1069 c 0
 632 1069 504 1185 426 1185 c 0
 383 1185 358 1142 347 1079 c 1
385 668 m 1
 385 222 l 2
 385 101 450 61 561 50 c 1
 561 33 559 0 559 0 c 1
 44 0 l 1
 44 0 41 36 44 54 c 1
 134 75 199 89 199 185 c 2
 199 727 l 1
 173 778 40 811 40 811 c 1
 43 845 l 1
 316 913 l 1
 377 917 l 1
 385 755 l 1
 388 755 l 1
 456 847 574 926 713 926 c 0
 904 926 1016 819 1026 599 c 0
 1027 556 1028 512 1028 468 c 2
 1028 245 l 2
 1028 73 1061 91 1173 54 c 1
 1175 36 1173 0 1173 0 c 1
 680 0 l 1
 680 0 678 34 678 50 c 1
 729 70 824 76 836 149 c 0
 840 172 841 198 841 226 c 2
 841 449 l 2
 841 657 841 818 651 818 c 0
 548 818 458 745 385 668 c 1
EndSplineSet
EndChar

StartChar: ograve
Encoding: 242 242 172
Width: 1111
Flags: MW
HStem: -20 21G<433 685> 906 20G<424 680> 1523 20G<218 249.5>
VStem: 81 200<403 597.5> 831 197<311.5 515>
LayerCount: 2
Fore
SplineSet
179 1415 m 0
 164 1428 158 1444 158 1461 c 0
 158 1501 197 1543 239 1543 c 0
 260 1543 282 1533 300 1509 c 0
 365 1422 504 1235 587 1125 c 0
 594 1115 598 1104 598 1095 c 0
 598 1080 590 1069 575 1069 c 0
 565 1069 551 1075 535 1089 c 0
 466 1150 281 1322 179 1415 c 0
281 515 m 0
 281 291 391 58 572 58 c 0
 748 58 831 200 831 388 c 0
 831 642 720 859 542 859 c 0
 395 859 281 755 281 515 c 0
81 456 m 0
 81 739 300 926 548 926 c 0
 812 926 1028 747 1028 457 c 0
 1028 166 811 -20 559 -20 c 0
 307 -20 81 174 81 456 c 0
EndSplineSet
EndChar

StartChar: oacute
Encoding: 243 243 173
Width: 1111
Flags: MW
HStem: -20 21G<433 685> 906 20G<424 680> 1523 20G<860.5 892>
VStem: 81 200<403 597.5> 831 197<311.5 515>
LayerCount: 2
Fore
SplineSet
931 1415 m 0
 829 1322 644 1150 575 1089 c 0
 559 1075 545 1069 535 1069 c 0
 520 1069 512 1080 512 1095 c 0
 512 1104 516 1115 523 1125 c 0
 606 1235 745 1422 810 1509 c 0
 828 1533 850 1543 871 1543 c 0
 913 1543 952 1501 952 1461 c 0
 952 1444 946 1428 931 1415 c 0
281 515 m 0
 281 291 391 58 572 58 c 0
 748 58 831 200 831 388 c 0
 831 642 720 859 542 859 c 0
 395 859 281 755 281 515 c 0
81 456 m 0
 81 739 300 926 548 926 c 0
 812 926 1028 747 1028 457 c 0
 1028 166 811 -20 559 -20 c 0
 307 -20 81 174 81 456 c 0
EndSplineSet
EndChar

StartChar: ocircumflex
Encoding: 244 244 174
Width: 1111
Flags: MW
HStem: -20 21G<433 685> 906 20G<424 680> 1552 20G<542.5 567.5>
VStem: 81 200<403 597.5> 831 197<311.5 515>
LayerCount: 2
Fore
SplineSet
555 1351 m 1
 555 1351 363 1145 303 1082 c 0
 294 1073 285 1069 277 1069 c 0
 267 1069 260 1076 260 1086 c 0
 260 1090 261 1094 263 1099 c 0
 336 1240 403 1379 469 1508 c 0
 494 1556 530 1572 555 1572 c 0
 580 1572 615 1556 640 1508 c 0
 706 1379 774 1240 847 1099 c 0
 849 1094 850 1090 850 1086 c 0
 850 1076 843 1069 833 1069 c 0
 825 1069 816 1073 807 1082 c 0
 747 1145 555 1351 555 1351 c 1
281 515 m 0
 281 291 391 58 572 58 c 0
 748 58 831 200 831 388 c 0
 831 642 720 859 542 859 c 0
 395 859 281 755 281 515 c 0
81 456 m 0
 81 739 300 926 548 926 c 0
 812 926 1028 747 1028 457 c 0
 1028 166 811 -20 559 -20 c 0
 307 -20 81 174 81 456 c 0
EndSplineSet
EndChar

StartChar: otilde
Encoding: 245 245 175
Width: 1111
Flags: MW
HStem: -20 21G<433 685> 859 343<468.5 750.5> 906 20G<424 680> 1069 243<369 741>
VStem: 81 200<403 597.5> 831 197<311.5 515>
LayerCount: 2
Fore
SplineSet
295 1079 m 1xbc
 257 1079 l 1
 261 1242 321 1312 417 1312 c 0xbc
 529 1312 649 1202 729 1202 c 0xcc
 772 1202 802 1238 815 1310 c 1
 853 1310 l 1
 850 1152 790 1069 692 1069 c 0
 580 1069 452 1185 374 1185 c 0
 331 1185 306 1142 295 1079 c 1xbc
281 515 m 0
 281 291 391 58 572 58 c 0
 748 58 831 200 831 388 c 0
 831 642 720 859 542 859 c 0xcc
 395 859 281 755 281 515 c 0
81 456 m 0
 81 739 300 926 548 926 c 0xbc
 812 926 1028 747 1028 457 c 0
 1028 166 811 -20 559 -20 c 0
 307 -20 81 174 81 456 c 0
EndSplineSet
EndChar

StartChar: odieresis
Encoding: 246 246 176
Width: 1111
Flags: MW
HStem: -20 21G<433 685> 906 20G<424 680> 1069 218<304.5 365 744 804.5>
VStem: 81 200<403 597.5> 226 218<1147.5 1208> 666 218<1147.5 1208> 831 197<311.5 515>
LayerCount: 2
Fore
SplineSet
335 1287 m 0xec
 395 1287 444 1238 444 1178 c 0
 444 1117 395 1069 335 1069 c 0
 274 1069 226 1117 226 1178 c 0
 226 1238 274 1287 335 1287 c 0xec
774 1287 m 0
 835 1287 884 1238 884 1178 c 0
 884 1117 835 1069 774 1069 c 0
 714 1069 666 1117 666 1178 c 0
 666 1238 714 1287 774 1287 c 0
281 515 m 0xf2
 281 291 391 58 572 58 c 0
 748 58 831 200 831 388 c 0
 831 642 720 859 542 859 c 0
 395 859 281 755 281 515 c 0xf2
81 456 m 0
 81 739 300 926 548 926 c 0
 812 926 1028 747 1028 457 c 0
 1028 166 811 -20 559 -20 c 0
 307 -20 81 174 81 456 c 0
EndSplineSet
EndChar

StartChar: divide
Encoding: 247 247 177
Width: 1262
Flags: MW
HStem: 125 237<597 663.5> 888 238<597 663.5>
VStem: 510 242<211.5 274.5 211.5 274.5 975 1037.5>
LayerCount: 2
Fore
SplineSet
630 888 m 0
 564 888 510 941 510 1006 c 0
 510 1069 564 1126 630 1126 c 0
 697 1126 752 1069 752 1006 c 0
 752 944 697 888 630 888 c 0
630 125 m 0
 564 125 510 178 510 243 c 0
 510 306 564 362 630 362 c 0
 697 362 752 306 752 243 c 0
 752 180 697 125 630 125 c 0
138 699 m 1
 424 699 711 700 1018 700 c 0
 1080 700 1120 684 1155 669 c 1
 1155 625 1153 581 1123 551 c 1
 832 551 543 548 243 548 c 0
 193 548 141 550 106 579 c 1
 106 636 130 669 138 699 c 1
EndSplineSet
EndChar

StartChar: oslash
Encoding: 248 248 178
Width: 1111
Flags: MW
HStem: -114 21G -20 21G<521.5 695.5> 906 20G<417 589> 1006 20G
VStem: 82 200<471 592> 835 194<320.5 427.5>
LayerCount: 2
Fore
SplineSet
762 698 m 1
 636 520 523 334 417 144 c 1
 456 98 508 62 570 62 c 0
 748 62 835 209 835 372 c 0
 835 483 815 599 762 698 c 1
354 219 m 1
 708 772 l 1
 665 830 607 860 535 860 c 0
 351 860 282 682 282 524 c 0
 282 418 301 312 354 219 c 1
184 -35 m 1
 262 91 l 1
 147 183 82 313 82 460 c 0
 82 724 285 926 549 926 c 0
 629 926 707 906 776 867 c 1
 811 905 834 1008 875 1026 c 1
 906 1018 937 1002 949 970 c 1
 922 919 882 872 852 821 c 1
 969 736 1029 599 1029 456 c 0
 1029 185 832 -20 559 -20 c 0
 484 -20 411 2 348 42 c 1
 322 -13 298 -91 236 -114 c 1
 205 -104 191 -63 184 -35 c 1
EndSplineSet
EndChar

StartChar: ugrave
Encoding: 249 249 179
Width: 1191
Flags: MW
HStem: -20 21G<360.5 545.5> 1523 20G<255 286.5>
VStem: 191 186<429 440 440 645 645 666> 815 186<220 643 643 664.5>
LayerCount: 2
Fore
SplineSet
216 1415 m 0
 201 1428 195 1444 195 1461 c 0
 195 1501 234 1543 276 1543 c 0
 297 1543 319 1533 337 1509 c 0
 402 1422 541 1235 624 1125 c 0
 631 1115 635 1104 635 1095 c 0
 635 1080 627 1069 612 1069 c 0
 602 1069 588 1075 572 1089 c 0
 503 1150 318 1322 216 1415 c 0
1159 85 m 1
 1159 68 1156 32 1156 32 c 1
 828 -15 l 1
 820 145 l 1
 715 28 602 -20 489 -20 c 0
 232 -20 191 197 191 429 c 2
 191 645 l 2
 191 687 188 719 183 746 c 0
 170 815 24 828 24 828 c 1
 25 878 l 1
 377 904 l 1
 377 440 l 2
 377 190 418 98 553 98 c 0
 642 98 728 134 815 220 c 1
 815 643 l 2
 815 686 812 719 807 747 c 0
 794 815 640 829 640 829 c 1
 640 852 l 1
 641 878 l 1
 1001 904 l 1
 1001 201 l 2
 1001 103 1094 97 1159 85 c 1
EndSplineSet
EndChar

StartChar: uacute
Encoding: 250 250 180
Width: 1191
Flags: MW
HStem: -20 21G<360.5 545.5> 1523 20G<897.5 929>
VStem: 191 186<429 440 440 645 645 666> 815 186<220 643 643 664.5>
LayerCount: 2
Fore
SplineSet
968 1415 m 0
 866 1322 681 1150 612 1089 c 0
 596 1075 582 1069 572 1069 c 0
 557 1069 549 1080 549 1095 c 0
 549 1104 553 1115 560 1125 c 0
 643 1235 782 1422 847 1509 c 0
 865 1533 887 1543 908 1543 c 0
 950 1543 989 1501 989 1461 c 0
 989 1444 983 1428 968 1415 c 0
1159 85 m 1
 1159 68 1156 32 1156 32 c 1
 828 -15 l 1
 820 145 l 1
 715 28 602 -20 489 -20 c 0
 232 -20 191 197 191 429 c 2
 191 645 l 2
 191 687 188 719 183 746 c 0
 170 815 24 828 24 828 c 1
 25 878 l 1
 377 904 l 1
 377 440 l 2
 377 190 418 98 553 98 c 0
 642 98 728 134 815 220 c 1
 815 643 l 2
 815 686 812 719 807 747 c 0
 794 815 640 829 640 829 c 1
 640 852 l 1
 641 878 l 1
 1001 904 l 1
 1001 201 l 2
 1001 103 1094 97 1159 85 c 1
EndSplineSet
EndChar

StartChar: ucircumflex
Encoding: 251 251 181
Width: 1191
Flags: MW
HStem: -20 21G<360.5 545.5> 1552 20G<579.5 604.5>
VStem: 191 186<429 440 440 645 645 666> 815 186<220 643 643 664.5>
LayerCount: 2
Fore
SplineSet
592 1351 m 1
 592 1351 400 1145 340 1082 c 0
 331 1073 322 1069 314 1069 c 0
 304 1069 297 1076 297 1086 c 0
 297 1090 298 1094 300 1099 c 0
 373 1240 440 1379 506 1508 c 0
 531 1556 567 1572 592 1572 c 0
 617 1572 652 1556 677 1508 c 0
 743 1379 811 1240 884 1099 c 0
 886 1094 887 1090 887 1086 c 0
 887 1076 880 1069 870 1069 c 0
 862 1069 853 1073 844 1082 c 0
 784 1145 592 1351 592 1351 c 1
1159 85 m 1
 1159 68 1156 32 1156 32 c 1
 828 -15 l 1
 820 145 l 1
 715 28 602 -20 489 -20 c 0
 232 -20 191 197 191 429 c 2
 191 645 l 2
 191 687 188 719 183 746 c 0
 170 815 24 828 24 828 c 1
 25 878 l 1
 377 904 l 1
 377 440 l 2
 377 190 418 98 553 98 c 0
 642 98 728 134 815 220 c 1
 815 643 l 2
 815 686 812 719 807 747 c 0
 794 815 640 829 640 829 c 1
 640 852 l 1
 641 878 l 1
 1001 904 l 1
 1001 201 l 2
 1001 103 1094 97 1159 85 c 1
EndSplineSet
EndChar

StartChar: udieresis
Encoding: 252 252 182
Width: 1191
Flags: MW
HStem: -20 21G<360.5 545.5> 1069 218<341.5 402 781 841.5>
VStem: 191 186<429 440 440 645 645 666> 263 218<1147.5 1208> 703 218<1147.5 1208> 815 186<220 643 643 664.5>
LayerCount: 2
Fore
SplineSet
372 1287 m 0xd8
 432 1287 481 1238 481 1178 c 0
 481 1117 432 1069 372 1069 c 0
 311 1069 263 1117 263 1178 c 0
 263 1238 311 1287 372 1287 c 0xd8
811 1287 m 0
 872 1287 921 1238 921 1178 c 0
 921 1117 872 1069 811 1069 c 0
 751 1069 703 1117 703 1178 c 0
 703 1238 751 1287 811 1287 c 0
1159 85 m 1
 1159 68 1156 32 1156 32 c 1
 828 -15 l 1
 820 145 l 1
 715 28 602 -20 489 -20 c 0
 232 -20 191 197 191 429 c 2
 191 645 l 2
 191 687 188 719 183 746 c 0
 170 815 24 828 24 828 c 1
 25 878 l 1
 377 904 l 1
 377 440 l 2
 377 190 418 98 553 98 c 0
 642 98 728 134 815 220 c 1
 815 643 l 2
 815 686 812 719 807 747 c 0
 794 815 640 829 640 829 c 1
 640 852 l 1
 641 878 l 1
 1001 904 l 1
 1001 201 l 2xe4
 1001 103 1094 97 1159 85 c 1
EndSplineSet
EndChar

StartChar: yacute
Encoding: 253 253 183
Width: 971
Flags: MW
HStem: -395 209<170 196.5 132 280> 879 20G<-5 464 464 464 608 975 975 975> 1523 20G<790.5 822>
LayerCount: 2
Fore
SplineSet
861 1415 m 0
 759 1322 574 1150 505 1089 c 0
 489 1075 475 1069 465 1069 c 0
 450 1069 442 1080 442 1095 c 0
 442 1104 446 1115 453 1125 c 0
 536 1235 675 1422 740 1509 c 0
 758 1533 780 1543 801 1543 c 0
 843 1543 882 1501 882 1461 c 0
 882 1444 876 1428 861 1415 c 0
465 0 m 1
 153 712 l 2
 89 857 65 818 -6 847 c 1
 -5 899 l 1
 464 899 l 1
 464 899 469 874 469 867 c 0
 469 849 432 840 417 830 c 1
 361 826 334 810 334 776 c 0
 334 762 340 743 347 721 c 1
 554 227 l 1
 723 675 l 2
 733 701 738 723 738 743 c 0
 738 801 697 828 608 843 c 1
 606 862 608 899 608 899 c 1
 975 899 l 1
 975 899 976 866 976 848 c 1
 931 812 861 827 827 707 c 1
 472 -167 l 2
 418 -301 346 -395 214 -395 c 0
 126 -395 60 -351 60 -279 c 0
 60 -224 105 -186 159 -186 c 0
 234 -186 233 -257 297 -257 c 0
 379 -257 424 -129 465 0 c 1
EndSplineSet
EndChar

StartChar: thorn
Encoding: 254 254 184
Width: 1134
Flags: MW
HStem: -378 21G<8 534 8 8> -18 21G<547 715.5> 906 20G<602.5 773.5> 1356 20G<352 352>
VStem: 166 186<-146 -144 -144 35 260 339 339 677 764 1165 1165 1165> 862 186<323.5 558>
LayerCount: 2
Fore
SplineSet
352 677 m 1
 352 339 l 2
 352 181 392 66 605 66 c 0
 770 66 862 205 862 423 c 0
 862 693 724 796 594 796 c 0
 501 796 416 739 352 677 c 1
352 35 m 1
 352 -144 l 2
 352 -183 355 -215 363 -242 c 1
 378 -311 491 -304 536 -328 c 1
 536 -344 535 -360 534 -378 c 1
 8 -378 l 1
 6 -360 5 -344 5 -328 c 1
 34 -306 130 -311 144 -255 c 1
 158 -224 166 -187 166 -146 c 2
 166 1165 l 1
 138 1210 26 1227 -1 1256 c 1
 -1 1267 -1 1279 1 1290 c 1
 94 1316 187 1342 280 1369 c 1
 352 1376 l 1
 352 764 l 1
 435 855 537 926 668 926 c 0
 879 926 1048 742 1048 481 c 0
 1048 166 839 -18 592 -18 c 0
 502 -18 423 2 352 35 c 1
EndSplineSet
EndChar

StartChar: ydieresis
Encoding: 255 255 185
Width: 971
Flags: MW
HStem: -395 209<170 196.5 132 280> 879 20G<-5 464 464 464 608 975 975 975> 1069 218<234.5 295 674 734.5>
VStem: 156 218<1147.5 1208> 596 218<1147.5 1208>
LayerCount: 2
Fore
SplineSet
265 1287 m 0
 325 1287 374 1238 374 1178 c 0
 374 1117 325 1069 265 1069 c 0
 204 1069 156 1117 156 1178 c 0
 156 1238 204 1287 265 1287 c 0
704 1287 m 0
 765 1287 814 1238 814 1178 c 0
 814 1117 765 1069 704 1069 c 0
 644 1069 596 1117 596 1178 c 0
 596 1238 644 1287 704 1287 c 0
465 0 m 1
 153 712 l 2
 89 857 65 818 -6 847 c 1
 -5 899 l 1
 464 899 l 1
 464 899 469 874 469 867 c 0
 469 849 432 840 417 830 c 1
 361 826 334 810 334 776 c 0
 334 762 340 743 347 721 c 1
 554 227 l 1
 723 675 l 2
 733 701 738 723 738 743 c 0
 738 801 697 828 608 843 c 1
 606 862 608 899 608 899 c 1
 975 899 l 1
 975 899 976 866 976 848 c 1
 931 812 861 827 827 707 c 1
 472 -167 l 2
 418 -301 346 -395 214 -395 c 0
 126 -395 60 -351 60 -279 c 0
 60 -224 105 -186 159 -186 c 0
 234 -186 233 -257 297 -257 c 0
 379 -257 424 -129 465 0 c 1
EndSplineSet
EndChar

StartChar: Amacron
Encoding: 256 256 186
Width: 1366
Flags: MW
HStem: 0 21G<-3 468 -3 -3 799 799 799 1381> 1304 20G<595 617.5> 1578 20G<294 896 896 896>
LayerCount: 2
Fore
SplineSet
896 1470 m 1
 294 1470 l 1
 294 1598 l 1
 896 1598 l 1
 896 1470 l 1
427 620 m 1
 807 620 l 1
 610 1112 l 1
 427 620 l 1
960 213 m 2
 844 532 l 1
 393 532 l 1
 321 338 l 2
 302 286 277 222 277 175 c 0
 277 97 369 78 468 57 c 1
 468 0 l 1
 -3 0 l 1
 -4 52 l 1
 36 85 120 89 156 163 c 0
 172 195 186 231 202 273 c 2
 576 1231 l 1
 585 1287 586 1311 595 1324 c 1
 640 1324 690 1324 751 1277 c 1
 1210 176 l 2
 1249 83 1339 76 1383 52 c 1
 1381 0 l 1
 799 0 l 1
 797 52 l 1
 879 77 965 109 965 180 c 0
 965 190 964 201 960 213 c 2
EndSplineSet
EndChar

StartChar: amacron
Encoding: 257 257 187
Width: 985
Flags: MW
HStem: -20 21G<239.5 367.5 732 814> 572 354<195.5 575.5> 852 345<404 485.5>
VStem: 82 197<183 268.5> 113 200<655.5 679.5 634.5 764> 621 187<200 205 205 455 455 455 514 541>
LayerCount: 2
Fore
SplineSet
784 1069 m 1xb4
 182 1069 l 1
 182 1197 l 1
 784 1197 l 1
 784 1069 l 1xb4
621 200 m 1
 621 455 l 1
 375 371 279 326 279 220 c 0
 279 146 320 93 403 93 c 0
 475 93 552 132 621 200 c 1
621 514 m 1
 621 609 l 2
 621 633 621 658 620 682 c 0
 616 794 533 852 438 852 c 0
 370 852 279 811 279 762 c 0xb4
 279 733 313 694 313 665 c 0
 313 604 269 572 222 572 c 0
 169 572 113 613 113 698 c 0
 113 830 284 926 483 926 c 0xcc
 668 926 779 866 798 716 c 0
 804 662 808 603 808 541 c 2
 808 205 l 2
 808 127 825 99 849 99 c 0
 874 99 907 130 937 168 c 1
 979 123 l 1
 904 -2 849 -20 779 -20 c 0
 685 -20 629 45 624 129 c 1
 531 28 423 -20 312 -20 c 0
 167 -20 82 66 82 178 c 0
 82 359 239 415 621 514 c 1
EndSplineSet
EndChar

StartChar: Abreve
Encoding: 258 258 188
Width: 1366
Flags: MW
HStem: 0 21G<-4 467 -4 -4 798 798 798 1380> 1304 20G<594 616.5> 1697 20G<348 405 405 405 783 841 841 841>
LayerCount: 2
Fore
SplineSet
348 1717 m 1
 405 1717 l 1
 413 1699 425 1683 439 1670 c 1
 465 1625 506 1601 595 1601 c 0
 686 1601 730 1626 756 1672 c 1
 768 1685 778 1699 783 1717 c 1
 841 1717 l 1
 841 1582 764 1470 595 1470 c 0
 422 1470 352 1579 348 1717 c 1
426 620 m 1
 806 620 l 1
 609 1112 l 1
 426 620 l 1
959 213 m 2
 843 532 l 1
 392 532 l 1
 320 338 l 2
 301 286 276 222 276 175 c 0
 276 97 368 78 467 57 c 1
 467 0 l 1
 -4 0 l 1
 -5 52 l 1
 35 85 119 89 155 163 c 0
 171 195 185 231 201 273 c 2
 575 1231 l 1
 584 1287 585 1311 594 1324 c 1
 639 1324 689 1324 750 1277 c 1
 1209 176 l 2
 1248 83 1338 76 1382 52 c 1
 1380 0 l 1
 798 0 l 1
 796 52 l 1
 878 77 964 109 964 180 c 0
 964 190 963 201 959 213 c 2
EndSplineSet
EndChar

StartChar: abreve
Encoding: 259 259 189
Width: 985
Flags: MW
HStem: -20 21G<238.5 366.5 731 813> 572 354<194.5 574.5> 852 348<438.5 484.5> 1296 20G<236 293 293 293 671 729 729 729>
VStem: 81 197<183 268.5> 112 200<655.5 679.5 634.5 764> 236 493<1248.5 1316> 620 187<200 205 205 455 455 455 514 541>
LayerCount: 2
Fore
SplineSet
236 1316 m 1xb2
 293 1316 l 1
 301 1298 313 1282 327 1269 c 1
 353 1224 394 1200 483 1200 c 0
 574 1200 618 1225 644 1271 c 1
 656 1284 666 1298 671 1316 c 1
 729 1316 l 1
 729 1181 652 1069 483 1069 c 0
 310 1069 240 1178 236 1316 c 1xb2
620 200 m 1xd9
 620 455 l 1
 374 371 278 326 278 220 c 0
 278 146 319 93 402 93 c 0
 474 93 551 132 620 200 c 1xd9
620 514 m 1
 620 609 l 2
 620 633 620 658 619 682 c 0
 615 794 532 852 437 852 c 0
 369 852 278 811 278 762 c 0xb9
 278 733 312 694 312 665 c 0
 312 604 268 572 221 572 c 0
 168 572 112 613 112 698 c 0xd5
 112 830 283 926 482 926 c 0
 667 926 778 866 797 716 c 0
 803 662 807 603 807 541 c 2
 807 205 l 2
 807 127 824 99 848 99 c 0
 873 99 906 130 936 168 c 1
 978 123 l 1
 903 -2 848 -20 778 -20 c 0
 684 -20 628 45 623 129 c 1
 530 28 422 -20 311 -20 c 0
 166 -20 81 66 81 178 c 0
 81 359 238 415 620 514 c 1
EndSplineSet
EndChar

StartChar: Aogonek
Encoding: 260 260 190
Width: 1366
Flags: MW
HStem: -381 21G<638.5 732> 0 21G<-3 468 -3 -3 799 799 799 1381> 1304 20G<595 617.5>
LayerCount: 2
Fore
SplineSet
596 -10 m 1
 624 0 655 7 689 13 c 1
 677 -34 652 -49 638 -78 c 0
 625 -103 617 -129 617 -155 c 0
 617 -240 698 -274 764 -274 c 0
 803 -274 841 -261 878 -244 c 1
 889 -324 l 1
 810 -367 767 -381 697 -381 c 0
 580 -381 485 -312 485 -198 c 0
 485 -120 534 -54 596 -10 c 1
427 620 m 1
 807 620 l 1
 610 1112 l 1
 427 620 l 1
960 213 m 2
 844 532 l 1
 393 532 l 1
 321 338 l 2
 302 286 277 222 277 175 c 0
 277 97 369 78 468 57 c 1
 468 0 l 1
 -3 0 l 1
 -4 52 l 1
 36 85 120 89 156 163 c 0
 172 195 186 231 202 273 c 2
 576 1231 l 1
 585 1287 586 1311 595 1324 c 1
 640 1324 690 1324 751 1277 c 1
 1210 176 l 2
 1249 83 1339 76 1383 52 c 1
 1381 0 l 1
 799 0 l 1
 797 52 l 1
 879 77 965 109 965 180 c 0
 965 190 964 201 960 213 c 2
EndSplineSet
EndChar

StartChar: aogonek
Encoding: 261 261 191
Width: 985
Flags: MW
HStem: -401 21G<494.5 588> -20 21G<238.5 366.5 731 813> 572 354<194.5 574.5>
VStem: 81 197<183 268.5> 112 166<747.5 764> 620 187<200 205 205 455 455 455 514 541>
LayerCount: 2
Fore
SplineSet
452 -30 m 1xf4
 480 -20 511 -13 545 -7 c 1
 533 -54 508 -69 494 -98 c 0
 481 -123 473 -149 473 -175 c 0
 473 -260 554 -294 620 -294 c 0
 659 -294 697 -281 734 -264 c 1
 745 -344 l 1
 666 -387 623 -401 553 -401 c 0
 436 -401 341 -332 341 -218 c 0
 341 -140 390 -74 452 -30 c 1xf4
620 200 m 1
 620 455 l 1
 374 371 278 326 278 220 c 0
 278 146 319 93 402 93 c 0
 474 93 551 132 620 200 c 1
620 514 m 1
 620 609 l 2
 620 633 620 658 619 682 c 0
 615 794 532 852 437 852 c 0
 369 852 278 811 278 762 c 0
 278 733 312 694 312 665 c 0
 312 604 268 572 221 572 c 0
 168 572 112 613 112 698 c 0xec
 112 830 283 926 482 926 c 0
 667 926 778 866 797 716 c 0
 803 662 807 603 807 541 c 2
 807 205 l 2
 807 127 824 99 848 99 c 0
 873 99 906 130 936 168 c 1
 978 123 l 1
 903 -2 848 -20 778 -20 c 0
 684 -20 628 45 623 129 c 1
 530 28 422 -20 311 -20 c 0
 166 -20 81 66 81 178 c 0
 81 359 238 415 620 514 c 1
EndSplineSet
EndChar

StartChar: Cacute
Encoding: 262 262 192
Width: 1438
Flags: MW
HStem: -26 21G<609.5 886> 1307 20G<633.5 930.5> 1924 20G<1026.5 1058>
VStem: 111 234<497.5 831>
LayerCount: 2
Fore
SplineSet
1097 1816 m 0
 995 1723 810 1551 741 1490 c 0
 725 1476 711 1470 701 1470 c 0
 686 1470 678 1481 678 1496 c 0
 678 1505 682 1516 689 1526 c 0
 772 1636 911 1823 976 1910 c 0
 994 1934 1016 1944 1037 1944 c 0
 1079 1944 1118 1902 1118 1862 c 0
 1118 1845 1112 1829 1097 1816 c 0
1279 1245 m 1
 1320 943 l 1
 1273 941 l 1
 1234 980 1197 1075 1155 1117 c 0
 1063 1209 951 1250 835 1250 c 0
 580 1250 345 1048 345 680 c 0
 345 315 554 81 877 81 c 0
 1055 81 1203 155 1282 304 c 1
 1331 297 l 1
 1322 108 l 1
 1175 26 967 -26 805 -26 c 0
 414 -26 111 225 111 640 c 0
 111 1022 404 1327 863 1327 c 0
 998 1327 1135 1301 1279 1245 c 1
EndSplineSet
EndChar

StartChar: cacute
Encoding: 263 263 193
Width: 952
Flags: MW
HStem: -20 21G<384 603.5> 642 284<425.5 814> 1523 20G<793.5 825>
VStem: 84 183<400 580.5>
LayerCount: 2
Fore
SplineSet
864 1415 m 0
 762 1322 577 1150 508 1089 c 0
 492 1075 478 1069 468 1069 c 0
 453 1069 445 1080 445 1095 c 0
 445 1104 449 1115 456 1125 c 0
 539 1235 678 1422 743 1509 c 0
 761 1533 783 1543 804 1543 c 0
 846 1543 885 1501 885 1461 c 0
 885 1444 879 1428 864 1415 c 0
849 211 m 1
 881 188 l 1
 838 49 680 -20 527 -20 c 0
 241 -20 84 203 84 448 c 0
 84 713 277 926 574 926 c 0
 741 926 892 868 892 737 c 0
 892 670 831 642 797 642 c 0
 647 642 792 852 559 852 c 0
 408 852 267 734 267 502 c 0
 267 298 377 120 584 120 c 0
 705 120 770 149 849 211 c 1
EndSplineSet
EndChar

StartChar: Cdotaccent
Encoding: 266 266 194
Width: 1438
Flags: MW
HStem: -26 21G<608.5 885> 1307 20G<632.5 929.5> 1470 218<690.5 750.5>
VStem: 110 234<497.5 831> 611 219<1548.5 1609>
LayerCount: 2
Fore
SplineSet
720 1688 m 0
 781 1688 830 1639 830 1579 c 0
 830 1518 781 1470 720 1470 c 0
 661 1470 611 1518 611 1579 c 0
 611 1639 661 1688 720 1688 c 0
1278 1245 m 1
 1319 943 l 1
 1272 941 l 1
 1233 980 1196 1075 1154 1117 c 0
 1062 1209 950 1250 834 1250 c 0
 579 1250 344 1048 344 680 c 0
 344 315 553 81 876 81 c 0
 1054 81 1202 155 1281 304 c 1
 1330 297 l 1
 1321 108 l 1
 1174 26 966 -26 804 -26 c 0
 413 -26 110 225 110 640 c 0
 110 1022 403 1327 862 1327 c 0
 997 1327 1134 1301 1278 1245 c 1
EndSplineSet
EndChar

StartChar: cdotaccent
Encoding: 267 267 195
Width: 952
Flags: MW
HStem: -20 21G<383 602.5> 642 284<424.5 813> 1069 218<457.5 517.5>
VStem: 83 183<400 580.5> 378 219<1147.5 1208>
LayerCount: 2
Fore
SplineSet
487 1287 m 0
 548 1287 597 1238 597 1178 c 0
 597 1117 548 1069 487 1069 c 0
 428 1069 378 1117 378 1178 c 0
 378 1238 428 1287 487 1287 c 0
848 211 m 1
 880 188 l 1
 837 49 679 -20 526 -20 c 0
 240 -20 83 203 83 448 c 0
 83 713 276 926 573 926 c 0
 740 926 891 868 891 737 c 0
 891 670 830 642 796 642 c 0
 646 642 791 852 558 852 c 0
 407 852 266 734 266 502 c 0
 266 298 376 120 583 120 c 0
 704 120 769 149 848 211 c 1
EndSplineSet
EndChar

StartChar: Ccaron
Encoding: 268 268 196
Width: 1438
Flags: MW
HStem: -26 21G<608.5 885> 1307 20G<632.5 929.5> 1849 20G<469.5 479 962 971.5>
VStem: 110 234<497.5 831>
LayerCount: 2
Fore
SplineSet
805 1490 m 1
 765 1479 717 1470 668 1470 c 1
 612 1516 535 1675 475 1791 c 0
 463 1813 452 1834 443 1856 c 1
 448 1864 460 1869 479 1869 c 1
 538 1839 597 1763 666 1690 c 2
 733 1618 l 1
 824 1727 899 1829 962 1869 c 1
 981 1869 993 1864 998 1856 c 1
 962 1766 850 1571 805 1490 c 1
1278 1245 m 1
 1319 943 l 1
 1272 941 l 1
 1233 980 1196 1075 1154 1117 c 0
 1062 1209 950 1250 834 1250 c 0
 579 1250 344 1048 344 680 c 0
 344 315 553 81 876 81 c 0
 1054 81 1202 155 1281 304 c 1
 1330 297 l 1
 1321 108 l 1
 1174 26 966 -26 804 -26 c 0
 413 -26 110 225 110 640 c 0
 110 1022 403 1327 862 1327 c 0
 997 1327 1134 1301 1278 1245 c 1
EndSplineSet
EndChar

StartChar: ccaron
Encoding: 269 269 197
Width: 952
Flags: MW
HStem: -20 21G<383 602.5> 642 284<424.5 813> 1448 20G<236.5 246 729 738.5>
VStem: 83 183<400 580.5>
LayerCount: 2
Fore
SplineSet
572 1089 m 1
 532 1078 484 1069 435 1069 c 1
 379 1115 302 1274 242 1390 c 0
 230 1412 219 1433 210 1455 c 1
 215 1463 227 1468 246 1468 c 1
 305 1438 364 1362 433 1289 c 2
 500 1217 l 1
 591 1326 666 1428 729 1468 c 1
 748 1468 760 1463 765 1455 c 1
 729 1365 617 1170 572 1089 c 1
848 211 m 1
 880 188 l 1
 837 49 679 -20 526 -20 c 0
 240 -20 83 203 83 448 c 0
 83 713 276 926 573 926 c 0
 740 926 891 868 891 737 c 0
 891 670 830 642 796 642 c 0
 646 642 791 852 558 852 c 0
 407 852 266 734 266 502 c 0
 266 298 376 120 583 120 c 0
 704 120 769 149 848 211 c 1
EndSplineSet
EndChar

StartChar: Dcaron
Encoding: 270 270 198
Width: 1597
Flags: MW
HStem: 0 21G<59 778 59 59> 1849 20G<528.5 538 1021 1030.5>
VStem: 281 215<219 271 271 1010 1010 1031.5> 1263 238<489.5 781.5>
LayerCount: 2
Fore
SplineSet
864 1490 m 1
 824 1479 776 1470 727 1470 c 1
 671 1516 594 1675 534 1791 c 0
 522 1813 511 1834 502 1856 c 1
 507 1864 519 1869 538 1869 c 1
 597 1839 656 1763 725 1690 c 2
 792 1618 l 1
 883 1727 958 1829 1021 1869 c 1
 1040 1869 1052 1864 1057 1856 c 1
 1021 1766 909 1571 864 1490 c 1
664 1225 m 2
 496 1225 l 1
 496 271 l 2
 496 166 529 85 644 80 c 0
 681 78 722 77 759 77 c 0
 1105 77 1263 352 1263 609 c 0
 1263 954 1083 1225 664 1225 c 2
281 219 m 2
 281 1010 l 2
 281 1053 277 1094 271 1131 c 0
 256 1212 130 1226 57 1251 c 1
 59 1302 l 1
 651 1302 l 2
 1127 1302 1501 1130 1501 658 c 0
 1501 321 1256 0 778 0 c 2
 59 0 l 1
 57 52 l 1
 154 81 281 81 281 219 c 2
EndSplineSet
EndChar

StartChar: dcaron
Encoding: 271 271 199
Width: 1180
Flags: MW
HStem: -20 21G<373.5 547> -12 21G<812 879 812 812> 903 20G<410.5 588> 1356 20G<984 984 1478.5 1574>
VStem: 79 186<386.5 564> 798 186<222 510 510 567.5 849 1175 1175 1175> 1381 333<1007 1278>
LayerCount: 2
Fore
SplineSet
1379 797 m 1xbe
 1370 812 1361 829 1361 857 c 1
 1465 891 1581 912 1581 1042 c 1
 1562 1087 1532 1112 1479 1121 c 0
 1416 1131 1381 1175 1381 1239 c 0
 1381 1317 1436 1376 1521 1376 c 0
 1627 1376 1714 1282 1714 1110 c 0
 1714 904 1557 800 1379 797 c 1xbe
798 222 m 1
 798 510 l 2
 798 625 787 706 712 772 c 0
 660 818 597 846 533 846 c 0
 369 846 265 671 265 477 c 0
 265 296 361 99 561 99 c 0
 668 99 747 154 798 222 c 1
798 849 m 1
 798 1175 l 1
 769 1220 628 1266 628 1266 c 1
 630 1301 l 1
 912 1369 l 1
 984 1376 l 1
 984 199 l 2
 984 103 1088 95 1146 87 c 1
 1146 32 l 1
 879 -12 l 1
 812 -12 l 1x7e
 803 143 l 1
 709 35 607 -20 487 -20 c 0
 260 -20 79 153 79 414 c 0
 79 714 278 923 543 923 c 0
 633 923 713 889 798 849 c 1
EndSplineSet
EndChar

StartChar: Dcroat
Encoding: 272 272 200
Width: 1420
Flags: MW
HStem: 0 21G<60 779 60 60> 1225 194<497 665 497 497>
VStem: 282 215<219 271 271 1010 1010 1031.5> 1264 238<489.5 781.5>
LayerCount: 2
Fore
SplineSet
936 1419 m 1
 936 1301 l 1
 443 1301 l 1
 443 1419 l 1
 936 1419 l 1
665 1225 m 2
 497 1225 l 1
 497 271 l 2
 497 166 530 85 645 80 c 0
 682 78 723 77 760 77 c 0
 1106 77 1264 352 1264 609 c 0
 1264 954 1084 1225 665 1225 c 2
282 219 m 2
 282 1010 l 2
 282 1053 278 1094 272 1131 c 0
 257 1212 131 1226 58 1251 c 1
 60 1302 l 1
 652 1302 l 2
 1128 1302 1502 1130 1502 658 c 0
 1502 321 1257 0 779 0 c 2
 60 0 l 1
 58 52 l 1
 155 81 282 81 282 219 c 2
EndSplineSet
EndChar

StartChar: dslash
Encoding: 273 273 201
Width: 1187
Flags: MW
HStem: -20 21G<374.5 548> -12 21G<813 880 813 813> 846 263<519 566> 903 20G<411.5 589> 1356 20G<985 985>
VStem: 80 186<386.5 564> 799 186<222 510 510 567.5 849 1175 1175 1175>
LayerCount: 2
Fore
SplineSet
1121 981 m 1xae
 519 981 l 1
 519 1109 l 1
 1121 1109 l 1
 1121 981 l 1xae
799 222 m 1
 799 510 l 2
 799 625 788 706 713 772 c 0
 661 818 598 846 534 846 c 0
 370 846 266 671 266 477 c 0
 266 296 362 99 562 99 c 0
 669 99 748 154 799 222 c 1
799 849 m 1
 799 1175 l 1
 770 1220 629 1266 629 1266 c 1
 631 1301 l 1
 913 1369 l 1
 985 1376 l 1
 985 199 l 2
 985 103 1089 95 1147 87 c 1
 1147 32 l 1
 880 -12 l 1
 813 -12 l 1x6e
 804 143 l 1
 710 35 608 -20 488 -20 c 0
 261 -20 80 153 80 414 c 0
 80 714 279 923 544 923 c 0x9e
 634 923 714 889 799 849 c 1
EndSplineSet
EndChar

StartChar: Emacron
Encoding: 274 274 202
Width: 1360
Flags: MW
HStem: -12 21G<1181 1205.5> 0 21G<59 1085 59 59> 1292 20G<1168.5 1193.5> 1578 20G<377 979 979 979>
VStem: 270 215<267 304 304 641 717 1024 1024 1045>
LayerCount: 2
Fore
SplineSet
979 1470 m 1x78
 377 1470 l 1
 377 1598 l 1
 979 1598 l 1
 979 1470 l 1x78
1235 344 m 1
 1298 342 l 1
 1232 -9 l 1
 1222 -11 1211 -12 1200 -12 c 0xb8
 1162 -12 1123 0 1085 0 c 2
 59 0 l 1
 57 49 l 1
 118 83 237 63 258 151 c 0
 266 184 270 223 270 267 c 2
 270 1024 l 2
 270 1066 266 1102 259 1137 c 0
 242 1216 120 1226 57 1251 c 1
 59 1302 l 1
 1079 1302 l 2
 1112 1302 1150 1312 1187 1312 c 0
 1200 1312 1212 1311 1224 1308 c 1
 1224 997 l 1
 1172 995 l 1
 1118 1047 1111 1182 1022 1207 c 0
 912 1237 762 1235 622 1235 c 0
 572 1235 523 1233 489 1226 c 1
 486 1195 485 1161 485 1123 c 2
 485 717 l 1
 773 717 l 2
 957 717 958 763 1026 893 c 1
 1083 891 l 1
 1083 462 l 1
 1026 459 l 1
 993 548 943 641 812 641 c 2
 485 641 l 1
 485 304 l 2
 485 165 512 74 637 74 c 1
 818 77 l 2
 979 80 1098 76 1164 215 c 0
 1186 262 1210 316 1235 344 c 1
EndSplineSet
EndChar

StartChar: emacron
Encoding: 275 275 203
Width: 958
Flags: MW
HStem: -20 21G<393.5 586> 859 338<432 559.5> 906 20G<406 618.5>
VStem: 81 176<366 501.5 366 590.5>
LayerCount: 2
Fore
SplineSet
787 1069 m 1xd0
 185 1069 l 1
 185 1197 l 1
 787 1197 l 1
 787 1069 l 1xd0
265 585 m 1
 618 594 l 2
 645 595 671 600 692 610 c 1
 683 765 620 859 499 859 c 0
 365 859 282 735 265 585 c 1
890 526 m 1
 258 526 l 1
 257 516 257 506 257 497 c 0
 257 235 413 121 596 121 c 0
 682 121 761 145 839 193 c 1
 868 165 l 1
 818 44 651 -20 521 -20 c 0
 266 -20 81 169 81 447 c 0
 81 734 290 926 522 926 c 0xb0
 715 926 853 801 879 620 c 1
 886 591 890 562 890 535 c 2
 890 526 l 1
EndSplineSet
EndChar

StartChar: Eogonek
Encoding: 280 280 204
Width: 1360
Flags: MW
HStem: -393 21G<627.5 721> -12 21G<1181 1205.5> 0 21G<59 1085 59 59> 1292 20G<1168.5 1193.5>
VStem: 270 215<267 304 304 641 717 1024 1024 1045>
LayerCount: 2
Fore
SplineSet
585 -22 m 1xb8
 613 -12 644 -5 678 1 c 1
 666 -46 641 -61 627 -90 c 0
 614 -115 606 -141 606 -167 c 0
 606 -252 687 -286 753 -286 c 0
 792 -286 830 -273 867 -256 c 1
 878 -336 l 1
 799 -379 756 -393 686 -393 c 0
 569 -393 474 -324 474 -210 c 0
 474 -132 523 -66 585 -22 c 1xb8
1235 344 m 1
 1298 342 l 1
 1232 -9 l 1
 1222 -11 1211 -12 1200 -12 c 0xd8
 1162 -12 1123 0 1085 0 c 2
 59 0 l 1
 57 49 l 1
 118 83 237 63 258 151 c 0
 266 184 270 223 270 267 c 2
 270 1024 l 2
 270 1066 266 1102 259 1137 c 0
 242 1216 120 1226 57 1251 c 1
 59 1302 l 1
 1079 1302 l 2
 1112 1302 1150 1312 1187 1312 c 0
 1200 1312 1212 1311 1224 1308 c 1
 1224 997 l 1
 1172 995 l 1
 1118 1047 1111 1182 1022 1207 c 0
 912 1237 762 1235 622 1235 c 0
 572 1235 523 1233 489 1226 c 1
 486 1195 485 1161 485 1123 c 2
 485 717 l 1
 773 717 l 2
 957 717 958 763 1026 893 c 1
 1083 891 l 1
 1083 462 l 1
 1026 459 l 1
 993 548 943 641 812 641 c 2
 485 641 l 1
 485 304 l 2
 485 165 512 74 637 74 c 1
 818 77 l 2
 979 80 1098 76 1164 215 c 0
 1186 262 1210 316 1235 344 c 1
EndSplineSet
EndChar

StartChar: eogonek
Encoding: 281 281 205
Width: 958
Flags: MW
HStem: -401 21G<435.5 529> -20 21G<393.5 586> 906 20G<406 618.5>
VStem: 81 176<366 501.5 366 590.5>
LayerCount: 2
Fore
SplineSet
393 -30 m 1
 421 -20 452 -13 486 -7 c 1
 474 -54 449 -69 435 -98 c 0
 422 -123 414 -149 414 -175 c 0
 414 -260 495 -294 561 -294 c 0
 600 -294 638 -281 675 -264 c 1
 686 -344 l 1
 607 -387 564 -401 494 -401 c 0
 377 -401 282 -332 282 -218 c 0
 282 -140 331 -74 393 -30 c 1
265 585 m 1
 618 594 l 2
 645 595 671 600 692 610 c 1
 683 765 620 859 499 859 c 0
 365 859 282 735 265 585 c 1
890 526 m 1
 258 526 l 1
 257 516 257 506 257 497 c 0
 257 235 413 121 596 121 c 0
 682 121 761 145 839 193 c 1
 868 165 l 1
 818 44 651 -20 521 -20 c 0
 266 -20 81 169 81 447 c 0
 81 734 290 926 522 926 c 0
 715 926 853 801 879 620 c 1
 886 591 890 562 890 535 c 2
 890 526 l 1
EndSplineSet
EndChar

StartChar: Ecaron
Encoding: 282 282 206
Width: 1360
Flags: MW
HStem: -12 21G<1182 1206.5> 0 21G<60 1086 60 60> 1292 20G<1169.5 1194.5> 1849 20G<427.5 437 920 929.5>
VStem: 271 215<267 304 304 641 717 1024 1024 1045>
LayerCount: 2
Fore
SplineSet
763 1490 m 1x78
 723 1479 675 1470 626 1470 c 1
 570 1516 493 1675 433 1791 c 0
 421 1813 410 1834 401 1856 c 1
 406 1864 418 1869 437 1869 c 1
 496 1839 555 1763 624 1690 c 2
 691 1618 l 1
 782 1727 857 1829 920 1869 c 1
 939 1869 951 1864 956 1856 c 1
 920 1766 808 1571 763 1490 c 1x78
1236 344 m 1
 1299 342 l 1
 1233 -9 l 1
 1223 -11 1212 -12 1201 -12 c 0xb8
 1163 -12 1124 0 1086 0 c 2
 60 0 l 1
 58 49 l 1
 119 83 238 63 259 151 c 0
 267 184 271 223 271 267 c 2
 271 1024 l 2
 271 1066 267 1102 260 1137 c 0
 243 1216 121 1226 58 1251 c 1
 60 1302 l 1
 1080 1302 l 2
 1113 1302 1151 1312 1188 1312 c 0
 1201 1312 1213 1311 1225 1308 c 1
 1225 997 l 1
 1173 995 l 1
 1119 1047 1112 1182 1023 1207 c 0
 913 1237 763 1235 623 1235 c 0
 573 1235 524 1233 490 1226 c 1
 487 1195 486 1161 486 1123 c 2
 486 717 l 1
 774 717 l 2
 958 717 959 763 1027 893 c 1
 1084 891 l 1
 1084 462 l 1
 1027 459 l 1
 994 548 944 641 813 641 c 2
 486 641 l 1
 486 304 l 2
 486 165 513 74 638 74 c 1
 819 77 l 2
 980 80 1099 76 1165 215 c 0
 1187 262 1211 316 1236 344 c 1
EndSplineSet
EndChar

StartChar: ecaron
Encoding: 283 283 207
Width: 958
Flags: MW
HStem: -20 21G<394.5 587> 906 20G<407 619.5> 1448 20G<235.5 245 728 737.5>
VStem: 82 176<366 501.5 366 590.5>
LayerCount: 2
Fore
SplineSet
571 1089 m 1
 531 1078 483 1069 434 1069 c 1
 378 1115 301 1274 241 1390 c 0
 229 1412 218 1433 209 1455 c 1
 214 1463 226 1468 245 1468 c 1
 304 1438 363 1362 432 1289 c 2
 499 1217 l 1
 590 1326 665 1428 728 1468 c 1
 747 1468 759 1463 764 1455 c 1
 728 1365 616 1170 571 1089 c 1
266 585 m 1
 619 594 l 2
 646 595 672 600 693 610 c 1
 684 765 621 859 500 859 c 0
 366 859 283 735 266 585 c 1
891 526 m 1
 259 526 l 1
 258 516 258 506 258 497 c 0
 258 235 414 121 597 121 c 0
 683 121 762 145 840 193 c 1
 869 165 l 1
 819 44 652 -20 522 -20 c 0
 267 -20 82 169 82 447 c 0
 82 734 291 926 523 926 c 0
 716 926 854 801 880 620 c 1
 887 591 891 562 891 535 c 2
 891 526 l 1
EndSplineSet
EndChar

StartChar: Gbreve
Encoding: 286 286 208
Width: 1558
Flags: MW
HStem: -26 21G<620 943.5> 1250 351<767.5 857.5 767.5 922.5> 1307 20G<670.5 964> 1697 20G<565 622 622 622 1000 1058 1058 1058>
VStem: 90 239<498.5 839 498.5 846.5> 565 493<1649.5 1717> 1144 220<329 410>
LayerCount: 2
Fore
SplineSet
565 1717 m 1xde
 622 1717 l 1
 630 1699 642 1683 656 1670 c 1
 682 1625 723 1601 812 1601 c 0
 903 1601 947 1626 973 1672 c 1
 985 1685 995 1699 1000 1717 c 1
 1058 1717 l 1
 1058 1582 981 1470 812 1470 c 0
 639 1470 569 1579 565 1717 c 1xde
1364 463 m 2
 1364 95 l 1
 1230 25 1039 -26 848 -26 c 0
 392 -26 90 237 90 638 c 0
 90 1055 456 1327 885 1327 c 0xbe
 1043 1327 1160 1305 1324 1247 c 1
 1354 945 l 1
 1333 943 1313 942 1296 942 c 1
 1259 974 1230 1062 1198 1100 c 0
 1105 1211 986 1250 859 1250 c 0
 550 1250 329 1003 329 675 c 0
 329 322 546 62 865 62 c 0
 972 62 1053 78 1132 127 c 1
 1140 195 1144 277 1144 381 c 0
 1144 439 1136 498 1116 553 c 0
 1092 621 982 609 928 632 c 1
 928 649 930 684 930 684 c 1
 1530 684 l 1
 1530 684 1532 648 1532 632 c 1
 1450 601 1364 587 1364 463 c 2
EndSplineSet
EndChar

StartChar: gbreve
Encoding: 287 287 209
Width: 999
Flags: MW
HStem: -351 21G<323 576.5> 1 170 852 348<464.5 501.5> 906 20G<356.5 499.5> 1296 20G<262 319 319 319 697 755 755 755>
VStem: 110 178<562.5 699 562.5 704.5> 262 493<1248.5 1316> 637 175<531.5 670 520.5 680>
LayerCount: 2
Fore
SplineSet
262 1316 m 1xea
 319 1316 l 1
 327 1298 339 1282 353 1269 c 1
 379 1224 420 1200 509 1200 c 0
 600 1200 644 1225 670 1271 c 1
 682 1284 692 1298 697 1316 c 1
 755 1316 l 1
 755 1181 678 1069 509 1069 c 0
 336 1069 266 1178 262 1316 c 1xea
560 1 m 2
 481 2 l 2
 423 3 366 8 303 15 c 1
 233 -45 206 -94 206 -137 c 0
 206 -242 385 -268 468 -268 c 0
 602 -268 803 -223 803 -118 c 0
 803 -47 730 -2 560 1 c 2
288 634 m 0xed
 288 491 346 374 477 374 c 0
 589 374 637 466 637 597 c 0
 637 763 554 852 449 852 c 0
 359 852 288 764 288 634 c 0xed
941 888 m 1
 926 761 l 1
 873 777 733 803 733 803 c 1
 733 803 812 714 812 626 c 0
 812 415 630 308 458 308 c 0
 420 308 382 314 330 326 c 1
 299 302 259 292 259 243 c 0
 259 174 404 189 656 171 c 0
 817 159 939 87 939 -52 c 0
 939 -238 711 -351 442 -351 c 0
 204 -351 76 -263 76 -184 c 0
 76 -128 119 -57 229 24 c 1
 156 54 110 103 110 163 c 0
 110 239 180 297 275 352 c 1
 172 410 110 498 110 613 c 0
 110 796 256 926 457 926 c 0xdd
 542 926 614 906 677 873 c 1
 677 873 803 892 894 892 c 0
 917 892 941 888 941 888 c 1
EndSplineSet
EndChar

StartChar: Gdotaccent
Encoding: 288 288 210
Width: 1558
Flags: MW
HStem: -26 21G<620 943.5> 1307 20G<670.5 964> 1470 218<781.5 841.5>
VStem: 90 239<498.5 839 498.5 846.5> 702 219<1548.5 1609> 1144 220<329 410>
LayerCount: 2
Fore
SplineSet
811 1688 m 0
 872 1688 921 1639 921 1579 c 0
 921 1518 872 1470 811 1470 c 0
 752 1470 702 1518 702 1579 c 0
 702 1639 752 1688 811 1688 c 0
1364 463 m 2
 1364 95 l 1
 1230 25 1039 -26 848 -26 c 0
 392 -26 90 237 90 638 c 0
 90 1055 456 1327 885 1327 c 0
 1043 1327 1160 1305 1324 1247 c 1
 1354 945 l 1
 1333 943 1313 942 1296 942 c 1
 1259 974 1230 1062 1198 1100 c 0
 1105 1211 986 1250 859 1250 c 0
 550 1250 329 1003 329 675 c 0
 329 322 546 62 865 62 c 0
 972 62 1053 78 1132 127 c 1
 1140 195 1144 277 1144 381 c 0
 1144 439 1136 498 1116 553 c 0
 1092 621 982 609 928 632 c 1
 928 649 930 684 930 684 c 1
 1530 684 l 1
 1530 684 1532 648 1532 632 c 1
 1450 601 1364 587 1364 463 c 2
EndSplineSet
EndChar

StartChar: gdotaccent
Encoding: 289 289 211
Width: 999
Flags: MW
HStem: -351 21G<323 576.5> 1 170 906 20G<356.5 499.5> 1069 218<478.5 538.5>
VStem: 110 178<562.5 699 562.5 704.5> 399 219<1147.5 1208> 637 175<531.5 670 520.5 680>
LayerCount: 2
Fore
SplineSet
508 1287 m 0
 569 1287 618 1238 618 1178 c 0
 618 1117 569 1069 508 1069 c 0
 449 1069 399 1117 399 1178 c 0
 399 1238 449 1287 508 1287 c 0
560 1 m 2
 481 2 l 2
 423 3 366 8 303 15 c 1
 233 -45 206 -94 206 -137 c 0
 206 -242 385 -268 468 -268 c 0
 602 -268 803 -223 803 -118 c 0
 803 -47 730 -2 560 1 c 2
288 634 m 0
 288 491 346 374 477 374 c 0
 589 374 637 466 637 597 c 0
 637 763 554 852 449 852 c 0
 359 852 288 764 288 634 c 0
941 888 m 1
 926 761 l 1
 873 777 733 803 733 803 c 1
 733 803 812 714 812 626 c 0
 812 415 630 308 458 308 c 0
 420 308 382 314 330 326 c 1
 299 302 259 292 259 243 c 0
 259 174 404 189 656 171 c 0
 817 159 939 87 939 -52 c 0
 939 -238 711 -351 442 -351 c 0
 204 -351 76 -263 76 -184 c 0
 76 -128 119 -57 229 24 c 1
 156 54 110 103 110 163 c 0
 110 239 180 297 275 352 c 1
 172 410 110 498 110 613 c 0
 110 796 256 926 457 926 c 0
 542 926 614 906 677 873 c 1
 677 873 803 892 894 892 c 0
 917 892 941 888 941 888 c 1
EndSplineSet
EndChar

StartChar: Gcommaaccent
Encoding: 290 290 212
Width: 1558
Flags: MW
HStem: -656 21G<723.5 777> -485 20G<763.5 818> -26 21G<620 943.5> 1307 20G<670.5 964>
VStem: 90 239<498.5 839 498.5 846.5> 652 319<-357.5 -304 -481.5 -279> 693 278<-633.5 -304> 1144 220<329 410>
LayerCount: 2
Fore
SplineSet
652 -317 m 0xfd
 652 -241 713 -169 805 -169 c 0
 890 -169 971 -217 971 -391 c 0
 971 -572 819 -656 735 -656 c 0
 712 -656 693 -649 693 -618 c 0xfb
 693 -566 818 -593 818 -465 c 1
 709 -465 652 -398 652 -317 c 0xfd
1364 463 m 2
 1364 95 l 1
 1230 25 1039 -26 848 -26 c 0
 392 -26 90 237 90 638 c 0
 90 1055 456 1327 885 1327 c 0
 1043 1327 1160 1305 1324 1247 c 1
 1354 945 l 1
 1333 943 1313 942 1296 942 c 1
 1259 974 1230 1062 1198 1100 c 0
 1105 1211 986 1250 859 1250 c 0
 550 1250 329 1003 329 675 c 0
 329 322 546 62 865 62 c 0
 972 62 1053 78 1132 127 c 1
 1140 195 1144 277 1144 381 c 0
 1144 439 1136 498 1116 553 c 0
 1092 621 982 609 928 632 c 1
 928 649 930 684 930 684 c 1
 1530 684 l 1
 1530 684 1532 648 1532 632 c 1
 1450 601 1364 587 1364 463 c 2
EndSplineSet
EndChar

StartChar: gcommaaccent
Encoding: 291 291 213
Width: 965
Flags: MW
HStem: -351 21G<323 576.5> -268 269<426.5 560> 1 170 892 168 906 20G<356.5 499.5> 1575 20G
VStem: 110 178<562.5 699 562.5 704.5> 345 320<1205.5 1221 1153 1338> 637 175<531.5 670 520.5 680>
LayerCount: 2
Fore
SplineSet
560 1 m 2xd680
 481 2 l 2
 423 3 366 8 303 15 c 1
 233 -45 206 -94 206 -137 c 0
 206 -242 385 -268 468 -268 c 0
 602 -268 803 -223 803 -118 c 0
 803 -47 730 -2 560 1 c 2xd680
288 634 m 0
 288 491 346 374 477 374 c 0
 589 374 637 466 637 597 c 0
 637 763 554 852 449 852 c 0
 359 852 288 764 288 634 c 0
941 888 m 1
 926 761 l 1
 873 777 733 803 733 803 c 1
 733 803 812 714 812 626 c 0
 812 415 630 308 458 308 c 0
 420 308 382 314 330 326 c 1
 299 302 259 292 259 243 c 0
 259 174 404 189 656 171 c 0
 817 159 939 87 939 -52 c 0
 939 -238 711 -351 442 -351 c 0
 204 -351 76 -263 76 -184 c 0
 76 -128 119 -57 229 24 c 1
 156 54 110 103 110 163 c 0
 110 239 180 297 275 352 c 1
 172 410 110 498 110 613 c 0
 110 796 256 926 457 926 c 0xae80
 542 926 614 906 677 873 c 1
 677 873 803 892 894 892 c 0
 917 892 941 888 941 888 c 1
617 1595 m 1
 633 1582 647 1565 653 1539 c 1
 569 1491 474 1460 474 1356 c 1
 493 1329 519 1310 560 1303 c 0
 631 1290 665 1252 665 1190 c 0
 665 1116 609 1060 526 1060 c 0
 418 1060 345 1145 345 1266 c 0xb7
 345 1410 444 1564 617 1595 c 1
EndSplineSet
EndChar

StartChar: Hbar
Encoding: 294 294 214
Width: 1624
Flags: MW
HStem: 0 21G<69 704 69 69 936 1559 936 936> 576 349<484 1141 484 1141> 1156 20G<69 700 700 700 936 1555 1555 1555>
VStem: 64 420<15.5 124> 269 215<130 576 636 807 925 1030> 269 439<15.5 1030> 931 425<15.5 124> 1141 215<130 576 576 576 636 807 807 807 925 1030> 1141 422<15.5 576>
LayerCount: 2
Fore
SplineSet
69 1176 m 1xea
 700 1176 l 1
 703 1166 705 1160 705 1158 c 0
 705 1099 484 1139 484 1030 c 2
 484 925 l 1
 1141 925 l 1
 1141 1030 l 2xf1
 1141 1134 932 1100 932 1159 c 0
 932 1160 933 1166 936 1176 c 1
 1555 1176 l 1
 1558 1166 1560 1160 1560 1158 c 0
 1560 1104 1356 1132 1356 1030 c 2
 1356 124 l 2xf2
 1356 21 1563 73 1563 17 c 0xf080
 1563 14 1562 9 1559 0 c 1
 936 0 l 1
 933 7 931 13 931 18 c 0xf2
 931 84 1141 14 1141 130 c 2
 1141 576 l 1
 484 576 l 1
 484 124 l 2xf1
 484 21 708 73 708 17 c 0xe6
 708 14 707 9 704 0 c 1
 69 0 l 1
 66 7 64 13 64 18 c 0xf2
 64 84 269 14 269 130 c 2
 269 1030 l 2
 269 1131 65 1100 65 1159 c 0
 65 1160 66 1166 69 1176 c 1xea
484 636 m 1
 1141 636 l 1
 1141 807 l 1
 484 807 l 1
 484 636 l 1
EndSplineSet
EndChar

StartChar: hbar
Encoding: 295 295 215
Width: 1240
Flags: MW
HStem: 0 21G<15 548 15 15 670 1162 670 670> 818 270<582.5 603 1 704> 906 20G<633.5 792> 1356 20G<375 375>
VStem: 1 374<960 1088 1088 1088> 188 187<233 684 768 1164 1164 1164> 826 186<214 221 221 568>
LayerCount: 2
Fore
SplineSet
603 960 m 1xda
 1 960 l 1
 1 1088 l 1
 603 1088 l 1
 603 960 l 1xda
1012 568 m 2
 1012 221 l 2
 1012 188 1016 158 1024 133 c 1
 1038 67 1131 72 1164 50 c 1
 1164 34 1162 0 1162 0 c 1
 670 0 l 1
 670 0 668 34 668 50 c 1
 710 69 804 73 817 136 c 0
 822 160 826 187 826 214 c 2
 826 577 l 2
 826 713 774 818 634 818 c 0
 531 818 440 752 375 684 c 1
 375 233 l 2
 375 196 379 164 384 137 c 0
 397 70 502 71 549 50 c 1
 549 34 548 0 548 0 c 1
 15 0 l 1
 15 0 13 34 13 50 c 1
 36 73 141 61 154 109 c 1
 180 140 188 186 188 233 c 2
 188 1164 l 1xd6
 159 1210 16 1258 16 1258 c 1
 17 1293 l 1
 303 1369 l 1
 375 1376 l 1
 375 768 l 1
 470 862 562 926 705 926 c 0xba
 879 926 1012 821 1012 568 c 2
EndSplineSet
EndChar

StartChar: Itilde
Encoding: 296 296 216
Width: 766
Flags: MW
HStem: 0 21G<54 718 54 54> 1470 243<199 571>
VStem: 275 215<278 1030 1030 1059>
LayerCount: 2
Fore
SplineSet
125 1480 m 1
 87 1480 l 1
 91 1643 151 1713 247 1713 c 0
 359 1713 479 1603 559 1603 c 0
 602 1603 632 1639 645 1711 c 1
 683 1711 l 1
 680 1553 620 1470 522 1470 c 0
 410 1470 282 1586 204 1586 c 0
 161 1586 136 1543 125 1480 c 1
490 1081 m 2
 490 260 l 2
 490 226 492 195 496 166 c 0
 509 73 646 80 720 53 c 1
 720 37 718 0 718 0 c 1
 54 0 l 1
 54 0 53 36 53 52 c 1
 107 77 234 64 253 132 c 1
 271 169 275 216 275 278 c 2
 275 1030 l 2
 275 1088 268 1134 249 1169 c 1
 229 1235 99 1221 49 1251 c 1
 49 1266 51 1302 51 1302 c 1
 714 1302 l 1
 714 1302 716 1267 716 1250 c 1
 630 1220 490 1219 490 1081 c 2
EndSplineSet
EndChar

StartChar: itilde
Encoding: 297 297 217
Width: 589
Flags: MW
HStem: 0 21G<49 557 49 49> 1069 243<117 489>
VStem: 219 186<203.5 220 220 707 707 707>
LayerCount: 2
Fore
SplineSet
43 1079 m 1
 5 1079 l 1
 9 1242 69 1312 165 1312 c 0
 277 1312 397 1202 477 1202 c 0
 520 1202 550 1238 563 1310 c 1
 601 1310 l 1
 598 1152 538 1069 440 1069 c 0
 328 1069 200 1185 122 1185 c 0
 79 1185 54 1142 43 1079 c 1
219 181 m 2
 219 707 l 1
 189 759 96 757 67 791 c 1
 67 802 68 813 69 826 c 1
 346 906 l 1
 405 912 l 1
 405 220 l 2
 405 187 408 159 415 135 c 1
 427 68 530 71 559 50 c 1
 559 33 558 17 557 0 c 1
 49 0 l 1
 47 18 47 34 47 50 c 1
 91 74 219 83 219 181 c 2
EndSplineSet
EndChar

StartChar: Imacron
Encoding: 298 298 218
Width: 766
Flags: MW
HStem: 0 21G<54 718 54 54> 1578 20G<84 686 686 686>
VStem: 275 215<278 1030 1030 1059>
LayerCount: 2
Fore
SplineSet
686 1470 m 1
 84 1470 l 1
 84 1598 l 1
 686 1598 l 1
 686 1470 l 1
490 1081 m 2
 490 260 l 2
 490 226 492 195 496 166 c 0
 509 73 646 80 720 53 c 1
 720 37 718 0 718 0 c 1
 54 0 l 1
 54 0 53 36 53 52 c 1
 107 77 234 64 253 132 c 1
 271 169 275 216 275 278 c 2
 275 1030 l 2
 275 1088 268 1134 249 1169 c 1
 229 1235 99 1221 49 1251 c 1
 49 1266 51 1302 51 1302 c 1
 714 1302 l 1
 714 1302 716 1267 716 1250 c 1
 630 1220 490 1219 490 1081 c 2
EndSplineSet
EndChar

StartChar: imacron
Encoding: 299 299 219
Width: 589
Flags: MW
HStem: 0 21G<49 557 49 49> 1177 20G<2 604 604 604>
VStem: 219 186<203.5 220 220 707 707 707>
LayerCount: 2
Fore
SplineSet
604 1069 m 1
 2 1069 l 1
 2 1197 l 1
 604 1197 l 1
 604 1069 l 1
219 181 m 2
 219 707 l 1
 189 759 96 757 67 791 c 1
 67 802 68 813 69 826 c 1
 346 906 l 1
 405 912 l 1
 405 220 l 2
 405 187 408 159 415 135 c 1
 427 68 530 71 559 50 c 1
 559 33 558 17 557 0 c 1
 49 0 l 1
 47 18 47 34 47 50 c 1
 91 74 219 83 219 181 c 2
EndSplineSet
EndChar

StartChar: Ibreve
Encoding: 300 300 220
Width: 766
Flags: MW
HStem: 0 21G<55 719 55 55> 1697 20G<139 196 196 196 574 632 632 632>
VStem: 139 493<1649.5 1717> 276 215<278 1030 1030 1059>
LayerCount: 2
Fore
SplineSet
139 1717 m 1xe0
 196 1717 l 1
 204 1699 216 1683 230 1670 c 1
 256 1625 297 1601 386 1601 c 0
 477 1601 521 1626 547 1672 c 1
 559 1685 569 1699 574 1717 c 1
 632 1717 l 1
 632 1582 555 1470 386 1470 c 0
 213 1470 143 1579 139 1717 c 1xe0
491 1081 m 2xd0
 491 260 l 2
 491 226 493 195 497 166 c 0
 510 73 647 80 721 53 c 1
 721 37 719 0 719 0 c 1
 55 0 l 1
 55 0 54 36 54 52 c 1
 108 77 235 64 254 132 c 1
 272 169 276 216 276 278 c 2
 276 1030 l 2
 276 1088 269 1134 250 1169 c 1
 230 1235 100 1221 50 1251 c 1
 50 1266 52 1302 52 1302 c 1
 715 1302 l 1
 715 1302 717 1267 717 1250 c 1
 631 1220 491 1219 491 1081 c 2xd0
EndSplineSet
EndChar

StartChar: ibreve
Encoding: 301 301 221
Width: 589
Flags: MW
HStem: 0 21G<48 556 48 48> 1296 20G<56 113 113 113 491 549 549 549>
VStem: 56 493<1248.5 1316> 218 186<203.5 220 220 707 707 707>
LayerCount: 2
Fore
SplineSet
56 1316 m 1xe0
 113 1316 l 1
 121 1298 133 1282 147 1269 c 1
 173 1224 214 1200 303 1200 c 0
 394 1200 438 1225 464 1271 c 1
 476 1284 486 1298 491 1316 c 1
 549 1316 l 1
 549 1181 472 1069 303 1069 c 0
 130 1069 60 1178 56 1316 c 1xe0
218 181 m 2xd0
 218 707 l 1
 188 759 95 757 66 791 c 1
 66 802 67 813 68 826 c 1
 345 906 l 1
 404 912 l 1
 404 220 l 2
 404 187 407 159 414 135 c 1
 426 68 529 71 558 50 c 1
 558 33 557 17 556 0 c 1
 48 0 l 1
 46 18 46 34 46 50 c 1
 90 74 218 83 218 181 c 2xd0
EndSplineSet
EndChar

StartChar: Iogonek
Encoding: 302 302 222
Width: 766
Flags: MW
HStem: -381 21G<336.5 430> 0 21G<55 719 55 55> 1282 20G<52 715 715 715>
VStem: 276 215<278 1030 1030 1059>
LayerCount: 2
Fore
SplineSet
294 -10 m 1
 322 0 353 7 387 13 c 1
 375 -34 350 -49 336 -78 c 0
 323 -103 315 -129 315 -155 c 0
 315 -240 396 -274 462 -274 c 0
 501 -274 539 -261 576 -244 c 1
 587 -324 l 1
 508 -367 465 -381 395 -381 c 0
 278 -381 183 -312 183 -198 c 0
 183 -120 232 -54 294 -10 c 1
491 1081 m 2
 491 260 l 2
 491 226 493 195 497 166 c 0
 510 73 647 80 721 53 c 1
 721 37 719 0 719 0 c 1
 55 0 l 1
 55 0 54 36 54 52 c 1
 108 77 235 64 254 132 c 1
 272 169 276 216 276 278 c 2
 276 1030 l 2
 276 1088 269 1134 250 1169 c 1
 230 1235 100 1221 50 1251 c 1
 50 1266 52 1302 52 1302 c 1
 715 1302 l 1
 715 1302 717 1267 717 1250 c 1
 631 1220 491 1219 491 1081 c 2
EndSplineSet
EndChar

StartChar: iogonek
Encoding: 303 303 223
Width: 582
Flags: MW
HStem: -381 21G<248.5 342> 0 21G<51 547 51 51> 1108 232<260.5 325>
VStem: 213 186<204 220 220 713 713 713>
LayerCount: 2
Fore
SplineSet
206 -10 m 1
 234 0 265 7 299 13 c 1
 287 -34 262 -49 248 -78 c 0
 235 -103 227 -129 227 -155 c 0
 227 -240 308 -274 374 -274 c 0
 413 -274 451 -261 488 -244 c 1
 499 -324 l 1
 420 -367 377 -381 307 -381 c 0
 190 -381 95 -312 95 -198 c 0
 95 -120 144 -54 206 -10 c 1
177 1224 m 0
 177 1288 228 1340 293 1340 c 0
 357 1340 409 1288 409 1224 c 0
 409 1159 357 1108 293 1108 c 0
 228 1108 177 1159 177 1224 c 0
213 181 m 2
 213 713 l 1
 183 764 61 797 61 797 c 1
 63 832 l 1
 340 912 l 1
 399 918 l 1
 399 220 l 2
 399 188 402 159 409 135 c 1
 421 68 520 71 548 50 c 1
 548 33 548 17 547 0 c 1
 51 0 l 1
 49 18 49 34 49 50 c 1
 94 74 213 83 213 181 c 2
EndSplineSet
EndChar

StartChar: Idot
Encoding: 304 304 224
Width: 766
Flags: MW
HStem: 0 21G<55 719 55 55> 1470 218<355.5 415.5>
VStem: 276 215<278 1030 1030 1059>
LayerCount: 2
Fore
SplineSet
385 1688 m 0
 446 1688 495 1639 495 1579 c 0
 495 1518 446 1470 385 1470 c 0
 326 1470 276 1518 276 1579 c 0
 276 1639 326 1688 385 1688 c 0
491 1081 m 2
 491 260 l 2
 491 226 493 195 497 166 c 0
 510 73 647 80 721 53 c 1
 721 37 719 0 719 0 c 1
 55 0 l 1
 55 0 54 36 54 52 c 1
 108 77 235 64 254 132 c 1
 272 169 276 216 276 278 c 2
 276 1030 l 2
 276 1088 269 1134 250 1169 c 1
 230 1235 100 1221 50 1251 c 1
 50 1266 52 1302 52 1302 c 1
 715 1302 l 1
 715 1302 717 1267 717 1250 c 1
 631 1220 491 1219 491 1081 c 2
EndSplineSet
EndChar

StartChar: dotlessi
Encoding: 305 305 225
Width: 589
Flags: MW
HStem: 0 21G<49 557 49 49> 892 20G<405 405>
VStem: 219 186<203.5 220 220 707 707 707>
LayerCount: 2
Fore
SplineSet
219 181 m 2
 219 707 l 1
 189 759 96 757 67 791 c 1
 67 802 68 813 69 826 c 1
 346 906 l 1
 405 912 l 1
 405 220 l 2
 405 187 408 159 415 135 c 1
 427 68 530 71 559 50 c 1
 559 33 558 17 557 0 c 1
 49 0 l 1
 47 18 47 34 47 50 c 1
 91 74 219 83 219 181 c 2
EndSplineSet
EndChar

StartChar: IJ
Encoding: 306 306 226
Width: 1492
Flags: MW
HStem: -333 211<844.5 849.5 769.5 1000> 0 21G<55 719 55 55> 1282 20G<52 715 715 715 815 1481 1481 1481>
VStem: 276 215<278 1030 1030 1059> 1040 215<67 170 170 1035 1035 1044>
LayerCount: 2
Fore
SplineSet
815 1302 m 1
 1481 1302 l 1
 1481 1302 1482 1266 1482 1251 c 1
 1426 1226 1289 1231 1269 1155 c 0
 1260 1122 1255 1086 1255 1044 c 2
 1255 170 l 2
 1255 -202 1092 -333 908 -333 c 0
 781 -333 708 -275 708 -207 c 0
 708 -159 742 -122 797 -122 c 0
 902 -122 882 -251 961 -251 c 0
 1027 -251 1040 -142 1040 67 c 2
 1040 1035 l 2
 1040 1078 1036 1115 1028 1148 c 0
 1010 1227 876 1227 812 1250 c 1
 812 1267 815 1302 815 1302 c 1
491 1081 m 2
 491 260 l 2
 491 226 493 195 497 166 c 0
 510 73 647 80 721 53 c 1
 721 37 719 0 719 0 c 1
 55 0 l 1
 55 0 54 36 54 52 c 1
 108 77 235 64 254 132 c 1
 272 169 276 216 276 278 c 2
 276 1030 l 2
 276 1088 269 1134 250 1169 c 1
 230 1235 100 1221 50 1251 c 1
 50 1266 52 1302 52 1302 c 1
 715 1302 l 1
 715 1302 717 1267 717 1250 c 1
 631 1220 491 1219 491 1081 c 2
EndSplineSet
EndChar

StartChar: ij
Encoding: 307 307 227
Width: 1122
Flags: MW
HStem: -308 21G<596 596> 0 21G<51 547 51 51> 1108 232<260.5 325 830 894.5>
VStem: 177 222 213 186<204 220 220 713 713 713> 747 222 783 186<88 125 125 710 710 710>
LayerCount: 2
Fore
SplineSet
747 1224 m 0xf4
 747 1288 798 1340 862 1340 c 0
 927 1340 978 1288 978 1224 c 0
 978 1159 927 1108 862 1108 c 0
 798 1108 747 1159 747 1224 c 0xf4
783 88 m 1xf2
 783 710 l 1
 751 761 620 797 620 797 c 1
 621 832 l 1
 901 911 l 1
 969 918 l 1
 969 125 l 2
 969 -168 833 -282 596 -308 c 1
 581 -250 l 1
 745 -176 772 -136 783 88 c 1xf2
177 1224 m 0
 177 1288 228 1340 293 1340 c 0
 357 1340 409 1288 409 1224 c 0
 409 1159 357 1108 293 1108 c 0
 228 1108 177 1159 177 1224 c 0
213 181 m 2xec
 213 713 l 1
 183 764 61 797 61 797 c 1
 63 832 l 1
 340 912 l 1
 399 918 l 1
 399 220 l 2
 399 188 402 159 409 135 c 1
 421 68 520 71 548 50 c 1
 548 33 548 17 547 0 c 1
 51 0 l 1
 49 18 49 34 49 50 c 1
 94 74 213 83 213 181 c 2xec
EndSplineSet
EndChar

StartChar: Jcircumflex
Encoding: 308 308 228
Width: 726
Flags: MW
HStem: -333 211<78.5 83.5 3.5 234> 1953 20G<316.5 341.5>
VStem: 274 215<67 170 170 1035 1035 1044>
LayerCount: 2
Fore
SplineSet
329 1752 m 1
 329 1752 137 1546 77 1483 c 0
 68 1474 59 1470 51 1470 c 0
 41 1470 34 1477 34 1487 c 0
 34 1491 35 1495 37 1500 c 0
 110 1641 177 1780 243 1909 c 0
 268 1957 304 1973 329 1973 c 0
 354 1973 389 1957 414 1909 c 0
 480 1780 548 1641 621 1500 c 0
 623 1495 624 1491 624 1487 c 0
 624 1477 617 1470 607 1470 c 0
 599 1470 590 1474 581 1483 c 0
 521 1546 329 1752 329 1752 c 1
49 1302 m 1
 715 1302 l 1
 715 1302 716 1266 716 1251 c 1
 660 1226 523 1231 503 1155 c 0
 494 1122 489 1086 489 1044 c 2
 489 170 l 2
 489 -202 326 -333 142 -333 c 0
 15 -333 -58 -275 -58 -207 c 0
 -58 -159 -24 -122 31 -122 c 0
 136 -122 116 -251 195 -251 c 0
 261 -251 274 -142 274 67 c 2
 274 1035 l 2
 274 1078 270 1115 262 1148 c 0
 244 1227 110 1227 46 1250 c 1
 46 1267 49 1302 49 1302 c 1
EndSplineSet
EndChar

StartChar: jcircumflex
Encoding: 309 309 229
Width: 540
Flags: MW
HStem: -308 21G<14 14> 1552 20G<180.5 205.5>
VStem: 201 186<88 125 125 710 710 710>
LayerCount: 2
Fore
SplineSet
193 1351 m 1
 193 1351 1 1145 -59 1082 c 0
 -68 1073 -77 1069 -85 1069 c 0
 -95 1069 -102 1076 -102 1086 c 0
 -102 1090 -101 1094 -99 1099 c 0
 -26 1240 41 1379 107 1508 c 0
 132 1556 168 1572 193 1572 c 0
 218 1572 253 1556 278 1508 c 0
 344 1379 412 1240 485 1099 c 0
 487 1094 488 1090 488 1086 c 0
 488 1076 481 1069 471 1069 c 0
 463 1069 454 1073 445 1082 c 0
 385 1145 193 1351 193 1351 c 1
201 88 m 1
 201 710 l 1
 169 761 38 797 38 797 c 1
 39 832 l 1
 319 911 l 1
 387 918 l 1
 387 125 l 2
 387 -168 251 -282 14 -308 c 1
 -1 -250 l 1
 163 -176 190 -136 201 88 c 1
EndSplineSet
EndChar

StartChar: Kcommaaccent
Encoding: 310 310 230
Width: 1568
Flags: MW
HStem: -630 21G<671.5 725> -459 20G<711.5 766> 0 21G<50 720 50 50 786 1470 786 786> 1282 20G<50 716 716 716 886 1430 1430 1430>
VStem: 46 442<15.5 124> 273 215<130 660 716 1166> 488 278 600 319<-331.5 -278 -455.5 -253> 641 278<-607.5 -278> 725 229<17.5 104> 725 349
LayerCount: 2
Fore
SplineSet
600 -291 m 0xf9
 600 -215 661 -143 753 -143 c 0
 838 -143 919 -191 919 -365 c 0
 919 -546 767 -630 683 -630 c 0
 660 -630 641 -623 641 -592 c 0xf880
 641 -540 766 -567 766 -439 c 1xf2
 657 -439 600 -372 600 -291 c 0xf9
488 1166 m 2
 488 716 l 1
 574 716 l 1
 1070 1178 l 1
 1073 1187 1074 1194 1074 1200 c 0xf420
 1074 1277 881 1228 881 1284 c 0
 881 1288 883 1293 886 1302 c 1
 1430 1302 l 1
 1434 1284 l 1
 1434 1265 1365 1247 1292 1231 c 0
 1224 1216 1178 1195 1150 1172 c 1
 742 784 l 1
 1230 130 l 1
 1270 86 1474 56 1474 18 c 0
 1474 11 1473 5 1470 0 c 1
 786 0 l 1
 781 11 780 14 780 17 c 0
 780 67 954 33 954 102 c 0
 954 106 950 117 937 134 c 1
 578 660 l 1
 488 660 l 1
 488 124 l 2
 488 9 725 83 725 19 c 0
 725 16 723 10 720 0 c 1
 50 0 l 1
 47 9 46 14 46 17 c 0xf840
 46 76 273 23 273 130 c 2
 273 1166 l 2
 273 1268 45 1230 45 1284 c 0
 45 1288 47 1293 50 1302 c 1
 716 1302 l 1
 719 1292 720 1286 720 1285 c 0
 720 1227 488 1271 488 1166 c 2
EndSplineSet
EndChar

StartChar: kcommaaccent
Encoding: 311 311 231
Width: 1076
Flags: MW
HStem: -630 21G<465.5 519> -459 20G<505.5 560> 0 21G<21 545 21 21 613 1108 613 613> 1294 20G<397 397>
VStem: 191 206<120 420 475 1122 1122 1156.5> 394 319<-331.5 -278 -455.5 -253> 435 278<-607.5 -278>
LayerCount: 2
Fore
SplineSet
394 -291 m 0xf4
 394 -215 455 -143 547 -143 c 0
 632 -143 713 -191 713 -365 c 0
 713 -546 561 -630 477 -630 c 0
 454 -630 435 -623 435 -592 c 0xfa
 435 -540 560 -567 560 -439 c 1
 451 -439 394 -372 394 -291 c 0xf4
191 120 m 2xfa
 191 1122 l 2
 191 1191 -5 1195 -5 1227 c 0
 -5 1232 -4 1238 -1 1244 c 1
 397 1314 l 1
 397 475 l 1
 459 475 l 1
 809 778 l 1
 811 783 811 787 811 789 c 0
 811 852 682 813 682 855 c 0
 682 858 683 863 685 868 c 1
 1079 868 l 1
 1082 855 l 1
 1082 840 1052 828 999 817 c 0
 950 806 917 791 897 774 c 2
 601 522 l 1
 935 94 l 1
 963 62 1111 41 1111 13 c 0
 1111 9 1111 4 1108 0 c 1
 613 0 l 1
 610 6 608 10 608 12 c 0
 608 49 725 24 725 74 c 0
 725 77 723 85 712 97 c 1
 462 420 l 1
 397 420 l 1
 397 116 l 2
 397 32 549 60 549 14 c 0
 549 11 548 7 545 0 c 1
 21 0 l 1
 18 7 18 9 18 12 c 0
 18 55 191 44 191 120 c 2xfa
EndSplineSet
EndChar

StartChar: kgreenlandic
Encoding: 312 312 232
Width: 1136
Flags: MW
HStem: 0 21G<39 563 39 39 631 1126 631 631> 848 20G<39 563 563 563 703 1097 1097 1097>
VStem: 209 206<120 420 475 748 748 752> 209 358<12.5 748>
LayerCount: 2
Fore
SplineSet
209 120 m 2xd0
 209 748 l 2
 209 824 36 813 36 856 c 0
 36 859 36 861 39 868 c 1
 563 868 l 1
 566 861 567 857 567 854 c 0xd0
 567 807 415 836 415 752 c 2
 415 475 l 1
 477 475 l 1
 827 778 l 1
 829 783 829 787 829 789 c 0
 829 852 700 813 700 855 c 0
 700 858 701 863 703 868 c 1
 1097 868 l 1
 1100 855 l 1
 1100 840 1070 828 1017 817 c 0
 968 806 934 790 915 774 c 2
 619 522 l 1
 953 94 l 1
 981 62 1129 41 1129 13 c 0
 1129 9 1129 4 1126 0 c 1
 631 0 l 1
 628 6 626 10 626 12 c 0
 626 49 743 24 743 74 c 0
 743 77 741 85 730 97 c 1
 480 420 l 1
 415 420 l 1
 415 116 l 2xe0
 415 32 567 60 567 14 c 0
 567 11 566 7 563 0 c 1
 39 0 l 1
 36 7 36 9 36 12 c 0
 36 55 209 44 209 120 c 2xd0
EndSplineSet
EndChar

StartChar: Lacute
Encoding: 313 313 233
Width: 1273
Flags: MW
HStem: -11 21G<1218 1218> 0 21G<46 999 46 46> 1924 20G<968.5 1000>
VStem: 275 216<256.5 312 312 1034 1034 1040>
LayerCount: 2
Fore
SplineSet
1039 1816 m 0x70
 937 1723 752 1551 683 1490 c 0
 667 1476 653 1470 643 1470 c 0
 628 1470 620 1481 620 1496 c 0
 620 1505 624 1516 631 1526 c 0
 714 1636 853 1823 918 1910 c 0
 936 1934 958 1944 979 1944 c 0
 1021 1944 1060 1902 1060 1862 c 0
 1060 1845 1054 1829 1039 1816 c 0x70
275 240 m 2
 275 1034 l 2
 275 1076 271 1113 264 1147 c 0
 247 1228 138 1221 45 1251 c 1
 45 1266 47 1302 47 1302 c 1
 722 1302 l 1
 722 1302 723 1267 723 1250 c 1
 652 1221 516 1229 501 1148 c 1
 493 1115 491 1078 491 1040 c 2
 491 312 l 2
 491 201 506 102 592 83 c 1
 626 78 665 76 708 76 c 2
 856 77 l 2
 1001 78 1081 97 1147 217 c 1
 1169 264 1195 317 1221 344 c 1
 1239 344 1281 342 1281 342 c 1
 1218 -11 l 1xb0
 1218 -11 1094 0 999 0 c 2
 46 0 l 1
 46 0 44 36 44 54 c 1
 155 93 275 88 275 240 c 2
EndSplineSet
EndChar

StartChar: lacute
Encoding: 314 314 234
Width: 573
Flags: MW
HStem: 0 21G<38 530 38 38> 1973 20G<587.5 619>
VStem: 197 186<217 234 234 385>
LayerCount: 2
Fore
SplineSet
658 1865 m 0
 556 1772 371 1600 302 1539 c 0
 286 1525 272 1519 262 1519 c 0
 247 1519 239 1530 239 1545 c 0
 239 1554 243 1565 250 1575 c 0
 333 1685 472 1872 537 1959 c 0
 555 1983 577 1993 598 1993 c 0
 640 1993 679 1951 679 1911 c 0
 679 1894 673 1878 658 1865 c 0
311 1369 m 1
 383 1376 l 1
 383 234 l 2
 383 200 385 168 390 140 c 0
 400 73 496 73 532 50 c 1
 532 33 530 0 530 0 c 1
 38 0 l 1
 38 0 37 34 37 50 c 1
 76 76 177 74 189 140 c 0
 194 167 197 196 197 228 c 0
 197 542 196 855 196 1169 c 1
 169 1213 31 1258 31 1258 c 1
 33 1293 l 1
 311 1369 l 1
EndSplineSet
EndChar

StartChar: Lcommaaccent
Encoding: 315 315 235
Width: 1273
Flags: MW
HStem: -641 21G<575.5 629> -470 20G<615.5 670> 0 21G<47 1000 47 47> 1282 20G<48 723 723 723>
VStem: 276 216<256.5 312 312 1034 1034 1040> 504 319<-342.5 -289 -466.5 -264> 545 278<-618.5 -289>
LayerCount: 2
Fore
SplineSet
504 -302 m 0xfc
 504 -226 565 -154 657 -154 c 0
 742 -154 823 -202 823 -376 c 0
 823 -557 671 -641 587 -641 c 0
 564 -641 545 -634 545 -603 c 0xfa
 545 -551 670 -578 670 -450 c 1
 561 -450 504 -383 504 -302 c 0xfc
276 240 m 2
 276 1034 l 2
 276 1076 272 1113 265 1147 c 0
 248 1228 139 1221 46 1251 c 1
 46 1266 48 1302 48 1302 c 1
 723 1302 l 1
 723 1302 724 1267 724 1250 c 1
 653 1221 517 1229 502 1148 c 1
 494 1115 492 1078 492 1040 c 2
 492 312 l 2
 492 201 507 102 593 83 c 1
 627 78 666 76 709 76 c 2
 857 77 l 2
 1002 78 1082 97 1148 217 c 1
 1170 264 1196 317 1222 344 c 1
 1240 344 1282 342 1282 342 c 1
 1219 -11 l 1
 1219 -11 1095 0 1000 0 c 2
 47 0 l 1
 47 0 45 36 45 54 c 1
 156 93 276 88 276 240 c 2
EndSplineSet
EndChar

StartChar: lcommaaccent
Encoding: 316 316 236
Width: 573
Flags: MW
HStem: -630 21G<194.5 248> -459 20G<234.5 289> 0 21G<39 531 39 39> 1356 20G<384 384>
VStem: 123 319<-331.5 -278 -455.5 -253> 164 278<-607.5 -278> 198 186<217 234 234 385>
LayerCount: 2
Fore
SplineSet
123 -291 m 0xf8
 123 -215 184 -143 276 -143 c 0
 361 -143 442 -191 442 -365 c 0
 442 -546 290 -630 206 -630 c 0
 183 -630 164 -623 164 -592 c 0xf4
 164 -540 289 -567 289 -439 c 1
 180 -439 123 -372 123 -291 c 0xf8
312 1369 m 1
 384 1376 l 1
 384 234 l 2
 384 200 386 168 391 140 c 0
 401 73 497 73 533 50 c 1
 533 33 531 0 531 0 c 1
 39 0 l 1
 39 0 38 34 38 50 c 1
 77 76 178 74 190 140 c 0
 195 167 198 196 198 228 c 0xf2
 198 542 197 855 197 1169 c 1
 170 1213 32 1258 32 1258 c 1
 34 1293 l 1
 312 1369 l 1
EndSplineSet
EndChar

StartChar: Lcaron
Encoding: 317 317 237
Width: 1273
Flags: MW
HStem: -11 21G<1218 1218> 0 21G<46 999 46 46> 1307 20G<1613.5 1709>
VStem: 275 216<256.5 312 312 1034 1034 1040> 1516 333<958 1229>
LayerCount: 2
Fore
SplineSet
1514 748 m 1x78
 1505 763 1496 780 1496 808 c 1
 1600 842 1716 863 1716 993 c 1
 1697 1038 1667 1063 1614 1072 c 0
 1551 1082 1516 1126 1516 1190 c 0
 1516 1268 1571 1327 1656 1327 c 0
 1762 1327 1849 1233 1849 1061 c 0
 1849 855 1692 751 1514 748 c 1x78
275 240 m 2
 275 1034 l 2
 275 1076 271 1113 264 1147 c 0
 247 1228 138 1221 45 1251 c 1
 45 1266 47 1302 47 1302 c 1
 722 1302 l 1
 722 1302 723 1267 723 1250 c 1
 652 1221 516 1229 501 1148 c 1
 493 1115 491 1078 491 1040 c 2
 491 312 l 2
 491 201 506 102 592 83 c 1
 626 78 665 76 708 76 c 2
 856 77 l 2
 1001 78 1081 97 1147 217 c 1
 1169 264 1195 317 1221 344 c 1
 1239 344 1281 342 1281 342 c 1
 1218 -11 l 1xb8
 1218 -11 1094 0 999 0 c 2
 46 0 l 1
 46 0 44 36 44 54 c 1
 155 93 275 88 275 240 c 2
EndSplineSet
EndChar

StartChar: lcaron
Encoding: 318 318 238
Width: 573
Flags: MW
HStem: 0 21G<38 530 38 38> 1356 20G<383 383 864.5 960>
VStem: 197 186<217 234 234 385> 767 333<1007 1278>
LayerCount: 2
Fore
SplineSet
765 797 m 1
 756 812 747 829 747 857 c 1
 851 891 967 912 967 1042 c 1
 948 1087 918 1112 865 1121 c 0
 802 1131 767 1175 767 1239 c 0
 767 1317 822 1376 907 1376 c 0
 1013 1376 1100 1282 1100 1110 c 0
 1100 904 943 800 765 797 c 1
311 1369 m 1
 383 1376 l 1
 383 234 l 2
 383 200 385 168 390 140 c 0
 400 73 496 73 532 50 c 1
 532 33 530 0 530 0 c 1
 38 0 l 1
 38 0 37 34 37 50 c 1
 76 76 177 74 189 140 c 0
 194 167 197 196 197 228 c 0
 197 542 196 855 196 1169 c 1
 169 1213 31 1258 31 1258 c 1
 33 1293 l 1
 311 1369 l 1
EndSplineSet
EndChar

StartChar: Ldot
Encoding: 319 319 239
Width: 1121
Flags: MW
HStem: -11 21G<1219 1219> 0 21G<47 1000 47 47> 461 296<729 813.5> 1282 20G<48 723 723 723>
VStem: 276 216<256.5 312 312 1034 1034 1040> 618 306<571.5 647 571.5 647>
LayerCount: 2
Fore
SplineSet
618 609 m 0x7c
 618 685 686 757 771 757 c 0
 856 757 924 685 924 609 c 0
 924 534 856 461 771 461 c 0
 687 461 618 528 618 609 c 0x7c
276 240 m 2
 276 1034 l 2
 276 1076 272 1113 265 1147 c 0
 248 1228 139 1221 46 1251 c 1
 46 1266 48 1302 48 1302 c 1
 723 1302 l 1
 723 1302 724 1267 724 1250 c 1
 653 1221 517 1229 502 1148 c 1
 494 1115 492 1078 492 1040 c 2
 492 312 l 2
 492 201 507 102 593 83 c 1
 627 78 666 76 709 76 c 2
 857 77 l 2
 1002 78 1082 97 1148 217 c 1
 1170 264 1196 317 1222 344 c 1
 1240 344 1282 342 1282 342 c 1
 1219 -11 l 1xbc
 1219 -11 1095 0 1000 0 c 2
 47 0 l 1
 47 0 45 36 45 54 c 1
 156 93 276 88 276 240 c 2
EndSplineSet
EndChar

StartChar: ldot
Encoding: 320 320 240
Width: 852
Flags: MW
HStem: 0 21G<39 531 39 39> 607 296<592 676.5> 1356 20G<384 384>
VStem: 198 186<217 234 234 385> 481 306<717.5 793 717.5 793>
LayerCount: 2
Fore
SplineSet
481 755 m 0
 481 831 549 903 634 903 c 0
 719 903 787 831 787 755 c 0
 787 680 719 607 634 607 c 0
 550 607 481 674 481 755 c 0
312 1369 m 1
 384 1376 l 1
 384 234 l 2
 384 200 386 168 391 140 c 0
 401 73 497 73 533 50 c 1
 533 33 531 0 531 0 c 1
 39 0 l 1
 39 0 38 34 38 50 c 1
 77 76 178 74 190 140 c 0
 195 167 198 196 198 228 c 0
 198 542 197 855 197 1169 c 1
 170 1213 32 1258 32 1258 c 1
 34 1293 l 1
 312 1369 l 1
EndSplineSet
EndChar

StartChar: Lslash
Encoding: 321 321 241
Width: 1272
Flags: MW
HStem: -26 21G<1045 1047> 0 21G<50 886 50 50> 1156 20G<52 722 722 722>
VStem: 276 215<142 1038 1038 1044> 276 450<142 1159.5 1038 1159.5>
LayerCount: 2
Fore
SplineSet
489 623 m 1xf0
 243 524 l 2
 187 501 156 491 135 491 c 0
 115 491 96 509 96 534 c 0
 96 557 123 577 206 609 c 1
 683 802 l 2
 733 822 765 831 788 831 c 0
 816 831 831 813 831 787 c 0
 831 762 801 750 718 716 c 2
 489 623 l 1xf0
491 1044 m 2
 491 136 l 2
 491 95 501 56 536 56 c 1
 842 67 l 2
 928 70 963 92 992 207 c 0
 1008 273 1031 346 1057 346 c 0
 1060 346 1062 341 1081 341 c 1
 1053 -20 l 1
 1051 -24 1049 -26 1045 -26 c 1
 1000 -13 948 0 886 0 c 2
 50 0 l 1
 47 8 46 15 46 22 c 0xf0
 46 98 276 26 276 142 c 2
 276 1038 l 2
 276 1147 97 1090 48 1159 c 0
 48 1160 49 1166 52 1176 c 1
 722 1176 l 1
 725 1169 726 1162 726 1157 c 0xe8
 726 1089 491 1158 491 1044 c 2
EndSplineSet
EndChar

StartChar: lslash
Encoding: 322 322 242
Width: 578
Flags: MW
HStem: 0 21G<16 576 16 16> 1294 20G<402 402>
VStem: 12 390<15.5 120> 195 207<1122 1156.5> 195 395<751.5 1156.5>
LayerCount: 2
Fore
SplineSet
469 702 m 2xc8
 167 621 l 2
 116 607 84 601 64 601 c 0
 38 601 23 616 23 645 c 0
 23 670 49 684 141 709 c 2
 445 791 l 2
 488 803 519 808 540 808 c 0
 573 808 590 793 590 767 c 0
 590 736 568 728 469 702 c 2xc8
196 126 m 2
 195 1122 l 2xd0
 195 1191 -1 1195 -1 1227 c 0
 -1 1232 0 1238 3 1244 c 1
 402 1314 l 1
 402 120 l 2
 402 28 580 66 580 18 c 0
 580 12 579 6 576 0 c 1
 16 0 l 1
 13 9 12 14 12 17 c 0xe0
 12 74 196 32 196 126 c 2
EndSplineSet
EndChar

StartChar: Nacute
Encoding: 323 323 243
Width: 1661
Flags: MW
HStem: -16 21G<1370.5 1390.5> 0 21G<47 611 47 47> 1924 20G<1134.5 1166>
LayerCount: 2
Fore
SplineSet
1205 1816 m 0x60
 1103 1723 918 1551 849 1490 c 0
 833 1476 819 1470 809 1470 c 0
 794 1470 786 1481 786 1496 c 0
 786 1505 790 1516 797 1526 c 0
 880 1636 1019 1823 1084 1910 c 0
 1102 1934 1124 1944 1145 1944 c 0
 1187 1944 1226 1902 1226 1862 c 0
 1226 1845 1220 1829 1205 1816 c 0x60
279 239 m 1
 290 1091 l 1
 215 1214 112 1218 34 1250 c 1
 35 1302 l 1
 384 1302 l 1
 1331 329 l 1
 1325 958 l 2
 1324 1020 1319 1082 1298 1131 c 1
 1278 1222 1152 1219 1093 1249 c 1
 1093 1265 1094 1281 1096 1302 c 1
 1622 1302 l 1
 1623 1285 1623 1267 1623 1248 c 1
 1564 1221 1445 1209 1427 1101 c 1
 1418 1059 1412 1011 1412 959 c 2
 1407 353 l 1
 1407 187 1427 114 1430 -9 c 1
 1417 -14 1400 -16 1381 -16 c 0xa0
 1360 -16 1341 -14 1324 -9 c 1
 1264 65 1210 126 1160 178 c 2
 360 1009 l 1
 370 307 l 2
 371 256 377 211 387 172 c 1
 408 69 550 86 614 53 c 1
 614 37 613 20 611 0 c 1
 47 0 l 1
 45 17 45 35 45 54 c 1
 148 83 279 91 279 239 c 1
EndSplineSet
EndChar

StartChar: nacute
Encoding: 324 324 244
Width: 1204
Flags: MW
HStem: 0 21G<44 559 44 44 680 680 680 1173> 906 20G<643.5 808.5> 1523 20G<912.5 944>
VStem: 199 186<185 222 222 668> 841 185 841 187<226 245 245 449 449 468>
LayerCount: 2
Fore
SplineSet
983 1415 m 0xf8
 881 1322 696 1150 627 1089 c 0
 611 1075 597 1069 587 1069 c 0
 572 1069 564 1080 564 1095 c 0
 564 1104 568 1115 575 1125 c 0
 658 1235 797 1422 862 1509 c 0
 880 1533 902 1543 923 1543 c 0
 965 1543 1004 1501 1004 1461 c 0
 1004 1444 998 1428 983 1415 c 0xf8
385 668 m 1
 385 222 l 2
 385 101 450 61 561 50 c 1
 561 33 559 0 559 0 c 1
 44 0 l 1
 44 0 41 36 44 54 c 1
 134 75 199 89 199 185 c 2
 199 727 l 1
 173 778 40 811 40 811 c 1
 43 845 l 1
 316 913 l 1
 377 917 l 1
 385 755 l 1
 388 755 l 1
 456 847 574 926 713 926 c 0
 904 926 1016 819 1026 599 c 0xf8
 1027 556 1028 512 1028 468 c 2
 1028 245 l 2xf4
 1028 73 1061 91 1173 54 c 1
 1175 36 1173 0 1173 0 c 1
 680 0 l 1
 680 0 678 34 678 50 c 1
 729 70 824 76 836 149 c 0
 840 172 841 198 841 226 c 2
 841 449 l 2
 841 657 841 818 651 818 c 0
 548 818 458 745 385 668 c 1
EndSplineSet
EndChar

